<svg id="Layer_1" data-name="Layer 1" xmlns="http://www.w3.org/2000/svg" viewBox="0 0 220.96 325.3"><defs><style>.cls-1{fill:none;}.cls-2{fill:#e9e2ca;}.cls-3{fill:#1b1b1b;}</style></defs><title>Artboard 2</title><polygon class="cls-1" points="118.08 222.69 115.84 222.69 115.84 219.99 98.38 219.99 98.38 222.69 96.14 222.69 96.14 225.38 93.9 225.38 93.9 237.91 96.14 237.91 96.14 240.59 100.62 240.59 100.62 243.3 111.84 243.3 111.84 245.98 114.08 245.98 114.08 249.6 111.84 249.6 111.84 252.29 102.38 252.29 102.38 249.6 100.14 249.6 100.14 246.9 93.9 246.9 93.9 254.05 96.14 254.05 96.14 256.74 98.38 256.74 98.38 259.43 115.84 259.43 115.84 256.74 118.08 256.74 118.08 254.05 120.34 254.05 120.34 241.53 118.08 241.53 118.08 238.82 113.6 238.82 113.6 236.14 102.38 236.14 102.38 233.45 100.14 233.45 100.14 229.83 102.38 229.83 102.38 227.14 111.84 227.14 111.84 229.83 114.08 229.83 114.08 232.54 120.34 232.54 120.34 225.38 118.08 225.38 118.08 222.69"/><rect class="cls-1" x="74.72" y="242.31" width="0.01" height="9.62"/><polygon class="cls-1" points="93.56 210.89 103.17 210.89 103.17 209.33 104.48 209.33 104.48 207.76 105.8 207.76 105.8 206.19 107.1 206.19 107.1 191.86 105.8 191.86 105.8 190.3 104.48 190.3 104.48 188.73 103.17 188.73 103.17 187.16 93.56 187.16 93.56 188.73 92.26 188.73 92.26 190.3 90.95 190.3 90.95 191.86 89.64 191.86 89.64 206.19 90.95 206.19 90.95 207.76 92.26 207.76 92.26 209.33 93.56 209.33 93.56 210.89"/><rect class="cls-1" x="74.72" y="227.5" width="0.01" height="6.94"/><polygon class="cls-1" points="92.31 252.29 74.37 252.29 74.37 241.96 90.07 241.96 90.07 234.8 74.37 234.8 74.37 227.14 92.31 227.14 92.31 219.99 68.13 219.99 68.13 259.43 92.31 259.43 92.31 252.29"/><rect class="cls-1" x="146.59" y="219.99" width="6.24" height="39.44"/><polygon class="cls-1" points="129.78 259.43 136.02 259.43 136.02 227.14 144.99 227.14 144.99 219.99 120.81 219.99 120.81 227.14 129.78 227.14 129.78 259.43"/><rect class="cls-1" x="157.43" y="89.55" width="5.27" height="34.76"/><polygon class="cls-1" points="151.53 108.61 151.53 106.18 151.53 106.17 153.78 106.17 153.78 94.39 151.53 94.39 151.53 91.98 149.3 91.98 149.3 89.55 128.37 89.55 128.37 124.31 133.64 124.31 133.64 111.02 133.65 111.02 144.02 111.02 144.02 113.43 146.26 113.43 146.26 113.44 146.26 115.85 148.49 115.85 148.49 124.31 153.78 124.31 153.78 112.54 151.53 112.54 151.53 110.12 149.3 110.12 149.3 108.61 151.53 108.61"/><polygon class="cls-1" points="179.72 241.53 177.48 241.53 177.48 233.45 175.24 233.45 175.24 225.38 173.01 225.38 173.01 219.99 164.51 219.99 164.51 225.38 162.25 225.38 162.25 233.45 160.01 233.45 160.01 241.53 157.78 241.53 157.78 249.6 155.54 249.6 155.54 259.43 161.78 259.43 161.78 251.37 175.72 251.37 175.72 259.43 181.98 259.43 181.98 249.6 179.72 249.6 179.72 241.53"/><polygon class="cls-1" points="174.19 124.31 179.46 124.31 179.46 95.29 188.41 95.29 188.41 89.55 165.25 89.55 165.25 95.29 174.19 95.29 174.19 124.31"/><polygon class="cls-1" points="177.96 143.87 175.72 143.87 175.72 149.25 173.48 149.25 173.48 154.62 171.23 154.62 171.23 160.02 168.99 160.02 168.99 165.39 166.75 165.39 166.75 170.78 164.51 170.78 164.51 177.91 169.63 177.91 169.63 172.54 171.87 172.54 171.87 167.15 174.13 167.15 174.13 161.78 176.37 161.78 176.37 156.39 178.61 156.39 178.61 151.02 180.85 151.02 180.85 145.64 183.09 145.64 183.09 140.24 185.33 140.24 185.33 133.11 180.21 133.11 180.21 138.48 177.96 138.48 177.96 143.87"/><polygon class="cls-1" points="177.93 199.72 175.76 199.72 175.76 193.44 174.45 193.44 174.45 187.16 168.77 187.16 168.77 193.44 167.45 193.44 167.45 199.72 165.3 199.72 165.3 193.44 163.99 193.44 163.99 187.16 159.62 187.16 159.62 191.86 158.11 191.86 158.11 190.3 156.8 190.3 156.8 188.73 155.49 188.73 155.49 187.16 145.87 187.16 145.87 188.73 144.57 188.73 144.57 190.3 143.27 190.3 143.27 191.86 141.96 191.86 141.96 206.19 143.27 206.19 143.27 207.76 144.57 207.76 144.57 209.33 145.87 209.33 145.87 210.89 155.49 210.89 155.49 209.33 156.8 209.33 156.8 207.76 158.11 207.76 158.11 206.19 159.41 206.19 159.41 195.21 160.92 195.21 160.92 201.49 162.23 201.49 162.23 207.76 163.53 207.76 163.53 210.89 169.22 210.89 169.22 207.76 170.54 207.76 170.54 201.49 172.68 201.49 172.68 207.76 174 207.76 174 210.89 179.69 210.89 179.69 207.76 180.99 207.76 180.99 201.49 182.3 201.49 182.3 195.21 183.61 195.21 183.61 187.16 179.23 187.16 179.23 193.44 177.93 193.44 177.93 199.72"/><polygon class="cls-1" points="141.1 199.13 141.1 190.3 139.79 190.3 139.79 188.73 138.49 188.73 138.49 187.16 124.96 187.16 124.96 210.89 129.33 210.89 129.33 202.26 134.11 202.26 134.11 203.83 135.42 203.83 135.42 205.4 136.72 205.4 136.72 210.89 141.1 210.89 141.1 202.07 139.79 202.07 139.79 199.13 141.1 199.13"/><polygon class="cls-1" points="73.25 151.02 75.49 151.02 75.49 145.64 77.74 145.64 77.74 140.24 79.98 140.24 79.98 133.11 74.86 133.11 74.86 138.48 72.61 138.48 72.61 143.87 70.37 143.87 70.37 149.25 68.13 149.25 68.13 154.62 65.87 154.62 65.87 160.02 63.64 160.02 63.64 165.39 61.4 165.39 61.4 170.78 59.16 170.78 59.16 177.91 64.28 177.91 64.28 172.54 66.52 172.54 66.52 167.15 68.78 167.15 68.78 161.78 71.02 161.78 71.02 156.39 73.25 156.39 73.25 151.02"/><polygon class="cls-1" points="84.41 210.89 88.79 210.89 88.79 187.16 83.1 187.16 83.1 190.3 81.8 190.3 81.8 195.01 80.49 195.01 80.49 199.72 78.33 199.72 78.33 195.01 77.03 195.01 77.03 190.3 75.71 190.3 75.71 187.16 70.03 187.16 70.03 210.89 74.41 210.89 74.41 201.49 75.26 201.49 75.26 206.19 76.56 206.19 76.56 210.89 82.26 210.89 82.26 206.19 83.56 206.19 83.56 201.49 84.41 201.49 84.41 210.89"/><rect class="cls-1" x="61.04" y="165.03" width="0.01" height="5.39"/><polygon class="cls-1" points="124.1 199.13 124.1 190.3 122.79 190.3 122.79 188.73 121.48 188.73 121.48 187.16 107.95 187.16 107.95 210.89 112.33 210.89 112.33 202.26 117.11 202.26 117.11 203.83 118.42 203.83 118.42 205.4 119.72 205.4 119.72 210.89 124.1 210.89 124.1 202.07 122.79 202.07 122.79 199.13 124.1 199.13"/><polygon class="cls-1" points="69.18 191.86 67.87 191.86 67.87 190.3 66.56 190.3 66.56 188.73 65.26 188.73 65.26 187.16 55.64 187.16 55.64 188.73 54.33 188.73 54.33 190.3 53.02 190.3 53.02 191.86 52.18 191.86 52.18 187.16 37.34 187.16 37.34 192.07 42.57 192.07 42.57 210.89 46.95 210.89 46.95 192.07 51.72 192.07 51.72 206.19 53.02 206.19 53.02 207.76 54.33 207.76 54.33 209.33 55.64 209.33 55.64 210.89 65.26 210.89 65.26 209.33 66.56 209.33 66.56 207.76 67.87 207.76 67.87 206.19 69.18 206.19 69.18 191.86"/><rect class="cls-1" x="119.44" y="89.55" width="5.27" height="34.76"/><polygon class="cls-1" points="42.98 167.15 45.24 167.15 45.24 161.78 47.48 161.78 47.48 156.39 49.72 156.39 49.72 151.02 51.95 151.02 51.95 145.64 54.2 145.64 54.2 140.24 56.44 140.24 56.44 133.11 51.32 133.11 51.32 138.48 49.07 138.48 49.07 143.87 46.83 143.87 46.83 149.25 44.59 149.25 44.59 154.62 42.34 154.62 42.34 160.02 40.1 160.02 40.1 165.39 37.86 165.39 37.86 170.78 35.62 170.78 35.62 177.91 40.74 177.91 40.74 172.54 42.98 172.54 42.98 167.15"/><polygon class="cls-1" points="106.88 172.54 109.13 172.54 109.13 169.86 111.37 169.86 111.37 146.55 109.13 146.55 109.13 143.87 106.88 143.87 106.88 141.18 104.64 141.18 104.64 138.48 89.41 138.48 89.41 141.18 87.17 141.18 87.17 143.87 84.94 143.87 84.94 146.55 82.7 146.55 82.7 169.86 84.94 169.86 84.94 172.54 87.17 172.54 87.17 175.23 89.41 175.23 89.41 177.91 104.64 177.91 104.64 175.23 106.88 175.23 106.88 172.54"/><polygon class="cls-1" points="45.22 219.99 38.98 219.99 38.98 259.43 45.22 259.43 45.22 241.96 59.16 241.96 59.16 259.43 65.41 259.43 65.41 219.99 59.16 219.99 59.16 234.8 45.22 234.8 45.22 219.99"/><polygon class="cls-1" points="120.32 145.64 138.26 145.64 138.26 138.48 114.08 138.48 114.08 177.91 120.32 177.91 120.32 161.78 136.02 161.78 136.02 154.62 120.32 154.62 120.32 145.64"/><polygon class="cls-1" points="148.34 167.15 150.59 167.15 150.59 161.78 152.83 161.78 152.83 156.39 155.07 156.39 155.07 151.02 157.31 151.02 157.31 145.64 159.56 145.64 159.56 140.24 161.79 140.24 161.79 133.11 156.67 133.11 156.67 138.48 154.42 138.48 154.42 143.87 152.18 143.87 152.18 149.25 149.94 149.25 149.94 154.62 147.69 154.62 147.69 160.02 145.45 160.02 145.45 165.39 143.21 165.39 143.21 170.78 140.98 170.78 140.98 177.91 146.1 177.91 146.1 172.54 148.34 172.54 148.34 167.15"/><polygon class="cls-1" points="83.68 100.14 88.97 100.14 88.97 94.39 86.72 94.39 86.72 91.98 84.49 91.98 84.49 89.55 68.02 89.55 68.02 91.98 65.79 91.98 65.79 94.39 65.78 94.39 63.56 94.39 63.56 104.97 65.78 104.97 65.79 104.97 65.79 107.38 70.25 107.38 70.25 109.81 81.44 109.81 81.44 109.82 81.44 112.23 83.68 112.23 83.68 116.17 81.44 116.17 81.44 118.58 81.44 118.59 71.06 118.59 71.06 116.17 68.83 116.17 68.83 113.74 63.56 113.74 63.56 119.48 65.78 119.48 65.78 119.49 65.79 119.49 65.79 121.9 68.02 121.9 68.02 124.31 84.49 124.31 84.49 121.9 86.72 121.9 86.72 119.48 88.97 119.48 88.97 108.92 86.72 108.92 86.72 106.48 82.26 106.48 82.26 104.07 71.07 104.07 71.06 104.07 71.06 101.65 68.83 101.65 68.83 97.71 71.06 97.71 71.06 95.29 71.07 95.29 81.44 95.29 81.44 97.71 83.68 97.71 83.68 100.14"/><polygon class="cls-1" points="59.9 104.97 59.9 99.24 55.44 99.24 55.44 97.71 57.67 97.71 57.67 89.55 52.4 89.55 52.4 96.81 50.15 96.81 50.15 99.24 46.5 99.24 46.49 99.24 46.49 97.71 46.5 97.71 48.73 97.71 48.73 89.55 43.43 89.55 43.43 96.81 41.2 96.81 41.2 99.24 36.74 99.24 36.74 104.97 41.2 104.97 41.2 108.92 36.74 108.92 36.74 114.64 41.2 114.64 41.2 116.17 38.97 116.17 38.97 124.31 44.24 124.31 44.24 117.07 46.49 117.07 46.49 114.64 46.5 114.64 50.15 114.64 50.15 116.17 47.91 116.17 47.91 124.31 53.21 124.31 53.21 117.07 55.44 117.07 55.44 114.64 59.9 114.64 59.9 108.92 55.44 108.92 55.44 104.97 59.9 104.97"/><polygon class="cls-1" points="111.32 89.55 92.62 89.55 92.62 124.31 97.9 124.31 97.9 112.23 111.32 112.23 111.32 109.82 111.32 109.81 113.55 109.81 113.55 107.38 115.79 107.38 115.79 94.39 113.55 94.39 113.55 91.98 111.32 91.98 111.32 89.55"/><path class="cls-2" d="M178.87,193.09h-1.3v6.28h-1.45v-6.28H174.8V186.8h-6.38v6.29H167.1v6.28h-1.45v-6.28h-1.3V186.8h-5.09v4.71h-.79V190h-1.32v-1.57h-1.31V186.8H145.52v1.58h-1.31V190h-1.3v1.56h-1.3v15h1.3v1.57h1.3v1.56h1.31v1.57h10.32v-1.57h1.31v-1.56h1.32v-1.57h1.3v-11h.8v6.28h1.3v6.28h1.31v3.13h6.39v-3.13h1.32v-6.28h1.44v6.28h1.31v3.13h6.41v-3.13h1.3v-6.28h1.3v-6.28H184V186.8h-5.09Zm.36-5.93h4.38v8.05H182.3v6.28H181v6.27h-1.3v3.13H174v-3.13h-1.32v-6.27h-2.14v6.27h-1.32v3.13h-5.69v-3.13h-1.3v-6.27h-1.31v-6.28h-1.51v11h-1.3v1.57H156.8v1.57h-1.31v1.56h-9.62v-1.56h-1.3v-1.57h-1.3v-1.57H142V191.86h1.31V190.3h1.3v-1.57h1.3v-1.57h9.62v1.57h1.31v1.57h1.31v1.56h1.51v-4.7H164v6.28h1.31v6.28h2.15v-6.28h1.32v-6.28h5.68v6.28h1.31v6.28h2.17v-6.28h1.3Z"/><path class="cls-2" d="M146.45,172.9h2.24v-5.39h2.25v-5.37h2.24v-5.4h2.24v-5.37h2.24V146h2.26V140.6h2.23v-7.85h-5.83v5.37h-2.26v5.4h-2.23v5.38h-2.24v5.37h-2.25v5.39H145.1V165h-2.24v5.39h-2.24v7.85h5.83Zm-.35,5H141v-7.13h2.23v-5.39h2.24V160h2.24v-5.4h2.25v-5.37h2.24v-5.38h2.24v-5.39h2.25v-5.37h5.12v7.13h-2.23v5.4h-2.25V151h-2.24v5.37h-2.24v5.39h-2.24v5.37h-2.25v5.39H146.1Z"/><path class="cls-2" d="M41.1,172.9h2.24v-5.39h2.25v-5.37h2.24v-5.4h2.24v-5.37H52.3V146h2.26V140.6H56.8v-7.85H51v5.37H48.71v5.4H46.47v5.38H44.23v5.37H42v5.39H39.75V165H37.51v5.39H35.27v7.85H41.1Zm-.36,5H35.62v-7.13h2.24v-5.39H40.1V160h2.24v-5.4h2.25v-5.37h2.24v-5.38h2.24v-5.39h2.25v-5.37h5.12v7.13H54.2v5.4H52V151H49.72v5.37H47.48v5.39H45.24v5.37H43v5.39H40.74Z"/><path class="cls-2" d="M71.37,156.74H73.6v-5.37h2.24V146H78.1V140.6h2.24v-7.85H74.51v5.37H72.25v5.4H70v5.38H67.77v5.37H65.52v5.39H63.28V165H61.05v5.39H58.8v7.85h5.83V172.9h2.24v-5.39h2.26v-5.37h2.24Zm-.35,5H68.78v5.37H66.52v5.39H64.28v5.37H59.16v-7.13H61.4v-5.39h2.24V160h2.23v-5.4h2.26v-5.37h2.24v-5.38h2.24v-5.39h2.25v-5.37H80v7.13H77.74v5.4H75.49V151H73.25v5.37H71Z"/><path class="cls-2" d="M179.86,138.12H177.6v5.4h-2.24v5.38h-2.23v5.37h-2.26v5.39h-2.24V165h-2.24v5.39h-2.24v7.85H170V172.9h2.24v-5.39h2.26v-5.37h2.24v-5.4H179v-5.37h2.24V146h2.25V140.6h2.24v-7.85h-5.83Zm.35-5h5.12v7.13h-2.24v5.4h-2.24V151h-2.24v5.37h-2.24v5.39h-2.24v5.37h-2.26v5.39h-2.24v5.37h-5.12v-7.13h2.24v-5.39H169V160h2.24v-5.4h2.25v-5.37h2.24v-5.38H178v-5.39h2.25Z"/><path class="cls-2" d="M67.77,259.78H92.66v-7.85H74.72v-9.62H90.43v-7.87H74.72V227.5H92.66v-7.87H67.77ZM68.13,220H92.31v7.15H74.37v7.66h15.7V242H74.37v10.33H92.31v7.14H68.13Z"/><path class="cls-2" d="M89.15,211.25V186.8h-6.4V190H81.44v4.7h-1.3v4.72H78.68v-4.72h-1.3V190H76.07V186.8h-6.4v24.45h5.09v-9.41h.15v4.71h1.3v4.7h6.4v-4.7h1.31v-4.71h.14v9.41Zm-5.59-9.76v4.7h-1.3v4.7h-5.7v-4.7h-1.3v-4.7h-.85v9.4H70V187.16h5.68v3.14H77V195h1.3v4.71h2.16V195H81.8V190.3h1.3v-3.14h5.69v23.73H84.41v-9.4Z"/><path class="cls-2" d="M105,175.58h2.24V172.9h2.25v-2.69h2.24v-24h-2.24v-2.68h-2.25v-2.7H105v-2.7H89.06v2.7H86.82v2.7H84.58v2.68H82.34v24h2.24v2.69h2.24v2.68h2.24v2.69H105Zm-.35,2.33H89.41v-2.68H87.17v-2.69H84.94v-2.68H82.7V146.55h2.24v-2.68h2.23v-2.69h2.24v-2.7h15.23v2.7h2.24v2.69h2.25v2.68h2.24v23.31h-2.24v2.68h-2.25v2.69h-2.24Z"/><path class="cls-2" d="M141.46,199.48V190h-1.32v-1.57h-1.3V186.8H124.61v24.45h5.08v-8.63h4.07v1.57h1.3v1.56h1.31v5.5h5.09v-9.54h-1.32v-2.23Zm-.36,2.59v8.82h-4.38V205.4h-1.3v-1.57h-1.31v-1.57h-4.78v8.63H125V187.16h13.53v1.57h1.3v1.57h1.31v8.83h-1.31v2.94Z"/><path class="cls-2" d="M58.8,234.44H45.58V219.63h-7v40.15h7V242.31H58.8v17.47h7V219.63h-7ZM59.16,220h6.25v39.44H59.16V242H45.22v17.47H39V220h6.24V234.8H59.16Z"/><path class="cls-2" d="M68.22,206.55h1.31v-15H68.22V190H66.91v-1.57h-1.3V186.8H55.29v1.58H54V190H52.67v1.56h-.14V186.8H37v5.62h5.23v18.83H47.3V192.42h4.06v14.13h1.31v1.57H54v1.56h1.31v1.57H65.61v-1.57h1.3v-1.56h1.31Zm-.35,1.21H66.56v1.57h-1.3v1.56H55.64v-1.56H54.33v-1.57H53v-1.57h-1.3V192.07H47v18.82H42.57V192.07H37.34v-4.91H52.18v4.7H53V190.3h1.31v-1.57h1.31v-1.57h9.62v1.57h1.3v1.57h1.31v1.56h1.31v14.33H67.87Z"/><path class="cls-2" d="M180.08,241.18h-2.25V233.1h-2.24V225h-2.23v-5.39h-9.21V225H161.9v8.08h-2.24v8.08h-2.23v8.07h-2.24v10.53h6.94v-8.06h13.23v8.06h7V249.25h-2.25Zm1.9,8.42v9.83h-6.26v-8.06H161.78v8.06h-6.24V249.6h2.24v-8.07H160v-8.08h2.24v-8.07h2.26V220H173v5.39h2.23v8.07h2.24v8.08h2.24v8.07Z"/><path class="cls-2" d="M136.38,154.27h-15.7V146h17.94v-7.87H113.73v40.15h7V162.14h15.7Zm-.36,7.51h-15.7v16.13h-6.24V138.48h24.18v7.16H120.32v9H136Z"/><path class="cls-2" d="M120.46,225h-2v-2.68H116.2v-2.71H98v2.71H95.79V225H93.55v13.24h2.24v2.68h4.47v2.71h11.22v2.69h2.24v2.91h-2.24v2.68h-8.74v-2.68H100.5v-2.7h-7v7.86h2.24v2.68H98v2.69H116.2v-2.69h2.24v-2.68h2.25V241.18h-2.25v-2.71H114v-2.68H102.74V233.1H100.5v-2.92h2.24V227.5h8.74v2.68h2.24v2.71h7V227.5h8.73v32.28h7V227.5h9v-7.87H120.46Zm-.12,7.52h-6.26v-2.71h-2.24v-2.69h-9.46v2.69h-2.24v3.62h2.24v2.69H113.6v2.68h4.48v2.71h2.26v12.52h-2.26v2.69h-2.24v2.69H98.38v-2.69H96.14v-2.69H93.9V246.9h6.24v2.7h2.24v2.69h9.46V249.6h2.24V246h-2.24V243.3H100.62v-2.71H96.14v-2.68H93.9V225.38h2.24v-2.69h2.24V220h17.46v2.7h2.24v2.69h2.26Zm.47-12.55H145v7.15h-9v32.29h-6.24V227.14h-9Z"/><path class="cls-2" d="M146.23,259.78h7V219.63h-7Zm.36-39.79h6.24v39.44h-6.24Z"/><path class="cls-2" d="M124.46,199.48V190h-1.32v-1.57h-1.3V186.8H107.6v24.45h5.08v-8.63h4.07v1.57h1.31v1.56h1.3v5.5h5.1v-9.54h-1.32v-2.23Zm-.36,2.59v8.82h-4.38V205.4h-1.3v-1.57h-1.31v-1.57h-4.78v8.63H108V187.16h13.53v1.57h1.31v1.57h1.31v8.83h-1.31v2.94Z"/><path class="cls-2" d="M103.53,211.25v-1.57h1.3v-1.56h1.32v-1.57h1.31v-15h-1.31V190h-1.32v-1.57h-1.3V186.8H93.21v1.58H91.9V190H90.6v1.56H89.29v15H90.6v1.57h1.3v1.56h1.31v1.57Zm-11.27-1.92v-1.57H91v-1.57H89.64V191.86H91V190.3h1.31v-1.57h1.3v-1.57h9.61v1.57h1.31v1.57h1.32v1.56h1.3v14.33h-1.3v1.57h-1.32v1.57h-1.31v1.56H93.56v-1.56Z"/><rect class="cls-3" x="43.43" y="89.54" width="5.3" height="0.01"/><rect class="cls-3" x="65.78" y="104.97" width="0.01" height="2.41"/><rect class="cls-3" x="144.02" y="113.43" width="2.24" height="0.01"/><rect class="cls-3" x="65.78" y="119.49" width="0.01" height="2.41"/><rect class="cls-3" x="65.78" y="91.98" width="0.01" height="2.41"/><polygon class="cls-3" points="81.44 118.59 81.44 118.58 71.07 118.58 71.07 116.17 71.06 116.17 71.06 118.59 81.44 118.59"/><polygon class="cls-3" points="111.32 89.55 111.32 89.54 92.61 89.54 92.61 124.31 92.62 124.31 92.62 89.55 111.32 89.55"/><rect class="cls-3" x="68.02" y="89.54" width="16.47" height="0.01"/><rect class="cls-3" x="119.44" y="89.54" width="5.27" height="0.01"/><rect class="cls-3" x="111.32" y="109.81" width="2.23" height="0.01"/><rect class="cls-3" x="70.25" y="109.81" width="11.19" height="0.01"/><rect class="cls-3" x="59.9" y="99.24" width="0.01" height="5.73"/><rect class="cls-3" x="46.49" y="97.71" width="0.01" height="1.53"/><rect class="cls-3" x="46.49" y="114.64" width="0.01" height="2.43"/><path class="cls-3" d="M0,0V325.3H221V0ZM141.46,201.71v9.54h-5.09v-5.5h-1.31v-1.56h-1.3v-1.57h-4.07v8.63h-5.08V186.8h14.23v1.58h1.3V190h1.32v9.53h-1.32v2.23Zm-17,0v9.54h-5.1v-5.5h-1.3v-1.56h-1.31v-1.57h-4.07v8.63H107.6V186.8h14.24v1.58h1.3V190h1.32v9.53h-1.32v2.23Zm-40.54.13v4.71H82.61v4.7h-6.4v-4.7h-1.3v-4.71h-.15v9.41H69.67V186.8h6.4V190h1.31v4.7h1.3v4.72h1.46v-4.72h1.3V190h1.31V186.8h6.4v24.45H84.06v-9.41Zm-14.79-39.7v5.37H66.87v5.39H64.63v5.37H58.8v-7.85H61V165h2.24v-5.37h2.24v-5.39h2.25V148.9H70v-5.38h2.24v-5.4h2.26v-5.37h5.83v7.85H78.1V146H75.84v5.38H73.6v5.37H71.37v5.4Zm19.93,16.13v-2.69H86.82V172.9H84.58v-2.69H82.34v-24h2.24v-2.68h2.24v-2.7h2.24v-2.7H105v2.7h2.24v2.7h2.25v2.68h2.24v24h-2.24v2.69h-2.25v2.68H105v2.69Zm31.62-16.13v16.13h-7V138.12h24.89V146H120.68v8.28h15.7v7.87Zm19.94,16.13v-7.85h2.24V165h2.24v-5.37h2.24v-5.39h2.25V148.9h2.24v-5.38h2.23v-5.4h2.26v-5.37h5.83v7.85h-2.23V146h-2.26v5.38h-2.24v5.37h-2.24v5.4h-2.24v5.37h-2.25v5.39h-2.24v5.37ZM35.27,170.42h2.24V165h2.24v-5.37H42v-5.39h2.24V148.9h2.24v-5.38h2.24v-5.4H51v-5.37H56.8v7.85H54.56V146H52.3v5.38H50.07v5.37H47.83v5.4H45.59v5.37H43.34v5.39H41.1v5.37H35.27Zm30.5,89.36h-7V242.31H45.58v17.47h-7V219.63h7v14.81H58.8V219.63h7Zm1.14-50.1h-1.3v1.57H55.29v-1.57H54v-1.56H52.67v-1.57H51.36V192.42H47.3v18.83H42.21V192.42H37V186.8H52.53v4.71h.14V190H54v-1.57h1.31V186.8H65.61v1.58h1.3V190h1.31v1.56h1.31v15H68.22v1.57H66.91ZM92.66,227.5H74.73v6.94h15.7v7.87H74.73v9.62H92.66v7.85H67.77V219.63H92.66Zm-.76-17.82v-1.56H90.6v-1.57H89.29v-15H90.6V190h1.3v-1.57h1.31V186.8h10.32v1.58h1.3V190h1.32v1.56h1.31v15h-1.31v1.57h-1.32v1.56h-1.3v1.57H93.21v-1.57Zm53.44,17.82h-9v32.28h-7V227.5h-8.73v5.39h-7v-2.71h-2.24V227.5h-8.74v2.68H100.5v2.92h2.24v2.69H114v2.68h4.48v2.71h2.25v13.23h-2.25v2.68H116.2v2.69H98v-2.69H95.79v-2.68H93.55v-7.86h7v2.7h2.24v2.68h8.74v-2.68h2.24v-2.91h-2.24v-2.69H100.26v-2.71H95.79v-2.68H93.55V225h2.24v-2.68H98v-2.71H116.2v2.71h2.24V225h2v-5.39h24.88Zm7.84,32.28h-7V219.63h7Zm29.15,0h-7v-8.06H162.13v8.06h-6.94V249.25h2.24v-8.07h2.23V233.1h2.24V225h2.25v-5.39h9.21V225h2.23v8.08h2.24v8.08h2.25v8.07h2.25ZM184,195.56h-1.31v6.28h-1.3v6.28h-1.3v3.13h-6.41v-3.13h-1.31v-6.28h-1.44v6.28h-1.32v3.13h-6.39v-3.13h-1.31v-6.28h-1.3v-6.28h-.8v11h-1.3v1.57h-1.32v1.56h-1.31v1.57H145.52v-1.57h-1.31v-1.56h-1.3v-1.57h-1.3v-15h1.3V190h1.3v-1.57h1.31V186.8h10.32v1.58h1.31V190h1.32v1.56h.79V186.8h5.09v6.29h1.3v6.28h1.45v-6.28h1.32V186.8h6.38v6.29h1.32v6.28h1.45v-6.28h1.3V186.8H184Zm1.73-55h-2.24V146H181.2v5.38H179v5.37h-2.24v5.4h-2.24v5.37h-2.26v5.39H170v5.37h-5.83v-7.85h2.24V165h2.24v-5.37h2.24v-5.39h2.26V148.9h2.23v-5.38h2.24v-5.4h2.26v-5.37h5.83ZM165,95.54V89.3h23.67v6.24h-9v29h-5.77v-29ZM163,89.3v35.26h-5.77V89.3Zm-11.17,20.58v2.41H154v12.27h-5.79V116.1H146v-2.41h-2.23v-2.42h-9.89v13.29h-5.78V89.3h21.43v2.43h2.24v2.41H154v12.28h-2.25v2.44h-2.24v1ZM125,89.3v35.26h-5.77V89.3ZM113.8,91.73v2.41H116v13.49H113.8v2.43h-2.23v2.42H98.15v12.08H92.37V89.3h19.2v2.43ZM81.2,98V95.54H71.31V98H69.08v3.46h2.23v2.41H82.5v2.41H87v2.44h2.25v11.06H87v2.41H84.74v2.42h-17v-2.42H65.54v-2.41H63.31V113.5h5.77v2.42h2.23v2.42H81.2v-2.42h2.23v-3.44H81.2v-2.42H70v-2.43H65.54v-2.41H63.31V94.14h2.23V91.73h2.23V89.3h17v2.43H87v2.41h2.25v6.25H83.43V98ZM60.15,108.67v6.22H55.69v2.43H53.45v7.24H47.67v-8.64H49.9v-1H46.75v2.43H44.49v7.24H38.72v-8.64H41v-1H36.49v-6.22H41v-3.45H36.49V99H41V96.56h2.23V89.3H49V98H46.75v1H49.9V96.56h2.25V89.3h5.77V98H55.69v1h4.46v6.23H55.69v3.45Z"/><rect class="cls-3" x="59.9" y="108.92" width="0.01" height="5.72"/><rect class="cls-3" x="52.4" y="89.54" width="5.27" height="0.01"/><rect class="cls-3" x="71.06" y="95.29" width="0.01" height="2.42"/><rect class="cls-3" x="36.73" y="108.92" width="0.01" height="5.72"/><rect class="cls-3" x="36.73" y="99.24" width="0.01" height="5.73"/><rect class="cls-3" x="71.06" y="101.65" width="0.01" height="2.42"/><rect class="cls-3" x="133.64" y="111.02" width="0.01" height="13.29"/><polygon class="cls-3" points="149.3 89.55 149.3 89.54 128.36 89.54 128.36 124.31 128.37 124.31 128.37 89.55 149.3 89.55"/><rect class="cls-3" x="157.43" y="89.54" width="5.27" height="0.01"/><polygon class="cls-3" points="188.41 95.29 188.42 95.29 188.42 89.54 165.25 89.54 165.25 89.55 188.41 89.55 188.41 95.29"/><rect class="cls-3" x="151.53" y="106.17" width="2.25" height="0.01"/><path class="cls-2" d="M92.37,89.3v35.26h5.78V112.48h13.42v-2.42h2.23v-2.43H116V94.14H113.8V91.73h-2.23V89.3ZM113.55,92v2.41h2.24v13h-2.24v2.43h-2.23v2.41H97.9v12.08H92.61V89.54h18.71V92Z"/><path class="cls-2" d="M89.22,100.39V94.14H87V91.73H84.74V89.3h-17v2.43H65.54v2.41H63.31v11.08h2.23v2.41H70v2.43H81.2v2.42h2.23v3.44H81.2v2.42H71.31v-2.42H69.08V113.5H63.31v6.23h2.23v2.41h2.23v2.42h17v-2.42H87v-2.41h2.25V108.67H87v-2.44H82.5v-2.41H71.31v-2.41H69.08V98h2.23V95.54H81.2V98h2.23v2.44Zm-7.78-2.68V95.29H71.07v2.42H68.83v3.94h2.24v2.42H82.26v2.41h4.46v2.44H89v10.56H86.72v2.42H84.49v2.41H68V121.9H65.78v-2.41H63.56v-5.74h5.27v2.43h2.24v2.41H81.44v-2.41h2.24v-3.94H81.44v-2.41H70.25v-2.43H65.78V105H63.56V94.39h2.22V92H68V89.55H84.49V92h2.23v2.41H89v5.75H83.68V97.71Z"/><path class="cls-2" d="M60.15,105.22V99H55.69V98h2.23V89.3H52.15v7.26H49.9V99H46.75V98H49V89.3H43.18v7.26H41V99H36.49v6.23H41v3.45H36.49v6.22H41v1H38.72v8.64h5.77v-7.24h2.26v-2.43H49.9v1H47.67v8.64h5.78v-7.24h2.24v-2.43h4.46v-6.22H55.69v-3.45Zm-.25,3.7h0v5.72H55.44v2.43H53.21v7.24h-5.3v-8.14h2.24v-1.53H46.5v2.43H44.24v7.24H39v-8.14H41.2v-1.53H36.73v-5.72H41.2v-4H36.73V99.24H41.2V96.81h2.23V89.55h5.3v8.16H46.5v1.53h3.65V96.81H52.4V89.55h5.27v8.16H55.44v1.53h4.47V105H55.44v4Z"/><path class="cls-2" d="M163,124.56V89.3h-5.77v35.26Zm-5.52-35h5.27v34.76h-5.27Z"/><path class="cls-2" d="M125,124.56V89.3h-5.77v35.26Zm-5.52-35h5.27v34.76h-5.27Z"/><path class="cls-2" d="M179.71,124.56v-29h9V89.3H165v6.24h8.94v29ZM165.25,95.29V89.55h23.17v5.75h-9v29h-5.27v-29Z"/><path class="cls-2" d="M151.78,108.86v-2.44H154V94.14h-2.25V91.73h-2.24V89.3H128.11v35.26h5.78V111.27h9.89v2.42H146v2.41h2.23v8.46H154V112.29h-2.25v-2.41h-2.24v-1Zm-.25,1.26v2.42h2.25v11.77h-5.29v-8.46h-2.23v-2.41H144V111H133.65v13.29h-5.29V89.54H149.3V92h2.23v2.41h2.25v11.78h-2.25v2.43H149.3v1.51Z"/></svg>