<svg xmlns="http://www.w3.org/2000/svg" viewBox="0 0 300 255" width="300" height="255" preserveAspectRatio="xMidYMid meet" style="width: 100%; height: 100%; transform: translate3d(0px, 0px, 0px);"><defs><clipPath id="__lottie_element_257"><rect width="300" height="255" x="0" y="0"></rect></clipPath></defs><g clip-path="url(#__lottie_element_257)"><g transform="matrix(0.07652776688337326,0,0,0.07652776688337326,150,127.5)" opacity="1" style="display: block;"><g opacity="1" transform="matrix(1,0,0,1,0,0)"><path stroke-linecap="butt" stroke-linejoin="miter" fill-opacity="0" stroke-miterlimit="4" stroke="rgb(255,248,222)" stroke-opacity="1" stroke-width="26.134304889091162" d=" M0,-50 C27.61400032043457,-50 50,-27.61400032043457 50,0 C50,27.61400032043457 27.61400032043457,50 0,50 C-27.61400032043457,50 -50,27.61400032043457 -50,0 C-50,-27.61400032043457 -27.61400032043457,-50 0,-50z"></path></g></g><g transform="matrix(0.29383566975593567,0,0,0.29383566975593567,150,127.5)" opacity="1" style="display: block;"><g opacity="1" transform="matrix(1,0,0,1,0,0)"><path stroke-linecap="butt" stroke-linejoin="miter" fill-opacity="0" stroke-miterlimit="4" stroke="rgb(255,248,222)" stroke-opacity="1" stroke-width="6.80652537815833" d=" M0,-50 C27.61400032043457,-50 50,-27.61400032043457 50,0 C50,27.61400032043457 27.61400032043457,50 0,50 C-27.61400032043457,50 -50,27.61400032043457 -50,0 C-50,-27.61400032043457 -27.61400032043457,-50 0,-50z"></path></g></g><g transform="matrix(0.5099999904632568,0,0,0.5099999904632568,150,127.5)" opacity="1" style="display: block;"><g opacity="1" transform="matrix(1,0,0,1,0,0)"><path stroke-linecap="butt" stroke-linejoin="miter" fill-opacity="0" stroke-miterlimit="4" stroke="rgb(255,248,222)" stroke-opacity="1" stroke-width="3.9215686274509802" d=" M0,-50 C27.61400032043457,-50 50,-27.61400032043457 50,0 C50,27.61400032043457 27.61400032043457,50 0,50 C-27.61400032043457,50 -50,27.61400032043457 -50,0 C-50,-27.61400032043457 -27.61400032043457,-50 0,-50z"></path></g></g><g transform="matrix(0.75,0,0,0.75,150,127.5)" opacity="1" style="display: block;"><g opacity="1" transform="matrix(1,0,0,1,0,0)"><path stroke-linecap="butt" stroke-linejoin="miter" fill-opacity="0" stroke-miterlimit="4" stroke="rgb(255,248,222)" stroke-opacity="1" stroke-width="2.6666666666666665" d=" M0,-50 C27.61400032043457,-50 50,-27.61400032043457 50,0 C50,27.61400032043457 27.61400032043457,50 0,50 C-27.61400032043457,50 -50,27.61400032043457 -50,0 C-50,-27.61400032043457 -27.61400032043457,-50 0,-50z"></path></g></g><g transform="matrix(1,0,0,1,150,127.5)" opacity="1" style="display: block;"><g opacity="1" transform="matrix(1,0,0,1,0,0)"><path stroke-linecap="butt" stroke-linejoin="miter" fill-opacity="0" stroke-miterlimit="4" stroke="rgb(255,248,222)" stroke-opacity="1" stroke-width="2" d=" M0,-50 C27.61400032043457,-50 50,-27.61400032043457 50,0 C50,27.61400032043457 27.61400032043457,50 0,50 C-27.61400032043457,50 -50,27.61400032043457 -50,0 C-50,-27.61400032043457 -27.61400032043457,-50 0,-50z"></path></g></g><g transform="matrix(1.25,0,0,1.25,150,127.5)" opacity="1" style="display: block;"><g opacity="1" transform="matrix(1,0,0,1,0,0)"><path stroke-linecap="butt" stroke-linejoin="miter" fill-opacity="0" stroke-miterlimit="4" stroke="rgb(255,248,222)" stroke-opacity="1" stroke-width="1.6" d=" M0,-50 C27.61400032043457,-50 50,-27.61400032043457 50,0 C50,27.61400032043457 27.61400032043457,50 0,50 C-27.61400032043457,50 -50,27.61400032043457 -50,0 C-50,-27.61400032043457 -27.61400032043457,-50 0,-50z"></path></g></g><g transform="matrix(1.5099999904632568,0,0,1.5099999904632568,150,127.5)" opacity="1" style="display: block;"><g opacity="1" transform="matrix(1,0,0,1,0,0)"><path stroke-linecap="butt" stroke-linejoin="miter" fill-opacity="0" stroke-miterlimit="4" stroke="rgb(255,248,222)" stroke-opacity="1" stroke-width="1.3245033112582782" d=" M0,-50 C27.61400032043457,-50 50,-27.61400032043457 50,0 C50,27.61400032043457 27.61400032043457,50 0,50 C-27.61400032043457,50 -50,27.61400032043457 -50,0 C-50,-27.61400032043457 -27.61400032043457,-50 0,-50z"></path></g></g><g transform="matrix(1.7400000095367432,0,0,1.7400000095367432,150,127.5)" opacity="1" style="display: block;"><g opacity="1" transform="matrix(1,0,0,1,0,0)"><path stroke-linecap="butt" stroke-linejoin="miter" fill-opacity="0" stroke-miterlimit="4" stroke="rgb(255,248,222)" stroke-opacity="1" stroke-width="1.1494252873563218" d=" M0,-50 C27.61400032043457,-50 50,-27.61400032043457 50,0 C50,27.61400032043457 27.61400032043457,50 0,50 C-27.61400032043457,50 -50,27.61400032043457 -50,0 C-50,-27.61400032043457 -27.61400032043457,-50 0,-50z"></path></g></g><g transform="matrix(2.009999990463257,0,0,2.009999990463257,150,127.5)" opacity="1" style="display: block;"><g opacity="1" transform="matrix(1,0,0,1,0,0)"><path stroke-linecap="butt" stroke-linejoin="miter" fill-opacity="0" stroke-miterlimit="4" stroke="rgb(255,248,222)" stroke-opacity="1" stroke-width="0.9950248756218907" d=" M0,-50 C27.61400032043457,-50 50,-27.61400032043457 50,0 C50,27.61400032043457 27.61400032043457,50 0,50 C-27.61400032043457,50 -50,27.61400032043457 -50,0 C-50,-27.61400032043457 -27.61400032043457,-50 0,-50z"></path></g></g></g></svg>