<svg width="455" height="156" viewBox="0 0 455 156" fill="none" xmlns="http://www.w3.org/2000/svg">
<path d="M193.566 3.22656H129.345L96.8154 153.968L142.19 154.517L145.998 130.442L177.172 130.184L180.722 154.517H226.355L193.566 3.22656ZM150.096 100.946C150.096 100.946 153.323 94.2332 157.906 40.6619L165.813 40.4037C166.53 60.6581 168.687 80.8359 172.267 100.784L150.096 100.946Z" fill="#D5BA95"/>
<path d="M370.811 112.043C379.395 95.6162 386.366 68.6692 368.132 35.8164C368.132 35.8164 329.599 -25.5001 261.28 12.3225C261.28 12.3225 226.814 32.5247 226.265 71.6382C226.265 71.6382 218.907 120.82 270.574 146.509C270.574 146.509 304.04 163.258 338.958 144.185C346.516 148.892 354.873 152.173 363.614 153.867C368.819 155.04 374.171 155.431 379.492 155.029L379.879 111.978C376.866 112.297 373.828 112.319 370.811 112.043ZM287.226 110.171C262.345 97.8429 265.895 74.2522 265.895 74.2522C266.153 55.5023 282.741 45.7884 282.741 45.7884C315.69 27.7162 334.376 57.0836 334.376 57.0836C337.712 62.4713 339.602 68.629 339.862 74.961C340.122 81.293 338.744 87.5849 335.86 93.2281L307.396 92.8408L306.557 104.007L311.495 103.2C311.946 106.144 312.669 109.039 313.657 111.849C304.923 114.413 295.566 113.819 287.226 110.171Z" fill="#D5BA95"/>
<path d="M95.6537 38.0801L94.8147 3.64609L1.22635 3.22656L0 155.356H44.277L43.4702 93.0391C43.4702 93.0391 70.1267 103.269 81.196 93.4264C81.196 93.4264 93.072 86.972 91.8457 69.642L54.249 61.0577L47.7946 82.3571L44.9224 82.7767L44.4061 38.4674L95.6537 38.0801Z" fill="#D5BA95"/>
<path d="M451.787 84.7984L446.122 62.3613C446.122 62.3613 430.798 62.5799 426.568 60.7913C426.568 60.7913 413.801 57.7507 406.464 63.4742C406.464 63.4742 391.69 71.7813 396.628 95.2717C396.628 95.2717 397.179 107.693 418.463 120.849L418.837 121.087C418.837 121.087 430.503 127.367 432.942 145.432L430.384 146.327C430.384 146.327 426.844 128.441 411.283 127.487C411.283 127.487 396.293 126.354 394.188 127.824L397.218 153.103C397.218 153.103 417.421 153.322 419.427 154.793C419.427 154.793 442.856 159.383 450.646 144.677C450.646 144.677 460.856 129.991 446.535 109.68C446.535 109.68 440.752 102.267 426.312 93.9601C426.312 93.9601 412.759 85.653 411.991 69.3965L414.923 68.8997C414.923 68.8997 414.922 84.5003 433.571 87.4217C439.767 88.2683 446.073 87.3601 451.787 84.7984Z" fill="#D5BA95"/>
</svg>
