<svg width="358" height="103" viewBox="0 0 358 103" fill="none" xmlns="http://www.w3.org/2000/svg">
<path d="M28.1952 0.979543C13.0378 0.979543 0.795391 13.3677 0.795391 28.5251V103H18.8676V56.2163H84.5979V37.9984H19.0133V28.5251C19.0133 23.424 23.2399 19.1975 28.3409 19.1975H102.816V0.979543H28.1952ZM183.777 84.7821L141.075 0.979543L98.3718 84.7821L89.0442 103H109.448L118.776 84.7821L141.075 41.059L163.373 84.7821L172.701 103H193.105L183.777 84.7821ZM291.112 51.9898C291.112 23.8613 268.23 0.979543 240.102 0.979543C211.973 0.979543 189.091 23.8613 189.091 51.9898C189.091 80.1183 211.973 103 240.102 103C240.247 103 240.393 103 240.539 103H290.966V84.7821H279.015C286.448 75.8917 290.966 64.5237 290.966 51.9898H291.112ZM240.83 84.7821H239.956C221.884 84.7821 207.164 70.062 207.164 51.9898C207.164 33.9176 221.884 19.1975 239.956 19.1975C258.028 19.1975 272.748 33.9176 272.748 51.9898C272.748 69.7705 258.465 84.3448 240.83 84.7821ZM357.508 60.8895V60.5573C357.508 51.9193 350.448 44.8593 341.81 44.8593H318.221C309.583 44.8593 302.607 51.9193 302.607 60.5573V60.8895C302.607 64.2119 303.603 67.285 305.347 69.7768C305.929 70.6904 306.593 71.521 307.341 72.2685C310.165 75.0094 313.986 76.6706 318.221 76.6706H339.152C343.554 76.6706 347.209 80.2421 347.209 84.6442C347.209 89.0462 343.554 92.6177 339.152 92.6177H320.962C316.56 92.6177 312.989 89.0462 312.989 84.6442H302.607C302.607 94.7772 310.829 103 320.962 103H339.152C349.285 103 357.508 94.7772 357.508 84.6442C357.508 80.2421 355.93 76.1722 353.355 73.016C353.106 72.7668 352.94 72.5177 352.691 72.2685C349.368 68.6139 344.551 66.2883 339.152 66.2883H318.221C315.314 66.2883 312.906 63.8796 312.906 60.9726V60.6404C312.906 57.7333 315.314 55.3246 318.221 55.3246H341.81C344.717 55.3246 347.126 57.7333 347.126 60.6404V60.9726L357.508 60.8895Z" fill="white"/>
</svg>
