<svg width="380" height="166" viewBox="0 0 380 166" fill="none" xmlns="http://www.w3.org/2000/svg">
<path d="M5.14648 9.48438H86.0674L80.2549 35.5498H38.2959L38.2051 65.7021L41.4746 53.3506L74.9873 60.1621L69.9014 87.1357L37.9326 80.7783L38.0234 129.64L10.7773 135.361V41.6348L23.9463 35.5498H0.696289L5.14648 9.48438ZM144.192 0.402344L166.534 8.84863L163.9 17.5674H199.865L196.142 44.4502L176.524 44.541L207.676 128.005L183.608 136.27L151.64 50.8984L115.947 135.543L91.5166 128.096L126.755 44.1777L101.053 44.0869L103.051 17.5674H137.018L144.192 0.402344ZM155.727 93.0391L169.622 108.297L143.92 134.09L129.934 119.014L155.727 93.0391ZM219.573 9.30273H305.943C314.662 13.2383 318.658 21.0791 317.932 32.8252L317.841 116.017C317.175 126.673 312.18 132.304 302.855 132.909H274.61L312.119 140.992L306.761 165.423L256.355 156.25L261.169 132.909L225.84 133C219.543 132.092 215.426 125.129 213.488 112.111V42.6338L224.478 36.458L213.307 36.5488L219.573 9.30273ZM240.371 36.0947V117.47L246.547 106.117H291.049V36.0947H240.371ZM328.207 62.5059L366.611 62.4541C370.786 63.4893 373.478 65.8184 374.686 69.4414C375.928 73.0645 376.549 76.2389 376.549 78.9648L362.988 81.6562C362.988 78.4128 359.935 77.0326 353.827 77.5156H343.165L375.721 109.398C378.136 112.504 378.447 117.731 376.652 125.081C374.858 129.774 370.424 132.431 363.351 133.052L337.213 133C334.176 131.999 331.778 130.084 330.019 127.255C328.259 124.391 326.896 120.854 325.93 116.645L340.111 111.831C340.491 115.765 342.078 117.662 344.873 117.524L358.692 117.576C360.797 117.093 360.452 115.575 357.657 113.021L327.379 83.416L334.832 77.5156H325.309L328.207 62.5059Z" fill="#DC3C51"/>
</svg>
