<svg width="564" height="572" viewBox="0 0 564 572" fill="none" xmlns="http://www.w3.org/2000/svg">
<g clip-path="url(#clip0_1822_77)">
<path fill-rule="evenodd" clip-rule="evenodd" d="M564 0H0V572H564V0ZM32 55V95.25H43.5V83.75H66.5V78H72.25V60.75H66.5V55H32ZM60.75 78H43.5V60.75H60.75V78ZM88.35 89.5V95.25H122.85V89.5H111.35V60.75H122.85V55H88.35V60.75H99.85V89.5H88.35ZM138.95 83.75H133.2V95.25H144.7V83.75H150.45V78H156.2V83.75H161.95V95.25H173.45V83.75H167.7V78H161.95V72.25H167.7V66.5H173.45V55H161.95V66.5H156.2V72.25H150.45V66.5H144.7V55H133.2V66.5H138.95V72.25H144.7V78H138.95V83.75ZM183.8 55V95.25H224.05V89.5H195.3V78H218.3V72.25H195.3V60.75H224.05V55H183.8ZM240.15 55V95.25H274.65V89.5H251.65V55H240.15ZM41.5 260.25V255.5H36.75V250.75H32V236.5H36.75V231.75H41.5V250.75H46.25V255.5H55.75V260.25H41.5ZM55.75 255.5H60.5V250.75H65.25V236.5H60.5V231.75H55.75V227H41.5V231.75H51V236.5H55.75V255.5ZM79.31 260.25V255.5H88.81V236.5H84.06V231.75H88.81V227H98.31V255.5H107.81V260.25H79.31ZM126.62 260.25V255.5H121.87V250.75H117.12V236.5H121.87V231.75H126.62V250.75H131.37V255.5H140.87V260.25H126.62ZM140.87 255.5H145.62V250.75H150.37V236.5H145.62V231.75H140.87V227H126.62V231.75H136.12V236.5H140.87V255.5ZM164.43 260.25V255.5H173.93V236.5H169.18V231.75H173.93V227H183.43V255.5H192.93V260.25H164.43ZM206.99 260.25V255.5H216.49V236.5H211.74V231.75H216.49V227H225.99V255.5H235.49V260.25H206.99ZM249.55 260.25V255.5H259.05V236.5H254.3V231.75H259.05V227H268.55V255.5H278.05V260.25H249.55ZM296.86 260.25V255.5H292.11V250.75H287.36V236.5H292.11V231.75H296.86V250.75H301.61V255.5H311.11V260.25H296.86ZM311.11 255.5H315.86V250.75H320.61V236.5H315.86V231.75H311.11V227H296.86V231.75H306.36V236.5H311.11V255.5ZM334.67 260.25V255.5H344.17V236.5H339.42V231.75H344.17V227H353.67V255.5H363.17V260.25H334.67ZM381.98 260.25V255.5H377.23V250.75H372.48V236.5H377.23V231.75H381.98V250.75H386.73V255.5H396.23V260.25H381.98ZM396.23 255.5H400.98V250.75H405.73V236.5H400.98V231.75H396.23V227H381.98V231.75H391.48V236.5H396.23V255.5ZM419.79 260.25V255.5H429.29V236.5H424.54V231.75H429.29V227H438.79V255.5H448.29V260.25H419.79ZM462.35 260.25V255.5H471.85V236.5H467.1V231.75H471.85V227H481.35V255.5H490.85V260.25H462.35ZM509.66 260.25V255.5H504.91V250.75H500.16V236.5H504.91V231.75H509.66V250.75H514.41V255.5H523.91V260.25H509.66ZM523.91 255.5H528.66V250.75H533.41V236.5H528.66V231.75H523.91V227H509.66V231.75H519.16V236.5H523.91V255.5ZM32 274V344H92V334H102V314H92V304H102V284H92V274H32ZM82 304H52V284H82V304ZM82 334H52V314H82V334ZM119.6 334V344H179.6V334H159.6V284H179.6V274H119.6V284H139.6V334H119.6ZM197.2 284H217.2V344H237.2V284H257.2V274H197.2V284ZM274.8 334V344H324.8V334H334.8V314H324.8V304H284.8V284H314.8V294H334.8V284H324.8V274H274.8V284H264.8V304H274.8V314H314.8V334H284.8V324H264.8V334H274.8ZM410 345V285H390V275H450V285H430V345H410ZM467.6 345V335H457.6V285H467.6V275H517.6V285H527.6V335H517.6V345H467.6ZM477.6 335H507.6V285H477.6V335ZM32 112V217H62V172H122V157H62V127H137V112H32ZM164 112V217H194V187H209V202H224V217H269V202H254V187H239V172H269V127H254V112H164ZM224 172H194V127H239V157H224V172ZM311 202V217H386V202H401V127H386V112H311V127H296V202H311ZM371 202H326V127H371V202ZM428 112V217H458V157H473V187H488V157H503V217H533V112H503V127H488V142H473V127H458V112H428ZM30 518.25V422H112.5V435.75H126.25V463.25H112.5V477H126.25V504.5H112.5V518.25H30ZM57.5 463.25H98.75V435.75H57.5V463.25ZM57.5 504.5H98.75V477H57.5V504.5ZM132.3 518.25V422H228.55V435.75H159.8V463.25H214.8V477H159.8V504.5H228.55V518.25H132.3ZM234.6 518.25V449.5H248.35V435.75H262.1V422H303.35V435.75H317.1V449.5H330.85V518.25H303.35V490.75H262.1V518.25H234.6ZM262.1 477H303.35V449.5H289.6V435.75H275.85V449.5H262.1V477ZM378.15 435.75H350.65V422H433.15V435.75H405.65V518.25H378.15V435.75ZM452.95 518.25V504.5H439.2V490.75H466.7V504.5H507.95V477H452.95V463.25H439.2V435.75H452.95V422H521.7V435.75H535.45V449.5H507.95V435.75H466.7V463.25H521.7V477H535.45V504.5H521.7V518.25H452.95ZM300 55V95.25H311.5V83.75H334.5V78H340.25V60.75H334.5V55H300ZM328.75 78H311.5V60.75H328.75V78ZM350.6 55V95.25H390.85V89.5H362.1V78H385.1V72.25H362.1V60.75H390.85V55H350.6ZM401.2 66.5V95.25H412.7V83.75H429.95V95.25H441.45V66.5H435.7V60.75H429.95V55H412.7V60.75H406.95V66.5H401.2ZM429.95 78H412.7V66.5H418.45V60.75H424.2V66.5H429.95V78ZM451.8 55V95.25H463.3V83.75H469.05V89.5H474.8V95.25H492.05V89.5H486.3V83.75H480.55V78H474.8V72.25H480.55V66.5H486.3V60.75H492.05V55H480.55V60.75H474.8V66.5H469.05V72.25H463.3V55H451.8ZM525.4 60.75H513.9V72.25H525.4V60.75ZM525.4 78H513.9V89.5H525.4V78ZM29 368H48V410H29V368ZM72 375H53V410H72V375ZM77 375H96V410H77V375ZM120 387H101V410H120V387ZM125 364H144V410H125V364ZM168 368H149V410H168V368ZM173 367H192V410H173V367ZM216 392H197V410H216V392ZM221 379H240V410H221V379ZM264 371H245V410H264V371ZM269 378H288V410H269V378ZM312 379H293V410H312V379ZM317 383H336V410H317V383ZM360 371H341V410H360V371ZM365 379H384V410H365V379ZM408 368H389V410H408V368ZM413 375H432V410H413V375ZM456 364H437V410H456V364ZM461 375H480V410H461V375ZM504 368H485V410H504V368ZM509 368H528V410H509V368ZM48 363H29V359H48V363ZM53 371H72V368H53V371ZM96 371H77V368H96V371ZM101 384H120V382H101V384ZM144 358H125V354H144V358ZM149 362H168V359H149V362ZM192 361H173V358H192V361ZM197 389H216V387H197V389ZM240 376H221V373H240V376ZM245 366H264V363H245V366ZM288 373H269V371H288V373ZM293 375H312V373H293V375ZM336 380H317V378H336V380ZM341 366H360V363H341V366ZM384 375H365V373H384V375ZM389 362H408V359H389V362ZM432 371H413V368H432V371ZM437 359H456V355H437V359ZM480 371H461V368H480V371ZM485 362H504V359H485V362ZM528 362H509V359H528V362Z" fill="black"/>
</g>
<rect x="0.5" y="0.5" width="563" height="571" stroke="black"/>
<defs>
<clipPath id="clip0_1822_77">
<rect width="564" height="572" fill="white"/>
</clipPath>
</defs>
</svg>
