<svg width="543" height="509" viewBox="0 0 543 509" fill="none" xmlns="http://www.w3.org/2000/svg">
<g clip-path="url(#clip0_1822_77)">
<mask id="path-3-inside-1_1822_77" fill="white">
<path fill-rule="evenodd" clip-rule="evenodd" d="M552 -36H-12V536H552V-36ZM20 19V59.25H31.5V47.75H54.5V42H60.25V24.75H54.5V19H20ZM48.75 42H31.5V24.75H48.75V42ZM76.35 53.5V59.25H110.85V53.5H99.35V24.75H110.85V19H76.35V24.75H87.85V53.5H76.35ZM126.95 47.75H121.2V59.25H132.7V47.75H138.45V42H144.2V47.75H149.95V59.25H161.45V47.75H155.7V42H149.95V36.25H155.7V30.5H161.45V19H149.95V30.5H144.2V36.25H138.45V30.5H132.7V19H121.2V30.5H126.95V36.25H132.7V42H126.95V47.75ZM171.8 19V59.25H212.05V53.5H183.3V42H206.3V36.25H183.3V24.75H212.05V19H171.8ZM228.15 19V59.25H262.65V53.5H239.65V19H228.15ZM29.5 224.25V219.5H24.75V214.75H20V200.5H24.75V195.75H29.5V214.75H34.25V219.5H43.75V224.25H29.5ZM43.75 219.5H48.5V214.75H53.25V200.5H48.5V195.75H43.75V191H29.5V195.75H39V200.5H43.75V219.5ZM67.31 224.25V219.5H76.81V200.5H72.06V195.75H76.81V191H86.31V219.5H95.81V224.25H67.31ZM114.62 224.25V219.5H109.87V214.75H105.12V200.5H109.87V195.75H114.62V214.75H119.37V219.5H128.87V224.25H114.62ZM128.87 219.5H133.62V214.75H138.37V200.5H133.62V195.75H128.87V191H114.62V195.75H124.12V200.5H128.87V219.5ZM152.43 224.25V219.5H161.93V200.5H157.18V195.75H161.93V191H171.43V219.5H180.93V224.25H152.43ZM194.99 224.25V219.5H204.49V200.5H199.74V195.75H204.49V191H213.99V219.5H223.49V224.25H194.99ZM237.55 224.25V219.5H247.05V200.5H242.3V195.75H247.05V191H256.55V219.5H266.05V224.25H237.55ZM284.86 224.25V219.5H280.11V214.75H275.36V200.5H280.11V195.75H284.86V214.75H289.61V219.5H299.11V224.25H284.86ZM299.11 219.5H303.86V214.75H308.61V200.5H303.86V195.75H299.11V191H284.86V195.75H294.36V200.5H299.11V219.5ZM322.67 224.25V219.5H332.17V200.5H327.42V195.75H332.17V191H341.67V219.5H351.17V224.25H322.67ZM369.98 224.25V219.5H365.23V214.75H360.48V200.5H365.23V195.75H369.98V214.75H374.73V219.5H384.23V224.25H369.98ZM384.23 219.5H388.98V214.75H393.73V200.5H388.98V195.75H384.23V191H369.98V195.75H379.48V200.5H384.23V219.5ZM407.79 224.25V219.5H417.29V200.5H412.54V195.75H417.29V191H426.79V219.5H436.29V224.25H407.79ZM450.35 224.25V219.5H459.85V200.5H455.1V195.75H459.85V191H469.35V219.5H478.85V224.25H450.35ZM497.66 224.25V219.5H492.91V214.75H488.16V200.5H492.91V195.75H497.66V214.75H502.41V219.5H511.91V224.25H497.66ZM511.91 219.5H516.66V214.75H521.41V200.5H516.66V195.75H511.91V191H497.66V195.75H507.16V200.5H511.91V219.5ZM20 238V308H80V298H90V278H80V268H90V248H80V238H20ZM70 268H40V248H70V268ZM70 298H40V278H70V298ZM107.6 298V308H167.6V298H147.6V248H167.6V238H107.6V248H127.6V298H107.6ZM185.2 248H205.2V308H225.2V248H245.2V238H185.2V248ZM262.8 298V308H312.8V298H322.8V278H312.8V268H272.8V248H302.8V258H322.8V248H312.8V238H262.8V248H252.8V268H262.8V278H302.8V298H272.8V288H252.8V298H262.8ZM398 309V249H378V239H438V249H418V309H398ZM455.6 309V299H445.6V249H455.6V239H505.6V249H515.6V299H505.6V309H455.6ZM465.6 299H495.6V249H465.6V299ZM20 76V181H50V136H110V121H50V91H125V76H20ZM152 76V181H182V151H197V166H212V181H257V166H242V151H227V136H257V91H242V76H152ZM212 136H182V91H227V121H212V136ZM299 166V181H374V166H389V91H374V76H299V91H284V166H299ZM359 166H314V91H359V166ZM416 76V181H446V121H461V151H476V121H491V181H521V76H491V91H476V106H461V91H446V76H416ZM18 482.25V386H100.5V399.75H114.25V427.25H100.5V441H114.25V468.5H100.5V482.25H18ZM45.5 427.25H86.75V399.75H45.5V427.25ZM45.5 468.5H86.75V441H45.5V468.5ZM120.3 482.25V386H216.55V399.75H147.8V427.25H202.8V441H147.8V468.5H216.55V482.25H120.3ZM222.6 482.25V413.5H236.35V399.75H250.1V386H291.35V399.75H305.1V413.5H318.85V482.25H291.35V454.75H250.1V482.25H222.6ZM250.1 441H291.35V413.5H277.6V399.75H263.85V413.5H250.1V441ZM366.15 399.75H338.65V386H421.15V399.75H393.65V482.25H366.15V399.75ZM440.95 482.25V468.5H427.2V454.75H454.7V468.5H495.95V441H440.95V427.25H427.2V399.75H440.95V386H509.7V399.75H523.45V413.5H495.95V399.75H454.7V427.25H509.7V441H523.45V468.5H509.7V482.25H440.95ZM288 19V59.25H299.5V47.75H322.5V42H328.25V24.75H322.5V19H288ZM316.75 42H299.5V24.75H316.75V42ZM338.6 19V59.25H378.85V53.5H350.1V42H373.1V36.25H350.1V24.75H378.85V19H338.6ZM389.2 30.5V59.25H400.7V47.75H417.95V59.25H429.45V30.5H423.7V24.75H417.95V19H400.7V24.75H394.95V30.5H389.2ZM417.95 42H400.7V30.5H406.45V24.75H412.2V30.5H417.95V42ZM439.8 19V59.25H451.3V47.75H457.05V53.5H462.8V59.25H480.05V53.5H474.3V47.75H468.55V42H462.8V36.25H468.55V30.5H474.3V24.75H480.05V19H468.55V24.75H462.8V30.5H457.05V36.25H451.3V19H439.8ZM513.4 24.75H501.9V36.25H513.4V24.75ZM513.4 42H501.9V53.5H513.4V42ZM17 332H36V374H17V332ZM60 339H41V374H60V339ZM65 339H84V374H65V339ZM108 351H89V374H108V351ZM113 328H132V374H113V328ZM156 332H137V374H156V332ZM161 331H180V374H161V331ZM204 356H185V374H204V356ZM209 343H228V374H209V343ZM252 335H233V374H252V335ZM257 342H276V374H257V342ZM300 343H281V374H300V343ZM305 347H324V374H305V347ZM348 335H329V374H348V335ZM353 343H372V374H353V343ZM396 332H377V374H396V332ZM401 339H420V374H401V339ZM444 328H425V374H444V328ZM449 339H468V374H449V339ZM492 332H473V374H492V332ZM497 332H516V374H497V332ZM36 327H17V323H36V327ZM41 335H60V332H41V335ZM84 335H65V332H84V335ZM89 348H108V346H89V348ZM132 322H113V318H132V322ZM137 326H156V323H137V326ZM180 325H161V322H180V325ZM185 353H204V351H185V353ZM228 340H209V337H228V340ZM233 330H252V327H233V330ZM276 337H257V335H276V337ZM281 339H300V337H281V339ZM324 344H305V342H324V344ZM329 330H348V327H329V330ZM372 339H353V337H372V339ZM377 326H396V323H377V326ZM420 335H401V332H420V335ZM425 323H444V319H425V323ZM468 335H449V332H468V335ZM473 326H492V323H473V326ZM516 326H497V323H516V326Z"/>
</mask>
<path fill-rule="evenodd" clip-rule="evenodd" d="M552 -36H-12V536H552V-36ZM20 19V59.25H31.5V47.75H54.5V42H60.25V24.75H54.5V19H20ZM48.75 42H31.5V24.75H48.75V42ZM76.35 53.5V59.25H110.85V53.5H99.35V24.75H110.85V19H76.35V24.75H87.85V53.5H76.35ZM126.95 47.75H121.2V59.25H132.7V47.75H138.45V42H144.2V47.75H149.95V59.25H161.45V47.75H155.7V42H149.95V36.25H155.7V30.5H161.45V19H149.95V30.5H144.2V36.25H138.45V30.5H132.7V19H121.2V30.5H126.95V36.25H132.7V42H126.95V47.75ZM171.8 19V59.25H212.05V53.5H183.3V42H206.3V36.25H183.3V24.75H212.05V19H171.8ZM228.15 19V59.25H262.65V53.5H239.65V19H228.15ZM29.5 224.25V219.5H24.75V214.75H20V200.5H24.75V195.75H29.5V214.75H34.25V219.5H43.75V224.25H29.5ZM43.75 219.5H48.5V214.75H53.25V200.5H48.5V195.75H43.75V191H29.5V195.75H39V200.5H43.75V219.5ZM67.31 224.25V219.5H76.81V200.5H72.06V195.75H76.81V191H86.31V219.5H95.81V224.25H67.31ZM114.62 224.25V219.5H109.87V214.75H105.12V200.5H109.87V195.75H114.62V214.75H119.37V219.5H128.87V224.25H114.62ZM128.87 219.5H133.62V214.75H138.37V200.5H133.62V195.75H128.87V191H114.62V195.75H124.12V200.5H128.87V219.5ZM152.43 224.25V219.5H161.93V200.5H157.18V195.75H161.93V191H171.43V219.5H180.93V224.25H152.43ZM194.99 224.25V219.5H204.49V200.5H199.74V195.75H204.49V191H213.99V219.5H223.49V224.25H194.99ZM237.55 224.25V219.5H247.05V200.5H242.3V195.75H247.05V191H256.55V219.5H266.05V224.25H237.55ZM284.86 224.25V219.5H280.11V214.75H275.36V200.5H280.11V195.75H284.86V214.75H289.61V219.5H299.11V224.25H284.86ZM299.11 219.5H303.86V214.75H308.61V200.5H303.86V195.75H299.11V191H284.86V195.75H294.36V200.5H299.11V219.5ZM322.67 224.25V219.5H332.17V200.5H327.42V195.75H332.17V191H341.67V219.5H351.17V224.25H322.67ZM369.98 224.25V219.5H365.23V214.75H360.48V200.5H365.23V195.75H369.98V214.75H374.73V219.5H384.23V224.25H369.98ZM384.23 219.5H388.98V214.75H393.73V200.5H388.98V195.75H384.23V191H369.98V195.75H379.48V200.5H384.23V219.5ZM407.79 224.25V219.5H417.29V200.5H412.54V195.75H417.29V191H426.79V219.5H436.29V224.25H407.79ZM450.35 224.25V219.5H459.85V200.5H455.1V195.75H459.85V191H469.35V219.5H478.85V224.25H450.35ZM497.66 224.25V219.5H492.91V214.75H488.16V200.5H492.91V195.75H497.66V214.75H502.41V219.5H511.91V224.25H497.66ZM511.91 219.5H516.66V214.75H521.41V200.5H516.66V195.75H511.91V191H497.66V195.75H507.16V200.5H511.91V219.5ZM20 238V308H80V298H90V278H80V268H90V248H80V238H20ZM70 268H40V248H70V268ZM70 298H40V278H70V298ZM107.6 298V308H167.6V298H147.6V248H167.6V238H107.6V248H127.6V298H107.6ZM185.2 248H205.2V308H225.2V248H245.2V238H185.2V248ZM262.8 298V308H312.8V298H322.8V278H312.8V268H272.8V248H302.8V258H322.8V248H312.8V238H262.8V248H252.8V268H262.8V278H302.8V298H272.8V288H252.8V298H262.8ZM398 309V249H378V239H438V249H418V309H398ZM455.6 309V299H445.6V249H455.6V239H505.6V249H515.6V299H505.6V309H455.6ZM465.6 299H495.6V249H465.6V299ZM20 76V181H50V136H110V121H50V91H125V76H20ZM152 76V181H182V151H197V166H212V181H257V166H242V151H227V136H257V91H242V76H152ZM212 136H182V91H227V121H212V136ZM299 166V181H374V166H389V91H374V76H299V91H284V166H299ZM359 166H314V91H359V166ZM416 76V181H446V121H461V151H476V121H491V181H521V76H491V91H476V106H461V91H446V76H416ZM18 482.25V386H100.5V399.75H114.25V427.25H100.5V441H114.25V468.5H100.5V482.25H18ZM45.5 427.25H86.75V399.75H45.5V427.25ZM45.5 468.5H86.75V441H45.5V468.5ZM120.3 482.25V386H216.55V399.75H147.8V427.25H202.8V441H147.8V468.5H216.55V482.25H120.3ZM222.6 482.25V413.5H236.35V399.75H250.1V386H291.35V399.75H305.1V413.5H318.85V482.25H291.35V454.75H250.1V482.25H222.6ZM250.1 441H291.35V413.5H277.6V399.75H263.85V413.5H250.1V441ZM366.15 399.75H338.65V386H421.15V399.75H393.65V482.25H366.15V399.75ZM440.95 482.25V468.5H427.2V454.75H454.7V468.5H495.95V441H440.95V427.25H427.2V399.75H440.95V386H509.7V399.75H523.45V413.5H495.95V399.75H454.7V427.25H509.7V441H523.45V468.5H509.7V482.25H440.95ZM288 19V59.25H299.5V47.75H322.5V42H328.25V24.75H322.5V19H288ZM316.75 42H299.5V24.75H316.75V42ZM338.6 19V59.25H378.85V53.5H350.1V42H373.1V36.25H350.1V24.75H378.85V19H338.6ZM389.2 30.5V59.25H400.7V47.75H417.95V59.25H429.45V30.5H423.7V24.75H417.95V19H400.7V24.75H394.95V30.5H389.2ZM417.95 42H400.7V30.5H406.45V24.75H412.2V30.5H417.95V42ZM439.8 19V59.25H451.3V47.75H457.05V53.5H462.8V59.25H480.05V53.5H474.3V47.75H468.55V42H462.8V36.25H468.55V30.5H474.3V24.75H480.05V19H468.55V24.75H462.8V30.5H457.05V36.25H451.3V19H439.8ZM513.4 24.75H501.9V36.25H513.4V24.75ZM513.4 42H501.9V53.5H513.4V42ZM17 332H36V374H17V332ZM60 339H41V374H60V339ZM65 339H84V374H65V339ZM108 351H89V374H108V351ZM113 328H132V374H113V328ZM156 332H137V374H156V332ZM161 331H180V374H161V331ZM204 356H185V374H204V356ZM209 343H228V374H209V343ZM252 335H233V374H252V335ZM257 342H276V374H257V342ZM300 343H281V374H300V343ZM305 347H324V374H305V347ZM348 335H329V374H348V335ZM353 343H372V374H353V343ZM396 332H377V374H396V332ZM401 339H420V374H401V339ZM444 328H425V374H444V328ZM449 339H468V374H449V339ZM492 332H473V374H492V332ZM497 332H516V374H497V332ZM36 327H17V323H36V327ZM41 335H60V332H41V335ZM84 335H65V332H84V335ZM89 348H108V346H89V348ZM132 322H113V318H132V322ZM137 326H156V323H137V326ZM180 325H161V322H180V325ZM185 353H204V351H185V353ZM228 340H209V337H228V340ZM233 330H252V327H233V330ZM276 337H257V335H276V337ZM281 339H300V337H281V339ZM324 344H305V342H324V344ZM329 330H348V327H329V330ZM372 339H353V337H372V339ZM377 326H396V323H377V326ZM420 335H401V332H420V335ZM425 323H444V319H425V323ZM468 335H449V332H468V335ZM473 326H492V323H473V326ZM516 326H497V323H516V326Z" fill="black"/>
<path d="M-12 -36V-37.5H-13.5V-36H-12ZM552 -36H553.5V-37.5H552V-36ZM-12 536H-13.5V537.5H-12V536ZM552 536V537.5H553.5V536H552ZM20 59.25H18.5V60.75H20V59.25ZM20 19V17.5H18.5V19H20ZM31.5 59.25V60.75H33V59.25H31.5ZM31.5 47.75V46.25H30V47.75H31.5ZM54.5 47.75V49.25H56V47.75H54.5ZM54.5 42V40.5H53V42H54.5ZM60.25 42V43.5H61.75V42H60.25ZM60.25 24.75H61.75V23.25H60.25V24.75ZM54.5 24.75H53V26.25H54.5V24.75ZM54.5 19H56V17.5H54.5V19ZM31.5 42H30V43.5H31.5V42ZM48.75 42V43.5H50.25V42H48.75ZM31.5 24.75V23.25H30V24.75H31.5ZM48.75 24.75H50.25V23.25H48.75V24.75ZM76.35 59.25H74.85V60.75H76.35V59.25ZM76.35 53.5V52H74.85V53.5H76.35ZM110.85 59.25V60.75H112.35V59.25H110.85ZM110.85 53.5H112.35V52H110.85V53.5ZM99.35 53.5H97.85V55H99.35V53.5ZM99.35 24.75V23.25H97.85V24.75H99.35ZM110.85 24.75V26.25H112.35V24.75H110.85ZM110.85 19H112.35V17.5H110.85V19ZM76.35 19V17.5H74.85V19H76.35ZM76.35 24.75H74.85V26.25H76.35V24.75ZM87.85 24.75H89.35V23.25H87.85V24.75ZM87.85 53.5V55H89.35V53.5H87.85ZM121.2 47.75V46.25H119.7V47.75H121.2ZM126.95 47.75V49.25H128.45V47.75H126.95ZM121.2 59.25H119.7V60.75H121.2V59.25ZM132.7 59.25V60.75H134.2V59.25H132.7ZM132.7 47.75V46.25H131.2V47.75H132.7ZM138.45 47.75V49.25H139.95V47.75H138.45ZM138.45 42V40.5H136.95V42H138.45ZM144.2 42H145.7V40.5H144.2V42ZM144.2 47.75H142.7V49.25H144.2V47.75ZM149.95 47.75H151.45V46.25H149.95V47.75ZM149.95 59.25H148.45V60.75H149.95V59.25ZM161.45 59.25V60.75H162.95V59.25H161.45ZM161.45 47.75H162.95V46.25H161.45V47.75ZM155.7 47.75H154.2V49.25H155.7V47.75ZM155.7 42H157.2V40.5H155.7V42ZM149.95 42H148.45V43.5H149.95V42ZM149.95 36.25V34.75H148.45V36.25H149.95ZM155.7 36.25V37.75H157.2V36.25H155.7ZM155.7 30.5V29H154.2V30.5H155.7ZM161.45 30.5V32H162.95V30.5H161.45ZM161.45 19H162.95V17.5H161.45V19ZM149.95 19V17.5H148.45V19H149.95ZM149.95 30.5V32H151.45V30.5H149.95ZM144.2 30.5V29H142.7V30.5H144.2ZM144.2 36.25V37.75H145.7V36.25H144.2ZM138.45 36.25H136.95V37.75H138.45V36.25ZM138.45 30.5H139.95V29H138.45V30.5ZM132.7 30.5H131.2V32H132.7V30.5ZM132.7 19H134.2V17.5H132.7V19ZM121.2 19V17.5H119.7V19H121.2ZM121.2 30.5H119.7V32H121.2V30.5ZM126.95 30.5H128.45V29H126.95V30.5ZM126.95 36.25H125.45V37.75H126.95V36.25ZM132.7 36.25H134.2V34.75H132.7V36.25ZM132.7 42V43.5H134.2V42H132.7ZM126.95 42V40.5H125.45V42H126.95ZM171.8 59.25H170.3V60.75H171.8V59.25ZM171.8 19V17.5H170.3V19H171.8ZM212.05 59.25V60.75H213.55V59.25H212.05ZM212.05 53.5H213.55V52H212.05V53.5ZM183.3 53.5H181.8V55H183.3V53.5ZM183.3 42V40.5H181.8V42H183.3ZM206.3 42V43.5H207.8V42H206.3ZM206.3 36.25H207.8V34.75H206.3V36.25ZM183.3 36.25H181.8V37.75H183.3V36.25ZM183.3 24.75V23.25H181.8V24.75H183.3ZM212.05 24.75V26.25H213.55V24.75H212.05ZM212.05 19H213.55V17.5H212.05V19ZM228.15 59.25H226.65V60.75H228.15V59.25ZM228.15 19V17.5H226.65V19H228.15ZM262.65 59.25V60.75H264.15V59.25H262.65ZM262.65 53.5H264.15V52H262.65V53.5ZM239.65 53.5H238.15V55H239.65V53.5ZM239.65 19H241.15V17.5H239.65V19ZM29.5 219.5H31V218H29.5V219.5ZM29.5 224.25H28V225.75H29.5V224.25ZM24.75 219.5H23.25V221H24.75V219.5ZM24.75 214.75H26.25V213.25H24.75V214.75ZM20 214.75H18.5V216.25H20V214.75ZM20 200.5V199H18.5V200.5H20ZM24.75 200.5V202H26.25V200.5H24.75ZM24.75 195.75V194.25H23.25V195.75H24.75ZM29.5 214.75H28V216.25H29.5V214.75ZM34.25 214.75H35.75V213.25H34.25V214.75ZM34.25 219.5H32.75V221H34.25V219.5ZM43.75 224.25V225.75H45.25V224.25H43.75ZM48.5 219.5V221H50V219.5H48.5ZM48.5 214.75V213.25H47V214.75H48.5ZM53.25 214.75V216.25H54.75V214.75H53.25ZM53.25 200.5H54.75V199H53.25V200.5ZM48.5 200.5H47V202H48.5V200.5ZM48.5 195.75H50V194.25H48.5V195.75ZM43.75 195.75H42.25V197.25H43.75V195.75ZM43.75 191H45.25V189.5H43.75V191ZM29.5 191V189.5H28V191H29.5ZM39 195.75H40.5V194.25H39V195.75ZM39 200.5H37.5V202H39V200.5ZM43.75 200.5H45.25V199H43.75V200.5ZM67.31 219.5V218H65.81V219.5H67.31ZM67.31 224.25H65.81V225.75H67.31V224.25ZM76.81 219.5V221H78.31V219.5H76.81ZM76.81 200.5H78.31V199H76.81V200.5ZM72.06 200.5H70.56V202H72.06V200.5ZM72.06 195.75V194.25H70.56V195.75H72.06ZM76.81 195.75V197.25H78.31V195.75H76.81ZM76.81 191V189.5H75.31V191H76.81ZM86.31 191H87.81V189.5H86.31V191ZM86.31 219.5H84.81V221H86.31V219.5ZM95.81 219.5H97.31V218H95.81V219.5ZM95.81 224.25V225.75H97.31V224.25H95.81ZM114.62 219.5H116.12V218H114.62V219.5ZM114.62 224.25H113.12V225.75H114.62V224.25ZM109.87 219.5H108.37V221H109.87V219.5ZM109.87 214.75H111.37V213.25H109.87V214.75ZM105.12 214.75H103.62V216.25H105.12V214.75ZM105.12 200.5V199H103.62V200.5H105.12ZM109.87 200.5V202H111.37V200.5H109.87ZM109.87 195.75V194.25H108.37V195.75H109.87ZM114.62 214.75H113.12V216.25H114.62V214.75ZM119.37 214.75H120.87V213.25H119.37V214.75ZM119.37 219.5H117.87V221H119.37V219.5ZM128.87 224.25V225.75H130.37V224.25H128.87ZM133.62 219.5V221H135.12V219.5H133.62ZM133.62 214.75V213.25H132.12V214.75H133.62ZM138.37 214.75V216.25H139.87V214.75H138.37ZM138.37 200.5H139.87V199H138.37V200.5ZM133.62 200.5H132.12V202H133.62V200.5ZM133.62 195.75H135.12V194.25H133.62V195.75ZM128.87 195.75H127.37V197.25H128.87V195.75ZM128.87 191H130.37V189.5H128.87V191ZM114.62 191V189.5H113.12V191H114.62ZM124.12 195.75H125.62V194.25H124.12V195.75ZM124.12 200.5H122.62V202H124.12V200.5ZM128.87 200.5H130.37V199H128.87V200.5ZM152.43 219.5V218H150.93V219.5H152.43ZM152.43 224.25H150.93V225.75H152.43V224.25ZM161.93 219.5V221H163.43V219.5H161.93ZM161.93 200.5H163.43V199H161.93V200.5ZM157.18 200.5H155.68V202H157.18V200.5ZM157.18 195.75V194.25H155.68V195.75H157.18ZM161.93 195.75V197.25H163.43V195.75H161.93ZM161.93 191V189.5H160.43V191H161.93ZM171.43 191H172.93V189.5H171.43V191ZM171.43 219.5H169.93V221H171.43V219.5ZM180.93 219.5H182.43V218H180.93V219.5ZM180.93 224.25V225.75H182.43V224.25H180.93ZM194.99 219.5V218H193.49V219.5H194.99ZM194.99 224.25H193.49V225.75H194.99V224.25ZM204.49 219.5V221H205.99V219.5H204.49ZM204.49 200.5H205.99V199H204.49V200.5ZM199.74 200.5H198.24V202H199.74V200.5ZM199.74 195.75V194.25H198.24V195.75H199.74ZM204.49 195.75V197.25H205.99V195.75H204.49ZM204.49 191V189.5H202.99V191H204.49ZM213.99 191H215.49V189.5H213.99V191ZM213.99 219.5H212.49V221H213.99V219.5ZM223.49 219.5H224.99V218H223.49V219.5ZM223.49 224.25V225.75H224.99V224.25H223.49ZM237.55 219.5V218H236.05V219.5H237.55ZM237.55 224.25H236.05V225.75H237.55V224.25ZM247.05 219.5V221H248.55V219.5H247.05ZM247.05 200.5H248.55V199H247.05V200.5ZM242.3 200.5H240.8V202H242.3V200.5ZM242.3 195.75V194.25H240.8V195.75H242.3ZM247.05 195.75V197.25H248.55V195.75H247.05ZM247.05 191V189.5H245.55V191H247.05ZM256.55 191H258.05V189.5H256.55V191ZM256.55 219.5H255.05V221H256.55V219.5ZM266.05 219.5H267.55V218H266.05V219.5ZM266.05 224.25V225.75H267.55V224.25H266.05ZM284.86 219.5H286.36V218H284.86V219.5ZM284.86 224.25H283.36V225.75H284.86V224.25ZM280.11 219.5H278.61V221H280.11V219.5ZM280.11 214.75H281.61V213.25H280.11V214.75ZM275.36 214.75H273.86V216.25H275.36V214.75ZM275.36 200.5V199H273.86V200.5H275.36ZM280.11 200.5V202H281.61V200.5H280.11ZM280.11 195.75V194.25H278.61V195.75H280.11ZM284.86 214.75H283.36V216.25H284.86V214.75ZM289.61 214.75H291.11V213.25H289.61V214.75ZM289.61 219.5H288.11V221H289.61V219.5ZM299.11 224.25V225.75H300.61V224.25H299.11ZM303.86 219.5V221H305.36V219.5H303.86ZM303.86 214.75V213.25H302.36V214.75H303.86ZM308.61 214.75V216.25H310.11V214.75H308.61ZM308.61 200.5H310.11V199H308.61V200.5ZM303.86 200.5H302.36V202H303.86V200.5ZM303.86 195.75H305.36V194.25H303.86V195.75ZM299.11 195.75H297.61V197.25H299.11V195.75ZM299.11 191H300.61V189.5H299.11V191ZM284.86 191V189.5H283.36V191H284.86ZM294.36 195.75H295.86V194.25H294.36V195.75ZM294.36 200.5H292.86V202H294.36V200.5ZM299.11 200.5H300.61V199H299.11V200.5ZM322.67 219.5V218H321.17V219.5H322.67ZM322.67 224.25H321.17V225.75H322.67V224.25ZM332.17 219.5V221H333.67V219.5H332.17ZM332.17 200.5H333.67V199H332.17V200.5ZM327.42 200.5H325.92V202H327.42V200.5ZM327.42 195.75V194.25H325.92V195.75H327.42ZM332.17 195.75V197.25H333.67V195.75H332.17ZM332.17 191V189.5H330.67V191H332.17ZM341.67 191H343.17V189.5H341.67V191ZM341.67 219.5H340.17V221H341.67V219.5ZM351.17 219.5H352.67V218H351.17V219.5ZM351.17 224.25V225.75H352.67V224.25H351.17ZM369.98 219.5H371.48V218H369.98V219.5ZM369.98 224.25H368.48V225.75H369.98V224.25ZM365.23 219.5H363.73V221H365.23V219.5ZM365.23 214.75H366.73V213.25H365.23V214.75ZM360.48 214.75H358.98V216.25H360.48V214.75ZM360.48 200.5V199H358.98V200.5H360.48ZM365.23 200.5V202H366.73V200.5H365.23ZM365.23 195.75V194.25H363.73V195.75H365.23ZM369.98 214.75H368.48V216.25H369.98V214.75ZM374.73 214.75H376.23V213.25H374.73V214.75ZM374.73 219.5H373.23V221H374.73V219.5ZM384.23 224.25V225.75H385.73V224.25H384.23ZM388.98 219.5V221H390.48V219.5H388.98ZM388.98 214.75V213.25H387.48V214.75H388.98ZM393.73 214.75V216.25H395.23V214.75H393.73ZM393.73 200.5H395.23V199H393.73V200.5ZM388.98 200.5H387.48V202H388.98V200.5ZM388.98 195.75H390.48V194.25H388.98V195.75ZM384.23 195.75H382.73V197.25H384.23V195.75ZM384.23 191H385.73V189.5H384.23V191ZM369.98 191V189.5H368.48V191H369.98ZM379.48 195.75H380.98V194.25H379.48V195.75ZM379.48 200.5H377.98V202H379.48V200.5ZM384.23 200.5H385.73V199H384.23V200.5ZM407.79 219.5V218H406.29V219.5H407.79ZM407.79 224.25H406.29V225.75H407.79V224.25ZM417.29 219.5V221H418.79V219.5H417.29ZM417.29 200.5H418.79V199H417.29V200.5ZM412.54 200.5H411.04V202H412.54V200.5ZM412.54 195.75V194.25H411.04V195.75H412.54ZM417.29 195.75V197.25H418.79V195.75H417.29ZM417.29 191V189.5H415.79V191H417.29ZM426.79 191H428.29V189.5H426.79V191ZM426.79 219.5H425.29V221H426.79V219.5ZM436.29 219.5H437.79V218H436.29V219.5ZM436.29 224.25V225.75H437.79V224.25H436.29ZM450.35 219.5V218H448.85V219.5H450.35ZM450.35 224.25H448.85V225.75H450.35V224.25ZM459.85 219.5V221H461.35V219.5H459.85ZM459.85 200.5H461.35V199H459.85V200.5ZM455.1 200.5H453.6V202H455.1V200.5ZM455.1 195.75V194.25H453.6V195.75H455.1ZM459.85 195.75V197.25H461.35V195.75H459.85ZM459.85 191V189.5H458.35V191H459.85ZM469.35 191H470.85V189.5H469.35V191ZM469.35 219.5H467.85V221H469.35V219.5ZM478.85 219.5H480.35V218H478.85V219.5ZM478.85 224.25V225.75H480.35V224.25H478.85ZM497.66 219.5H499.16V218H497.66V219.5ZM497.66 224.25H496.16V225.75H497.66V224.25ZM492.91 219.5H491.41V221H492.91V219.5ZM492.91 214.75H494.41V213.25H492.91V214.75ZM488.16 214.75H486.66V216.25H488.16V214.75ZM488.16 200.5V199H486.66V200.5H488.16ZM492.91 200.5V202H494.41V200.5H492.91ZM492.91 195.75V194.25H491.41V195.75H492.91ZM497.66 214.75H496.16V216.25H497.66V214.75ZM502.41 214.75H503.91V213.25H502.41V214.75ZM502.41 219.5H500.91V221H502.41V219.5ZM511.91 224.25V225.75H513.41V224.25H511.91ZM516.66 219.5V221H518.16V219.5H516.66ZM516.66 214.75V213.25H515.16V214.75H516.66ZM521.41 214.75V216.25H522.91V214.75H521.41ZM521.41 200.5H522.91V199H521.41V200.5ZM516.66 200.5H515.16V202H516.66V200.5ZM516.66 195.75H518.16V194.25H516.66V195.75ZM511.91 195.75H510.41V197.25H511.91V195.75ZM511.91 191H513.41V189.5H511.91V191ZM497.66 191V189.5H496.16V191H497.66ZM507.16 195.75H508.66V194.25H507.16V195.75ZM507.16 200.5H505.66V202H507.16V200.5ZM511.91 200.5H513.41V199H511.91V200.5ZM20 308H18.5V309.5H20V308ZM20 238V236.5H18.5V238H20ZM80 308V309.5H81.5V308H80ZM80 298V296.5H78.5V298H80ZM90 298V299.5H91.5V298H90ZM90 278H91.5V276.5H90V278ZM80 278H78.5V279.5H80V278ZM80 268V266.5H78.5V268H80ZM90 268V269.5H91.5V268H90ZM90 248H91.5V246.5H90V248ZM80 248H78.5V249.5H80V248ZM80 238H81.5V236.5H80V238ZM40 268H38.5V269.5H40V268ZM70 268V269.5H71.5V268H70ZM40 248V246.5H38.5V248H40ZM70 248H71.5V246.5H70V248ZM40 298H38.5V299.5H40V298ZM70 298V299.5H71.5V298H70ZM40 278V276.5H38.5V278H40ZM70 278H71.5V276.5H70V278ZM107.6 308H106.1V309.5H107.6V308ZM107.6 298V296.5H106.1V298H107.6ZM167.6 308V309.5H169.1V308H167.6ZM167.6 298H169.1V296.5H167.6V298ZM147.6 298H146.1V299.5H147.6V298ZM147.6 248V246.5H146.1V248H147.6ZM167.6 248V249.5H169.1V248H167.6ZM167.6 238H169.1V236.5H167.6V238ZM107.6 238V236.5H106.1V238H107.6ZM107.6 248H106.1V249.5H107.6V248ZM127.6 248H129.1V246.5H127.6V248ZM127.6 298V299.5H129.1V298H127.6ZM205.2 248H206.7V246.5H205.2V248ZM185.2 248H183.7V249.5H185.2V248ZM205.2 308H203.7V309.5H205.2V308ZM225.2 308V309.5H226.7V308H225.2ZM225.2 248V246.5H223.7V248H225.2ZM245.2 248V249.5H246.7V248H245.2ZM245.2 238H246.7V236.5H245.2V238ZM185.2 238V236.5H183.7V238H185.2ZM262.8 308H261.3V309.5H262.8V308ZM262.8 298H264.3V296.5H262.8V298ZM312.8 308V309.5H314.3V308H312.8ZM312.8 298V296.5H311.3V298H312.8ZM322.8 298V299.5H324.3V298H322.8ZM322.8 278H324.3V276.5H322.8V278ZM312.8 278H311.3V279.5H312.8V278ZM312.8 268H314.3V266.5H312.8V268ZM272.8 268H271.3V269.5H272.8V268ZM272.8 248V246.5H271.3V248H272.8ZM302.8 248H304.3V246.5H302.8V248ZM302.8 258H301.3V259.5H302.8V258ZM322.8 258V259.5H324.3V258H322.8ZM322.8 248H324.3V246.5H322.8V248ZM312.8 248H311.3V249.5H312.8V248ZM312.8 238H314.3V236.5H312.8V238ZM262.8 238V236.5H261.3V238H262.8ZM262.8 248V249.5H264.3V248H262.8ZM252.8 248V246.5H251.3V248H252.8ZM252.8 268H251.3V269.5H252.8V268ZM262.8 268H264.3V266.5H262.8V268ZM262.8 278H261.3V279.5H262.8V278ZM302.8 278H304.3V276.5H302.8V278ZM302.8 298V299.5H304.3V298H302.8ZM272.8 298H271.3V299.5H272.8V298ZM272.8 288H274.3V286.5H272.8V288ZM252.8 288V286.5H251.3V288H252.8ZM252.8 298H251.3V299.5H252.8V298ZM398 249H399.5V247.5H398V249ZM398 309H396.5V310.5H398V309ZM378 249H376.5V250.5H378V249ZM378 239V237.5H376.5V239H378ZM438 239H439.5V237.5H438V239ZM438 249V250.5H439.5V249H438ZM418 249V247.5H416.5V249H418ZM418 309V310.5H419.5V309H418ZM455.6 299H457.1V297.5H455.6V299ZM455.6 309H454.1V310.5H455.6V309ZM445.6 299H444.1V300.5H445.6V299ZM445.6 249V247.5H444.1V249H445.6ZM455.6 249V250.5H457.1V249H455.6ZM455.6 239V237.5H454.1V239H455.6ZM505.6 239H507.1V237.5H505.6V239ZM505.6 249H504.1V250.5H505.6V249ZM515.6 249H517.1V247.5H515.6V249ZM515.6 299V300.5H517.1V299H515.6ZM505.6 299V297.5H504.1V299H505.6ZM505.6 309V310.5H507.1V309H505.6ZM495.6 299V300.5H497.1V299H495.6ZM465.6 299H464.1V300.5H465.6V299ZM495.6 249H497.1V247.5H495.6V249ZM465.6 249V247.5H464.1V249H465.6ZM20 181H18.5V182.5H20V181ZM20 76V74.5H18.5V76H20ZM50 181V182.5H51.5V181H50ZM50 136V134.5H48.5V136H50ZM110 136V137.5H111.5V136H110ZM110 121H111.5V119.5H110V121ZM50 121H48.5V122.5H50V121ZM50 91V89.5H48.5V91H50ZM125 91V92.5H126.5V91H125ZM125 76H126.5V74.5H125V76ZM152 181H150.5V182.5H152V181ZM152 76V74.5H150.5V76H152ZM182 181V182.5H183.5V181H182ZM182 151V149.5H180.5V151H182ZM197 151H198.5V149.5H197V151ZM197 166H195.5V167.5H197V166ZM212 166H213.5V164.5H212V166ZM212 181H210.5V182.5H212V181ZM257 181V182.5H258.5V181H257ZM257 166H258.5V164.5H257V166ZM242 166H240.5V167.5H242V166ZM242 151H243.5V149.5H242V151ZM227 151H225.5V152.5H227V151ZM227 136V134.5H225.5V136H227ZM257 136V137.5H258.5V136H257ZM257 91H258.5V89.5H257V91ZM242 91H240.5V92.5H242V91ZM242 76H243.5V74.5H242V76ZM182 136H180.5V137.5H182V136ZM212 136V137.5H213.5V136H212ZM182 91V89.5H180.5V91H182ZM227 91H228.5V89.5H227V91ZM227 121V122.5H228.5V121H227ZM212 121V119.5H210.5V121H212ZM299 181H297.5V182.5H299V181ZM299 166H300.5V164.5H299V166ZM374 181V182.5H375.5V181H374ZM374 166V164.5H372.5V166H374ZM389 166V167.5H390.5V166H389ZM389 91H390.5V89.5H389V91ZM374 91H372.5V92.5H374V91ZM374 76H375.5V74.5H374V76ZM299 76V74.5H297.5V76H299ZM299 91V92.5H300.5V91H299ZM284 91V89.5H282.5V91H284ZM284 166H282.5V167.5H284V166ZM314 166H312.5V167.5H314V166ZM359 166V167.5H360.5V166H359ZM314 91V89.5H312.5V91H314ZM359 91H360.5V89.5H359V91ZM416 181H414.5V182.5H416V181ZM416 76V74.5H414.5V76H416ZM446 181V182.5H447.5V181H446ZM446 121V119.5H444.5V121H446ZM461 121H462.5V119.5H461V121ZM461 151H459.5V152.5H461V151ZM476 151V152.5H477.5V151H476ZM476 121V119.5H474.5V121H476ZM491 121H492.5V119.5H491V121ZM491 181H489.5V182.5H491V181ZM521 181V182.5H522.5V181H521ZM521 76H522.5V74.5H521V76ZM491 76V74.5H489.5V76H491ZM491 91V92.5H492.5V91H491ZM476 91V89.5H474.5V91H476ZM476 106V107.5H477.5V106H476ZM461 106H459.5V107.5H461V106ZM461 91H462.5V89.5H461V91ZM446 91H444.5V92.5H446V91ZM446 76H447.5V74.5H446V76ZM18 386V384.5H16.5V386H18ZM18 482.25H16.5V483.75H18V482.25ZM100.5 386H102V384.5H100.5V386ZM100.5 399.75H99V401.25H100.5V399.75ZM114.25 399.75H115.75V398.25H114.25V399.75ZM114.25 427.25V428.75H115.75V427.25H114.25ZM100.5 427.25V425.75H99V427.25H100.5ZM100.5 441H99V442.5H100.5V441ZM114.25 441H115.75V439.5H114.25V441ZM114.25 468.5V470H115.75V468.5H114.25ZM100.5 468.5V467H99V468.5H100.5ZM100.5 482.25V483.75H102V482.25H100.5ZM86.75 427.25V428.75H88.25V427.25H86.75ZM45.5 427.25H44V428.75H45.5V427.25ZM86.75 399.75H88.25V398.25H86.75V399.75ZM45.5 399.75V398.25H44V399.75H45.5ZM86.75 468.5V470H88.25V468.5H86.75ZM45.5 468.5H44V470H45.5V468.5ZM86.75 441H88.25V439.5H86.75V441ZM45.5 441V439.5H44V441H45.5ZM120.3 386V384.5H118.8V386H120.3ZM120.3 482.25H118.8V483.75H120.3V482.25ZM216.55 386H218.05V384.5H216.55V386ZM216.55 399.75V401.25H218.05V399.75H216.55ZM147.8 399.75V398.25H146.3V399.75H147.8ZM147.8 427.25H146.3V428.75H147.8V427.25ZM202.8 427.25H204.3V425.75H202.8V427.25ZM202.8 441V442.5H204.3V441H202.8ZM147.8 441V439.5H146.3V441H147.8ZM147.8 468.5H146.3V470H147.8V468.5ZM216.55 468.5H218.05V467H216.55V468.5ZM216.55 482.25V483.75H218.05V482.25H216.55ZM222.6 413.5V412H221.1V413.5H222.6ZM222.6 482.25H221.1V483.75H222.6V482.25ZM236.35 413.5V415H237.85V413.5H236.35ZM236.35 399.75V398.25H234.85V399.75H236.35ZM250.1 399.75V401.25H251.6V399.75H250.1ZM250.1 386V384.5H248.6V386H250.1ZM291.35 386H292.85V384.5H291.35V386ZM291.35 399.75H289.85V401.25H291.35V399.75ZM305.1 399.75H306.6V398.25H305.1V399.75ZM305.1 413.5H303.6V415H305.1V413.5ZM318.85 413.5H320.35V412H318.85V413.5ZM318.85 482.25V483.75H320.35V482.25H318.85ZM291.35 482.25H289.85V483.75H291.35V482.25ZM291.35 454.75H292.85V453.25H291.35V454.75ZM250.1 454.75V453.25H248.6V454.75H250.1ZM250.1 482.25V483.75H251.6V482.25H250.1ZM291.35 441V442.5H292.85V441H291.35ZM250.1 441H248.6V442.5H250.1V441ZM291.35 413.5H292.85V412H291.35V413.5ZM277.6 413.5H276.1V415H277.6V413.5ZM277.6 399.75H279.1V398.25H277.6V399.75ZM263.85 399.75V398.25H262.35V399.75H263.85ZM263.85 413.5V415H265.35V413.5H263.85ZM250.1 413.5V412H248.6V413.5H250.1ZM338.65 399.75H337.15V401.25H338.65V399.75ZM366.15 399.75H367.65V398.25H366.15V399.75ZM338.65 386V384.5H337.15V386H338.65ZM421.15 386H422.65V384.5H421.15V386ZM421.15 399.75V401.25H422.65V399.75H421.15ZM393.65 399.75V398.25H392.15V399.75H393.65ZM393.65 482.25V483.75H395.15V482.25H393.65ZM366.15 482.25H364.65V483.75H366.15V482.25ZM440.95 468.5H442.45V467H440.95V468.5ZM440.95 482.25H439.45V483.75H440.95V482.25ZM427.2 468.5H425.7V470H427.2V468.5ZM427.2 454.75V453.25H425.7V454.75H427.2ZM454.7 454.75H456.2V453.25H454.7V454.75ZM454.7 468.5H453.2V470H454.7V468.5ZM495.95 468.5V470H497.45V468.5H495.95ZM495.95 441H497.45V439.5H495.95V441ZM440.95 441H439.45V442.5H440.95V441ZM440.95 427.25H442.45V425.75H440.95V427.25ZM427.2 427.25H425.7V428.75H427.2V427.25ZM427.2 399.75V398.25H425.7V399.75H427.2ZM440.95 399.75V401.25H442.45V399.75H440.95ZM440.95 386V384.5H439.45V386H440.95ZM509.7 386H511.2V384.5H509.7V386ZM509.7 399.75H508.2V401.25H509.7V399.75ZM523.45 399.75H524.95V398.25H523.45V399.75ZM523.45 413.5V415H524.95V413.5H523.45ZM495.95 413.5H494.45V415H495.95V413.5ZM495.95 399.75H497.45V398.25H495.95V399.75ZM454.7 399.75V398.25H453.2V399.75H454.7ZM454.7 427.25H453.2V428.75H454.7V427.25ZM509.7 427.25H511.2V425.75H509.7V427.25ZM509.7 441H508.2V442.5H509.7V441ZM523.45 441H524.95V439.5H523.45V441ZM523.45 468.5V470H524.95V468.5H523.45ZM509.7 468.5V467H508.2V468.5H509.7ZM509.7 482.25V483.75H511.2V482.25H509.7ZM288 59.25H286.5V60.75H288V59.25ZM288 19V17.5H286.5V19H288ZM299.5 59.25V60.75H301V59.25H299.5ZM299.5 47.75V46.25H298V47.75H299.5ZM322.5 47.75V49.25H324V47.75H322.5ZM322.5 42V40.5H321V42H322.5ZM328.25 42V43.5H329.75V42H328.25ZM328.25 24.75H329.75V23.25H328.25V24.75ZM322.5 24.75H321V26.25H322.5V24.75ZM322.5 19H324V17.5H322.5V19ZM299.5 42H298V43.5H299.5V42ZM316.75 42V43.5H318.25V42H316.75ZM299.5 24.75V23.25H298V24.75H299.5ZM316.75 24.75H318.25V23.25H316.75V24.75ZM338.6 59.25H337.1V60.75H338.6V59.25ZM338.6 19V17.5H337.1V19H338.6ZM378.85 59.25V60.75H380.35V59.25H378.85ZM378.85 53.5H380.35V52H378.85V53.5ZM350.1 53.5H348.6V55H350.1V53.5ZM350.1 42V40.5H348.6V42H350.1ZM373.1 42V43.5H374.6V42H373.1ZM373.1 36.25H374.6V34.75H373.1V36.25ZM350.1 36.25H348.6V37.75H350.1V36.25ZM350.1 24.75V23.25H348.6V24.75H350.1ZM378.85 24.75V26.25H380.35V24.75H378.85ZM378.85 19H380.35V17.5H378.85V19ZM389.2 59.25H387.7V60.75H389.2V59.25ZM389.2 30.5V29H387.7V30.5H389.2ZM400.7 59.25V60.75H402.2V59.25H400.7ZM400.7 47.75V46.25H399.2V47.75H400.7ZM417.95 47.75H419.45V46.25H417.95V47.75ZM417.95 59.25H416.45V60.75H417.95V59.25ZM429.45 59.25V60.75H430.95V59.25H429.45ZM429.45 30.5H430.95V29H429.45V30.5ZM423.7 30.5H422.2V32H423.7V30.5ZM423.7 24.75H425.2V23.25H423.7V24.75ZM417.95 24.75H416.45V26.25H417.95V24.75ZM417.95 19H419.45V17.5H417.95V19ZM400.7 19V17.5H399.2V19H400.7ZM400.7 24.75V26.25H402.2V24.75H400.7ZM394.95 24.75V23.25H393.45V24.75H394.95ZM394.95 30.5V32H396.45V30.5H394.95ZM400.7 42H399.2V43.5H400.7V42ZM417.95 42V43.5H419.45V42H417.95ZM400.7 30.5V29H399.2V30.5H400.7ZM406.45 30.5V32H407.95V30.5H406.45ZM406.45 24.75V23.25H404.95V24.75H406.45ZM412.2 24.75H413.7V23.25H412.2V24.75ZM412.2 30.5H410.7V32H412.2V30.5ZM417.95 30.5H419.45V29H417.95V30.5ZM439.8 59.25H438.3V60.75H439.8V59.25ZM439.8 19V17.5H438.3V19H439.8ZM451.3 59.25V60.75H452.8V59.25H451.3ZM451.3 47.75V46.25H449.8V47.75H451.3ZM457.05 47.75H458.55V46.25H457.05V47.75ZM457.05 53.5H455.55V55H457.05V53.5ZM462.8 53.5H464.3V52H462.8V53.5ZM462.8 59.25H461.3V60.75H462.8V59.25ZM480.05 59.25V60.75H481.55V59.25H480.05ZM480.05 53.5H481.55V52H480.05V53.5ZM474.3 53.5H472.8V55H474.3V53.5ZM474.3 47.75H475.8V46.25H474.3V47.75ZM468.55 47.75H467.05V49.25H468.55V47.75ZM468.55 42H470.05V40.5H468.55V42ZM462.8 42H461.3V43.5H462.8V42ZM462.8 36.25V34.75H461.3V36.25H462.8ZM468.55 36.25V37.75H470.05V36.25H468.55ZM468.55 30.5V29H467.05V30.5H468.55ZM474.3 30.5V32H475.8V30.5H474.3ZM474.3 24.75V23.25H472.8V24.75H474.3ZM480.05 24.75V26.25H481.55V24.75H480.05ZM480.05 19H481.55V17.5H480.05V19ZM468.55 19V17.5H467.05V19H468.55ZM468.55 24.75V26.25H470.05V24.75H468.55ZM462.8 24.75V23.25H461.3V24.75H462.8ZM462.8 30.5V32H464.3V30.5H462.8ZM457.05 30.5V29H455.55V30.5H457.05ZM457.05 36.25V37.75H458.55V36.25H457.05ZM451.3 36.25H449.8V37.75H451.3V36.25ZM451.3 19H452.8V17.5H451.3V19ZM501.9 24.75V23.25H500.4V24.75H501.9ZM513.4 24.75H514.9V23.25H513.4V24.75ZM501.9 36.25H500.4V37.75H501.9V36.25ZM513.4 36.25V37.75H514.9V36.25H513.4ZM501.9 42V40.5H500.4V42H501.9ZM513.4 42H514.9V40.5H513.4V42ZM501.9 53.5H500.4V55H501.9V53.5ZM513.4 53.5V55H514.9V53.5H513.4ZM36 332H37.5V330.5H36V332ZM17 332V330.5H15.5V332H17ZM36 374V375.5H37.5V374H36ZM17 374H15.5V375.5H17V374ZM41 339V337.5H39.5V339H41ZM60 339H61.5V337.5H60V339ZM41 374H39.5V375.5H41V374ZM60 374V375.5H61.5V374H60ZM84 339H85.5V337.5H84V339ZM65 339V337.5H63.5V339H65ZM84 374V375.5H85.5V374H84ZM65 374H63.5V375.5H65V374ZM89 351V349.5H87.5V351H89ZM108 351H109.5V349.5H108V351ZM89 374H87.5V375.5H89V374ZM108 374V375.5H109.5V374H108ZM132 328H133.5V326.5H132V328ZM113 328V326.5H111.5V328H113ZM132 374V375.5H133.5V374H132ZM113 374H111.5V375.5H113V374ZM137 332V330.5H135.5V332H137ZM156 332H157.5V330.5H156V332ZM137 374H135.5V375.5H137V374ZM156 374V375.5H157.5V374H156ZM180 331H181.5V329.5H180V331ZM161 331V329.5H159.5V331H161ZM180 374V375.5H181.5V374H180ZM161 374H159.5V375.5H161V374ZM185 356V354.5H183.5V356H185ZM204 356H205.5V354.5H204V356ZM185 374H183.5V375.5H185V374ZM204 374V375.5H205.5V374H204ZM228 343H229.5V341.5H228V343ZM209 343V341.5H207.5V343H209ZM228 374V375.5H229.5V374H228ZM209 374H207.5V375.5H209V374ZM233 335V333.5H231.5V335H233ZM252 335H253.5V333.5H252V335ZM233 374H231.5V375.5H233V374ZM252 374V375.5H253.5V374H252ZM276 342H277.5V340.5H276V342ZM257 342V340.5H255.5V342H257ZM276 374V375.5H277.5V374H276ZM257 374H255.5V375.5H257V374ZM281 343V341.5H279.5V343H281ZM300 343H301.5V341.5H300V343ZM281 374H279.5V375.5H281V374ZM300 374V375.5H301.5V374H300ZM324 347H325.5V345.5H324V347ZM305 347V345.5H303.5V347H305ZM324 374V375.5H325.5V374H324ZM305 374H303.5V375.5H305V374ZM329 335V333.5H327.5V335H329ZM348 335H349.5V333.5H348V335ZM329 374H327.5V375.5H329V374ZM348 374V375.5H349.5V374H348ZM372 343H373.5V341.5H372V343ZM353 343V341.5H351.5V343H353ZM372 374V375.5H373.5V374H372ZM353 374H351.5V375.5H353V374ZM377 332V330.5H375.5V332H377ZM396 332H397.5V330.5H396V332ZM377 374H375.5V375.5H377V374ZM396 374V375.5H397.5V374H396ZM420 339H421.5V337.5H420V339ZM401 339V337.5H399.5V339H401ZM420 374V375.5H421.5V374H420ZM401 374H399.5V375.5H401V374ZM425 328V326.5H423.5V328H425ZM444 328H445.5V326.5H444V328ZM425 374H423.5V375.5H425V374ZM444 374V375.5H445.5V374H444ZM468 339H469.5V337.5H468V339ZM449 339V337.5H447.5V339H449ZM468 374V375.5H469.5V374H468ZM449 374H447.5V375.5H449V374ZM473 332V330.5H471.5V332H473ZM492 332H493.5V330.5H492V332ZM473 374H471.5V375.5H473V374ZM492 374V375.5H493.5V374H492ZM516 332H517.5V330.5H516V332ZM497 332V330.5H495.5V332H497ZM516 374V375.5H517.5V374H516ZM497 374H495.5V375.5H497V374ZM17 327H15.5V328.5H17V327ZM36 327V328.5H37.5V327H36ZM17 323V321.5H15.5V323H17ZM36 323H37.5V321.5H36V323ZM60 335V336.5H61.5V335H60ZM41 335H39.5V336.5H41V335ZM60 332H61.5V330.5H60V332ZM41 332V330.5H39.5V332H41ZM65 335H63.5V336.5H65V335ZM84 335V336.5H85.5V335H84ZM65 332V330.5H63.5V332H65ZM84 332H85.5V330.5H84V332ZM108 348V349.5H109.5V348H108ZM89 348H87.5V349.5H89V348ZM108 346H109.5V344.5H108V346ZM89 346V344.5H87.5V346H89ZM113 322H111.5V323.5H113V322ZM132 322V323.5H133.5V322H132ZM113 318V316.5H111.5V318H113ZM132 318H133.5V316.5H132V318ZM156 326V327.5H157.5V326H156ZM137 326H135.5V327.5H137V326ZM156 323H157.5V321.5H156V323ZM137 323V321.5H135.5V323H137ZM161 325H159.5V326.5H161V325ZM180 325V326.5H181.5V325H180ZM161 322V320.5H159.5V322H161ZM180 322H181.5V320.5H180V322ZM204 353V354.5H205.5V353H204ZM185 353H183.5V354.5H185V353ZM204 351H205.5V349.5H204V351ZM185 351V349.5H183.5V351H185ZM209 340H207.5V341.5H209V340ZM228 340V341.5H229.5V340H228ZM209 337V335.5H207.5V337H209ZM228 337H229.5V335.5H228V337ZM252 330V331.5H253.5V330H252ZM233 330H231.5V331.5H233V330ZM252 327H253.5V325.5H252V327ZM233 327V325.5H231.5V327H233ZM257 337H255.5V338.5H257V337ZM276 337V338.5H277.5V337H276ZM257 335V333.5H255.5V335H257ZM276 335H277.5V333.5H276V335ZM300 339V340.5H301.5V339H300ZM281 339H279.5V340.5H281V339ZM300 337H301.5V335.5H300V337ZM281 337V335.5H279.5V337H281ZM305 344H303.5V345.5H305V344ZM324 344V345.5H325.5V344H324ZM305 342V340.5H303.5V342H305ZM324 342H325.5V340.5H324V342ZM348 330V331.5H349.5V330H348ZM329 330H327.5V331.5H329V330ZM348 327H349.5V325.5H348V327ZM329 327V325.5H327.5V327H329ZM353 339H351.5V340.5H353V339ZM372 339V340.5H373.5V339H372ZM353 337V335.5H351.5V337H353ZM372 337H373.5V335.5H372V337ZM396 326V327.5H397.5V326H396ZM377 326H375.5V327.5H377V326ZM396 323H397.5V321.5H396V323ZM377 323V321.5H375.5V323H377ZM401 335H399.5V336.5H401V335ZM420 335V336.5H421.5V335H420ZM401 332V330.5H399.5V332H401ZM420 332H421.5V330.5H420V332ZM444 323V324.5H445.5V323H444ZM425 323H423.5V324.5H425V323ZM444 319H445.5V317.5H444V319ZM425 319V317.5H423.5V319H425ZM449 335H447.5V336.5H449V335ZM468 335V336.5H469.5V335H468ZM449 332V330.5H447.5V332H449ZM468 332H469.5V330.5H468V332ZM492 326V327.5H493.5V326H492ZM473 326H471.5V327.5H473V326ZM492 323H493.5V321.5H492V323ZM473 323V321.5H471.5V323H473ZM497 326H495.5V327.5H497V326ZM516 326V327.5H517.5V326H516ZM497 323V321.5H495.5V323H497ZM516 323H517.5V321.5H516V323ZM-12 -34.5H552V-37.5H-12V-34.5ZM-10.5 536V-36H-13.5V536H-10.5ZM552 534.5H-12V537.5H552V534.5ZM550.5 -36V536H553.5V-36H550.5ZM21.5 59.25V19H18.5V59.25H21.5ZM31.5 57.75H20V60.75H31.5V57.75ZM30 47.75V59.25H33V47.75H30ZM54.5 46.25H31.5V49.25H54.5V46.25ZM53 42V47.75H56V42H53ZM60.25 40.5H54.5V43.5H60.25V40.5ZM58.75 24.75V42H61.75V24.75H58.75ZM54.5 26.25H60.25V23.25H54.5V26.25ZM53 19V24.75H56V19H53ZM20 20.5H54.5V17.5H20V20.5ZM31.5 43.5H48.75V40.5H31.5V43.5ZM30 24.75V42H33V24.75H30ZM48.75 23.25H31.5V26.25H48.75V23.25ZM50.25 42V24.75H47.25V42H50.25ZM77.85 59.25V53.5H74.85V59.25H77.85ZM110.85 57.75H76.35V60.75H110.85V57.75ZM109.35 53.5V59.25H112.35V53.5H109.35ZM99.35 55H110.85V52H99.35V55ZM97.85 24.75V53.5H100.85V24.75H97.85ZM110.85 23.25H99.35V26.25H110.85V23.25ZM109.35 19V24.75H112.35V19H109.35ZM76.35 20.5H110.85V17.5H76.35V20.5ZM77.85 24.75V19H74.85V24.75H77.85ZM87.85 23.25H76.35V26.25H87.85V23.25ZM89.35 53.5V24.75H86.35V53.5H89.35ZM76.35 55H87.85V52H76.35V55ZM121.2 49.25H126.95V46.25H121.2V49.25ZM122.7 59.25V47.75H119.7V59.25H122.7ZM132.7 57.75H121.2V60.75H132.7V57.75ZM131.2 47.75V59.25H134.2V47.75H131.2ZM138.45 46.25H132.7V49.25H138.45V46.25ZM136.95 42V47.75H139.95V42H136.95ZM144.2 40.5H138.45V43.5H144.2V40.5ZM145.7 47.75V42H142.7V47.75H145.7ZM149.95 46.25H144.2V49.25H149.95V46.25ZM151.45 59.25V47.75H148.45V59.25H151.45ZM161.45 57.75H149.95V60.75H161.45V57.75ZM159.95 47.75V59.25H162.95V47.75H159.95ZM155.7 49.25H161.45V46.25H155.7V49.25ZM154.2 42V47.75H157.2V42H154.2ZM149.95 43.5H155.7V40.5H149.95V43.5ZM148.45 36.25V42H151.45V36.25H148.45ZM155.7 34.75H149.95V37.75H155.7V34.75ZM154.2 30.5V36.25H157.2V30.5H154.2ZM161.45 29H155.7V32H161.45V29ZM159.95 19V30.5H162.95V19H159.95ZM149.95 20.5H161.45V17.5H149.95V20.5ZM151.45 30.5V19H148.45V30.5H151.45ZM144.2 32H149.95V29H144.2V32ZM145.7 36.25V30.5H142.7V36.25H145.7ZM138.45 37.75H144.2V34.75H138.45V37.75ZM136.95 30.5V36.25H139.95V30.5H136.95ZM132.7 32H138.45V29H132.7V32ZM131.2 19V30.5H134.2V19H131.2ZM121.2 20.5H132.7V17.5H121.2V20.5ZM122.7 30.5V19H119.7V30.5H122.7ZM126.95 29H121.2V32H126.95V29ZM128.45 36.25V30.5H125.45V36.25H128.45ZM132.7 34.75H126.95V37.75H132.7V34.75ZM134.2 42V36.25H131.2V42H134.2ZM126.95 43.5H132.7V40.5H126.95V43.5ZM128.45 47.75V42H125.45V47.75H128.45ZM173.3 59.25V19H170.3V59.25H173.3ZM212.05 57.75H171.8V60.75H212.05V57.75ZM210.55 53.5V59.25H213.55V53.5H210.55ZM183.3 55H212.05V52H183.3V55ZM181.8 42V53.5H184.8V42H181.8ZM206.3 40.5H183.3V43.5H206.3V40.5ZM204.8 36.25V42H207.8V36.25H204.8ZM183.3 37.75H206.3V34.75H183.3V37.75ZM181.8 24.75V36.25H184.8V24.75H181.8ZM212.05 23.25H183.3V26.25H212.05V23.25ZM210.55 19V24.75H213.55V19H210.55ZM171.8 20.5H212.05V17.5H171.8V20.5ZM229.65 59.25V19H226.65V59.25H229.65ZM262.65 57.75H228.15V60.75H262.65V57.75ZM261.15 53.5V59.25H264.15V53.5H261.15ZM239.65 55H262.65V52H239.65V55ZM238.15 19V53.5H241.15V19H238.15ZM228.15 20.5H239.65V17.5H228.15V20.5ZM28 219.5V224.25H31V219.5H28ZM24.75 221H29.5V218H24.75V221ZM23.25 214.75V219.5H26.25V214.75H23.25ZM20 216.25H24.75V213.25H20V216.25ZM18.5 200.5V214.75H21.5V200.5H18.5ZM24.75 199H20V202H24.75V199ZM23.25 195.75V200.5H26.25V195.75H23.25ZM29.5 194.25H24.75V197.25H29.5V194.25ZM28 195.75V214.75H31V195.75H28ZM29.5 216.25H34.25V213.25H29.5V216.25ZM32.75 214.75V219.5H35.75V214.75H32.75ZM34.25 221H43.75V218H34.25V221ZM45.25 224.25V219.5H42.25V224.25H45.25ZM29.5 225.75H43.75V222.75H29.5V225.75ZM43.75 221H48.5V218H43.75V221ZM50 219.5V214.75H47V219.5H50ZM48.5 216.25H53.25V213.25H48.5V216.25ZM54.75 214.75V200.5H51.75V214.75H54.75ZM53.25 199H48.5V202H53.25V199ZM50 200.5V195.75H47V200.5H50ZM48.5 194.25H43.75V197.25H48.5V194.25ZM45.25 195.75V191H42.25V195.75H45.25ZM43.75 189.5H29.5V192.5H43.75V189.5ZM28 191V195.75H31V191H28ZM39 194.25H29.5V197.25H39V194.25ZM40.5 200.5V195.75H37.5V200.5H40.5ZM43.75 199H39V202H43.75V199ZM45.25 219.5V200.5H42.25V219.5H45.25ZM65.81 219.5V224.25H68.81V219.5H65.81ZM76.81 218H67.31V221H76.81V218ZM75.31 200.5V219.5H78.31V200.5H75.31ZM72.06 202H76.81V199H72.06V202ZM70.56 195.75V200.5H73.56V195.75H70.56ZM76.81 194.25H72.06V197.25H76.81V194.25ZM75.31 191V195.75H78.31V191H75.31ZM86.31 189.5H76.81V192.5H86.31V189.5ZM87.81 219.5V191H84.81V219.5H87.81ZM95.81 218H86.31V221H95.81V218ZM97.31 224.25V219.5H94.31V224.25H97.31ZM67.31 225.75H95.81V222.75H67.31V225.75ZM113.12 219.5V224.25H116.12V219.5H113.12ZM109.87 221H114.62V218H109.87V221ZM108.37 214.75V219.5H111.37V214.75H108.37ZM105.12 216.25H109.87V213.25H105.12V216.25ZM103.62 200.5V214.75H106.62V200.5H103.62ZM109.87 199H105.12V202H109.87V199ZM108.37 195.75V200.5H111.37V195.75H108.37ZM114.62 194.25H109.87V197.25H114.62V194.25ZM113.12 195.75V214.75H116.12V195.75H113.12ZM114.62 216.25H119.37V213.25H114.62V216.25ZM117.87 214.75V219.5H120.87V214.75H117.87ZM119.37 221H128.87V218H119.37V221ZM130.37 224.25V219.5H127.37V224.25H130.37ZM114.62 225.75H128.87V222.75H114.62V225.75ZM128.87 221H133.62V218H128.87V221ZM135.12 219.5V214.75H132.12V219.5H135.12ZM133.62 216.25H138.37V213.25H133.62V216.25ZM139.87 214.75V200.5H136.87V214.75H139.87ZM138.37 199H133.62V202H138.37V199ZM135.12 200.5V195.75H132.12V200.5H135.12ZM133.62 194.25H128.87V197.25H133.62V194.25ZM130.37 195.75V191H127.37V195.75H130.37ZM128.87 189.5H114.62V192.5H128.87V189.5ZM113.12 191V195.75H116.12V191H113.12ZM124.12 194.25H114.62V197.25H124.12V194.25ZM125.62 200.5V195.75H122.62V200.5H125.62ZM128.87 199H124.12V202H128.87V199ZM130.37 219.5V200.5H127.37V219.5H130.37ZM150.93 219.5V224.25H153.93V219.5H150.93ZM161.93 218H152.43V221H161.93V218ZM160.43 200.5V219.5H163.43V200.5H160.43ZM157.18 202H161.93V199H157.18V202ZM155.68 195.75V200.5H158.68V195.75H155.68ZM161.93 194.25H157.18V197.25H161.93V194.25ZM160.43 191V195.75H163.43V191H160.43ZM171.43 189.5H161.93V192.5H171.43V189.5ZM172.93 219.5V191H169.93V219.5H172.93ZM180.93 218H171.43V221H180.93V218ZM182.43 224.25V219.5H179.43V224.25H182.43ZM152.43 225.75H180.93V222.75H152.43V225.75ZM193.49 219.5V224.25H196.49V219.5H193.49ZM204.49 218H194.99V221H204.49V218ZM202.99 200.5V219.5H205.99V200.5H202.99ZM199.74 202H204.49V199H199.74V202ZM198.24 195.75V200.5H201.24V195.75H198.24ZM204.49 194.25H199.74V197.25H204.49V194.25ZM202.99 191V195.75H205.99V191H202.99ZM213.99 189.5H204.49V192.5H213.99V189.5ZM215.49 219.5V191H212.49V219.5H215.49ZM223.49 218H213.99V221H223.49V218ZM224.99 224.25V219.5H221.99V224.25H224.99ZM194.99 225.75H223.49V222.75H194.99V225.75ZM236.05 219.5V224.25H239.05V219.5H236.05ZM247.05 218H237.55V221H247.05V218ZM245.55 200.5V219.5H248.55V200.5H245.55ZM242.3 202H247.05V199H242.3V202ZM240.8 195.75V200.5H243.8V195.75H240.8ZM247.05 194.25H242.3V197.25H247.05V194.25ZM245.55 191V195.75H248.55V191H245.55ZM256.55 189.5H247.05V192.5H256.55V189.5ZM258.05 219.5V191H255.05V219.5H258.05ZM266.05 218H256.55V221H266.05V218ZM267.55 224.25V219.5H264.55V224.25H267.55ZM237.55 225.75H266.05V222.75H237.55V225.75ZM283.36 219.5V224.25H286.36V219.5H283.36ZM280.11 221H284.86V218H280.11V221ZM278.61 214.75V219.5H281.61V214.75H278.61ZM275.36 216.25H280.11V213.25H275.36V216.25ZM273.86 200.5V214.75H276.86V200.5H273.86ZM280.11 199H275.36V202H280.11V199ZM278.61 195.75V200.5H281.61V195.75H278.61ZM284.86 194.25H280.11V197.25H284.86V194.25ZM283.36 195.75V214.75H286.36V195.75H283.36ZM284.86 216.25H289.61V213.25H284.86V216.25ZM288.11 214.75V219.5H291.11V214.75H288.11ZM289.61 221H299.11V218H289.61V221ZM300.61 224.25V219.5H297.61V224.25H300.61ZM284.86 225.75H299.11V222.75H284.86V225.75ZM299.11 221H303.86V218H299.11V221ZM305.36 219.5V214.75H302.36V219.5H305.36ZM303.86 216.25H308.61V213.25H303.86V216.25ZM310.11 214.75V200.5H307.11V214.75H310.11ZM308.61 199H303.86V202H308.61V199ZM305.36 200.5V195.75H302.36V200.5H305.36ZM303.86 194.25H299.11V197.25H303.86V194.25ZM300.61 195.75V191H297.61V195.75H300.61ZM299.11 189.5H284.86V192.5H299.11V189.5ZM283.36 191V195.75H286.36V191H283.36ZM294.36 194.25H284.86V197.25H294.36V194.25ZM295.86 200.5V195.75H292.86V200.5H295.86ZM299.11 199H294.36V202H299.11V199ZM300.61 219.5V200.5H297.61V219.5H300.61ZM321.17 219.5V224.25H324.17V219.5H321.17ZM332.17 218H322.67V221H332.17V218ZM330.67 200.5V219.5H333.67V200.5H330.67ZM327.42 202H332.17V199H327.42V202ZM325.92 195.75V200.5H328.92V195.75H325.92ZM332.17 194.25H327.42V197.25H332.17V194.25ZM330.67 191V195.75H333.67V191H330.67ZM341.67 189.5H332.17V192.5H341.67V189.5ZM343.17 219.5V191H340.17V219.5H343.17ZM351.17 218H341.67V221H351.17V218ZM352.67 224.25V219.5H349.67V224.25H352.67ZM322.67 225.75H351.17V222.75H322.67V225.75ZM368.48 219.5V224.25H371.48V219.5H368.48ZM365.23 221H369.98V218H365.23V221ZM363.73 214.75V219.5H366.73V214.75H363.73ZM360.48 216.25H365.23V213.25H360.48V216.25ZM358.98 200.5V214.75H361.98V200.5H358.98ZM365.23 199H360.48V202H365.23V199ZM363.73 195.75V200.5H366.73V195.75H363.73ZM369.98 194.25H365.23V197.25H369.98V194.25ZM368.48 195.75V214.75H371.48V195.75H368.48ZM369.98 216.25H374.73V213.25H369.98V216.25ZM373.23 214.75V219.5H376.23V214.75H373.23ZM374.73 221H384.23V218H374.73V221ZM385.73 224.25V219.5H382.73V224.25H385.73ZM369.98 225.75H384.23V222.75H369.98V225.75ZM384.23 221H388.98V218H384.23V221ZM390.48 219.5V214.75H387.48V219.5H390.48ZM388.98 216.25H393.73V213.25H388.98V216.25ZM395.23 214.75V200.5H392.23V214.75H395.23ZM393.73 199H388.98V202H393.73V199ZM390.48 200.5V195.75H387.48V200.5H390.48ZM388.98 194.25H384.23V197.25H388.98V194.25ZM385.73 195.75V191H382.73V195.75H385.73ZM384.23 189.5H369.98V192.5H384.23V189.5ZM368.48 191V195.75H371.48V191H368.48ZM379.48 194.25H369.98V197.25H379.48V194.25ZM380.98 200.5V195.75H377.98V200.5H380.98ZM384.23 199H379.48V202H384.23V199ZM385.73 219.5V200.5H382.73V219.5H385.73ZM406.29 219.5V224.25H409.29V219.5H406.29ZM417.29 218H407.79V221H417.29V218ZM415.79 200.5V219.5H418.79V200.5H415.79ZM412.54 202H417.29V199H412.54V202ZM411.04 195.75V200.5H414.04V195.75H411.04ZM417.29 194.25H412.54V197.25H417.29V194.25ZM415.79 191V195.75H418.79V191H415.79ZM426.79 189.5H417.29V192.5H426.79V189.5ZM428.29 219.5V191H425.29V219.5H428.29ZM436.29 218H426.79V221H436.29V218ZM437.79 224.25V219.5H434.79V224.25H437.79ZM407.79 225.75H436.29V222.75H407.79V225.75ZM448.85 219.5V224.25H451.85V219.5H448.85ZM459.85 218H450.35V221H459.85V218ZM458.35 200.5V219.5H461.35V200.5H458.35ZM455.1 202H459.85V199H455.1V202ZM453.6 195.75V200.5H456.6V195.75H453.6ZM459.85 194.25H455.1V197.25H459.85V194.25ZM458.35 191V195.75H461.35V191H458.35ZM469.35 189.5H459.85V192.5H469.35V189.5ZM470.85 219.5V191H467.85V219.5H470.85ZM478.85 218H469.35V221H478.85V218ZM480.35 224.25V219.5H477.35V224.25H480.35ZM450.35 225.75H478.85V222.75H450.35V225.75ZM496.16 219.5V224.25H499.16V219.5H496.16ZM492.91 221H497.66V218H492.91V221ZM491.41 214.75V219.5H494.41V214.75H491.41ZM488.16 216.25H492.91V213.25H488.16V216.25ZM486.66 200.5V214.75H489.66V200.5H486.66ZM492.91 199H488.16V202H492.91V199ZM491.41 195.75V200.5H494.41V195.75H491.41ZM497.66 194.25H492.91V197.25H497.66V194.25ZM496.16 195.75V214.75H499.16V195.75H496.16ZM497.66 216.25H502.41V213.25H497.66V216.25ZM500.91 214.75V219.5H503.91V214.75H500.91ZM502.41 221H511.91V218H502.41V221ZM513.41 224.25V219.5H510.41V224.25H513.41ZM497.66 225.75H511.91V222.75H497.66V225.75ZM511.91 221H516.66V218H511.91V221ZM518.16 219.5V214.75H515.16V219.5H518.16ZM516.66 216.25H521.41V213.25H516.66V216.25ZM522.91 214.75V200.5H519.91V214.75H522.91ZM521.41 199H516.66V202H521.41V199ZM518.16 200.5V195.75H515.16V200.5H518.16ZM516.66 194.25H511.91V197.25H516.66V194.25ZM513.41 195.75V191H510.41V195.75H513.41ZM511.91 189.5H497.66V192.5H511.91V189.5ZM496.16 191V195.75H499.16V191H496.16ZM507.16 194.25H497.66V197.25H507.16V194.25ZM508.66 200.5V195.75H505.66V200.5H508.66ZM511.91 199H507.16V202H511.91V199ZM513.41 219.5V200.5H510.41V219.5H513.41ZM21.5 308V238H18.5V308H21.5ZM80 306.5H20V309.5H80V306.5ZM78.5 298V308H81.5V298H78.5ZM90 296.5H80V299.5H90V296.5ZM88.5 278V298H91.5V278H88.5ZM80 279.5H90V276.5H80V279.5ZM78.5 268V278H81.5V268H78.5ZM90 266.5H80V269.5H90V266.5ZM88.5 248V268H91.5V248H88.5ZM80 249.5H90V246.5H80V249.5ZM78.5 238V248H81.5V238H78.5ZM20 239.5H80V236.5H20V239.5ZM40 269.5H70V266.5H40V269.5ZM38.5 248V268H41.5V248H38.5ZM70 246.5H40V249.5H70V246.5ZM71.5 268V248H68.5V268H71.5ZM40 299.5H70V296.5H40V299.5ZM38.5 278V298H41.5V278H38.5ZM70 276.5H40V279.5H70V276.5ZM71.5 298V278H68.5V298H71.5ZM109.1 308V298H106.1V308H109.1ZM167.6 306.5H107.6V309.5H167.6V306.5ZM166.1 298V308H169.1V298H166.1ZM147.6 299.5H167.6V296.5H147.6V299.5ZM146.1 248V298H149.1V248H146.1ZM167.6 246.5H147.6V249.5H167.6V246.5ZM166.1 238V248H169.1V238H166.1ZM107.6 239.5H167.6V236.5H107.6V239.5ZM109.1 248V238H106.1V248H109.1ZM127.6 246.5H107.6V249.5H127.6V246.5ZM129.1 298V248H126.1V298H129.1ZM107.6 299.5H127.6V296.5H107.6V299.5ZM205.2 246.5H185.2V249.5H205.2V246.5ZM206.7 308V248H203.7V308H206.7ZM225.2 306.5H205.2V309.5H225.2V306.5ZM223.7 248V308H226.7V248H223.7ZM245.2 246.5H225.2V249.5H245.2V246.5ZM243.7 238V248H246.7V238H243.7ZM185.2 239.5H245.2V236.5H185.2V239.5ZM186.7 248V238H183.7V248H186.7ZM264.3 308V298H261.3V308H264.3ZM312.8 306.5H262.8V309.5H312.8V306.5ZM311.3 298V308H314.3V298H311.3ZM322.8 296.5H312.8V299.5H322.8V296.5ZM321.3 278V298H324.3V278H321.3ZM312.8 279.5H322.8V276.5H312.8V279.5ZM311.3 268V278H314.3V268H311.3ZM272.8 269.5H312.8V266.5H272.8V269.5ZM271.3 248V268H274.3V248H271.3ZM302.8 246.5H272.8V249.5H302.8V246.5ZM304.3 258V248H301.3V258H304.3ZM322.8 256.5H302.8V259.5H322.8V256.5ZM321.3 248V258H324.3V248H321.3ZM312.8 249.5H322.8V246.5H312.8V249.5ZM311.3 238V248H314.3V238H311.3ZM262.8 239.5H312.8V236.5H262.8V239.5ZM264.3 248V238H261.3V248H264.3ZM252.8 249.5H262.8V246.5H252.8V249.5ZM254.3 268V248H251.3V268H254.3ZM262.8 266.5H252.8V269.5H262.8V266.5ZM264.3 278V268H261.3V278H264.3ZM302.8 276.5H262.8V279.5H302.8V276.5ZM304.3 298V278H301.3V298H304.3ZM272.8 299.5H302.8V296.5H272.8V299.5ZM271.3 288V298H274.3V288H271.3ZM252.8 289.5H272.8V286.5H252.8V289.5ZM254.3 298V288H251.3V298H254.3ZM262.8 296.5H252.8V299.5H262.8V296.5ZM396.5 249V309H399.5V249H396.5ZM378 250.5H398V247.5H378V250.5ZM376.5 239V249H379.5V239H376.5ZM438 237.5H378V240.5H438V237.5ZM439.5 249V239H436.5V249H439.5ZM418 250.5H438V247.5H418V250.5ZM419.5 309V249H416.5V309H419.5ZM398 310.5H418V307.5H398V310.5ZM454.1 299V309H457.1V299H454.1ZM445.6 300.5H455.6V297.5H445.6V300.5ZM444.1 249V299H447.1V249H444.1ZM455.6 247.5H445.6V250.5H455.6V247.5ZM454.1 239V249H457.1V239H454.1ZM505.6 237.5H455.6V240.5H505.6V237.5ZM507.1 249V239H504.1V249H507.1ZM515.6 247.5H505.6V250.5H515.6V247.5ZM517.1 299V249H514.1V299H517.1ZM505.6 300.5H515.6V297.5H505.6V300.5ZM507.1 309V299H504.1V309H507.1ZM455.6 310.5H505.6V307.5H455.6V310.5ZM495.6 297.5H465.6V300.5H495.6V297.5ZM494.1 249V299H497.1V249H494.1ZM465.6 250.5H495.6V247.5H465.6V250.5ZM467.1 299V249H464.1V299H467.1ZM21.5 181V76H18.5V181H21.5ZM50 179.5H20V182.5H50V179.5ZM48.5 136V181H51.5V136H48.5ZM110 134.5H50V137.5H110V134.5ZM108.5 121V136H111.5V121H108.5ZM50 122.5H110V119.5H50V122.5ZM48.5 91V121H51.5V91H48.5ZM125 89.5H50V92.5H125V89.5ZM123.5 76V91H126.5V76H123.5ZM20 77.5H125V74.5H20V77.5ZM153.5 181V76H150.5V181H153.5ZM182 179.5H152V182.5H182V179.5ZM180.5 151V181H183.5V151H180.5ZM197 149.5H182V152.5H197V149.5ZM198.5 166V151H195.5V166H198.5ZM212 164.5H197V167.5H212V164.5ZM213.5 181V166H210.5V181H213.5ZM257 179.5H212V182.5H257V179.5ZM255.5 166V181H258.5V166H255.5ZM242 167.5H257V164.5H242V167.5ZM240.5 151V166H243.5V151H240.5ZM227 152.5H242V149.5H227V152.5ZM225.5 136V151H228.5V136H225.5ZM257 134.5H227V137.5H257V134.5ZM255.5 91V136H258.5V91H255.5ZM242 92.5H257V89.5H242V92.5ZM240.5 76V91H243.5V76H240.5ZM152 77.5H242V74.5H152V77.5ZM182 137.5H212V134.5H182V137.5ZM180.5 91V136H183.5V91H180.5ZM227 89.5H182V92.5H227V89.5ZM228.5 121V91H225.5V121H228.5ZM212 122.5H227V119.5H212V122.5ZM213.5 136V121H210.5V136H213.5ZM300.5 181V166H297.5V181H300.5ZM374 179.5H299V182.5H374V179.5ZM372.5 166V181H375.5V166H372.5ZM389 164.5H374V167.5H389V164.5ZM387.5 91V166H390.5V91H387.5ZM374 92.5H389V89.5H374V92.5ZM372.5 76V91H375.5V76H372.5ZM299 77.5H374V74.5H299V77.5ZM300.5 91V76H297.5V91H300.5ZM284 92.5H299V89.5H284V92.5ZM285.5 166V91H282.5V166H285.5ZM299 164.5H284V167.5H299V164.5ZM314 167.5H359V164.5H314V167.5ZM312.5 91V166H315.5V91H312.5ZM359 89.5H314V92.5H359V89.5ZM360.5 166V91H357.5V166H360.5ZM417.5 181V76H414.5V181H417.5ZM446 179.5H416V182.5H446V179.5ZM444.5 121V181H447.5V121H444.5ZM461 119.5H446V122.5H461V119.5ZM462.5 151V121H459.5V151H462.5ZM476 149.5H461V152.5H476V149.5ZM474.5 121V151H477.5V121H474.5ZM491 119.5H476V122.5H491V119.5ZM492.5 181V121H489.5V181H492.5ZM521 179.5H491V182.5H521V179.5ZM519.5 76V181H522.5V76H519.5ZM491 77.5H521V74.5H491V77.5ZM492.5 91V76H489.5V91H492.5ZM476 92.5H491V89.5H476V92.5ZM477.5 106V91H474.5V106H477.5ZM461 107.5H476V104.5H461V107.5ZM459.5 91V106H462.5V91H459.5ZM446 92.5H461V89.5H446V92.5ZM444.5 76V91H447.5V76H444.5ZM416 77.5H446V74.5H416V77.5ZM16.5 386V482.25H19.5V386H16.5ZM100.5 384.5H18V387.5H100.5V384.5ZM102 399.75V386H99V399.75H102ZM114.25 398.25H100.5V401.25H114.25V398.25ZM115.75 427.25V399.75H112.75V427.25H115.75ZM100.5 428.75H114.25V425.75H100.5V428.75ZM102 441V427.25H99V441H102ZM114.25 439.5H100.5V442.5H114.25V439.5ZM115.75 468.5V441H112.75V468.5H115.75ZM100.5 470H114.25V467H100.5V470ZM102 482.25V468.5H99V482.25H102ZM18 483.75H100.5V480.75H18V483.75ZM86.75 425.75H45.5V428.75H86.75V425.75ZM85.25 399.75V427.25H88.25V399.75H85.25ZM45.5 401.25H86.75V398.25H45.5V401.25ZM47 427.25V399.75H44V427.25H47ZM86.75 467H45.5V470H86.75V467ZM85.25 441V468.5H88.25V441H85.25ZM45.5 442.5H86.75V439.5H45.5V442.5ZM47 468.5V441H44V468.5H47ZM118.8 386V482.25H121.8V386H118.8ZM216.55 384.5H120.3V387.5H216.55V384.5ZM218.05 399.75V386H215.05V399.75H218.05ZM147.8 401.25H216.55V398.25H147.8V401.25ZM149.3 427.25V399.75H146.3V427.25H149.3ZM202.8 425.75H147.8V428.75H202.8V425.75ZM204.3 441V427.25H201.3V441H204.3ZM147.8 442.5H202.8V439.5H147.8V442.5ZM149.3 468.5V441H146.3V468.5H149.3ZM216.55 467H147.8V470H216.55V467ZM218.05 482.25V468.5H215.05V482.25H218.05ZM120.3 483.75H216.55V480.75H120.3V483.75ZM221.1 413.5V482.25H224.1V413.5H221.1ZM236.35 412H222.6V415H236.35V412ZM234.85 399.75V413.5H237.85V399.75H234.85ZM250.1 398.25H236.35V401.25H250.1V398.25ZM248.6 386V399.75H251.6V386H248.6ZM291.35 384.5H250.1V387.5H291.35V384.5ZM292.85 399.75V386H289.85V399.75H292.85ZM305.1 398.25H291.35V401.25H305.1V398.25ZM306.6 413.5V399.75H303.6V413.5H306.6ZM318.85 412H305.1V415H318.85V412ZM320.35 482.25V413.5H317.35V482.25H320.35ZM291.35 483.75H318.85V480.75H291.35V483.75ZM289.85 454.75V482.25H292.85V454.75H289.85ZM250.1 456.25H291.35V453.25H250.1V456.25ZM251.6 482.25V454.75H248.6V482.25H251.6ZM222.6 483.75H250.1V480.75H222.6V483.75ZM291.35 439.5H250.1V442.5H291.35V439.5ZM289.85 413.5V441H292.85V413.5H289.85ZM277.6 415H291.35V412H277.6V415ZM276.1 399.75V413.5H279.1V399.75H276.1ZM263.85 401.25H277.6V398.25H263.85V401.25ZM265.35 413.5V399.75H262.35V413.5H265.35ZM250.1 415H263.85V412H250.1V415ZM251.6 441V413.5H248.6V441H251.6ZM338.65 401.25H366.15V398.25H338.65V401.25ZM337.15 386V399.75H340.15V386H337.15ZM421.15 384.5H338.65V387.5H421.15V384.5ZM422.65 399.75V386H419.65V399.75H422.65ZM393.65 401.25H421.15V398.25H393.65V401.25ZM395.15 482.25V399.75H392.15V482.25H395.15ZM366.15 483.75H393.65V480.75H366.15V483.75ZM364.65 399.75V482.25H367.65V399.75H364.65ZM439.45 468.5V482.25H442.45V468.5H439.45ZM427.2 470H440.95V467H427.2V470ZM425.7 454.75V468.5H428.7V454.75H425.7ZM454.7 453.25H427.2V456.25H454.7V453.25ZM456.2 468.5V454.75H453.2V468.5H456.2ZM495.95 467H454.7V470H495.95V467ZM494.45 441V468.5H497.45V441H494.45ZM440.95 442.5H495.95V439.5H440.95V442.5ZM439.45 427.25V441H442.45V427.25H439.45ZM427.2 428.75H440.95V425.75H427.2V428.75ZM425.7 399.75V427.25H428.7V399.75H425.7ZM440.95 398.25H427.2V401.25H440.95V398.25ZM439.45 386V399.75H442.45V386H439.45ZM509.7 384.5H440.95V387.5H509.7V384.5ZM511.2 399.75V386H508.2V399.75H511.2ZM523.45 398.25H509.7V401.25H523.45V398.25ZM524.95 413.5V399.75H521.95V413.5H524.95ZM495.95 415H523.45V412H495.95V415ZM494.45 399.75V413.5H497.45V399.75H494.45ZM454.7 401.25H495.95V398.25H454.7V401.25ZM456.2 427.25V399.75H453.2V427.25H456.2ZM509.7 425.75H454.7V428.75H509.7V425.75ZM511.2 441V427.25H508.2V441H511.2ZM523.45 439.5H509.7V442.5H523.45V439.5ZM524.95 468.5V441H521.95V468.5H524.95ZM509.7 470H523.45V467H509.7V470ZM511.2 482.25V468.5H508.2V482.25H511.2ZM440.95 483.75H509.7V480.75H440.95V483.75ZM289.5 59.25V19H286.5V59.25H289.5ZM299.5 57.75H288V60.75H299.5V57.75ZM298 47.75V59.25H301V47.75H298ZM322.5 46.25H299.5V49.25H322.5V46.25ZM321 42V47.75H324V42H321ZM328.25 40.5H322.5V43.5H328.25V40.5ZM326.75 24.75V42H329.75V24.75H326.75ZM322.5 26.25H328.25V23.25H322.5V26.25ZM321 19V24.75H324V19H321ZM288 20.5H322.5V17.5H288V20.5ZM299.5 43.5H316.75V40.5H299.5V43.5ZM298 24.75V42H301V24.75H298ZM316.75 23.25H299.5V26.25H316.75V23.25ZM318.25 42V24.75H315.25V42H318.25ZM340.1 59.25V19H337.1V59.25H340.1ZM378.85 57.75H338.6V60.75H378.85V57.75ZM377.35 53.5V59.25H380.35V53.5H377.35ZM350.1 55H378.85V52H350.1V55ZM348.6 42V53.5H351.6V42H348.6ZM373.1 40.5H350.1V43.5H373.1V40.5ZM371.6 36.25V42H374.6V36.25H371.6ZM350.1 37.75H373.1V34.75H350.1V37.75ZM348.6 24.75V36.25H351.6V24.75H348.6ZM378.85 23.25H350.1V26.25H378.85V23.25ZM377.35 19V24.75H380.35V19H377.35ZM338.6 20.5H378.85V17.5H338.6V20.5ZM390.7 59.25V30.5H387.7V59.25H390.7ZM400.7 57.75H389.2V60.75H400.7V57.75ZM399.2 47.75V59.25H402.2V47.75H399.2ZM417.95 46.25H400.7V49.25H417.95V46.25ZM419.45 59.25V47.75H416.45V59.25H419.45ZM429.45 57.75H417.95V60.75H429.45V57.75ZM427.95 30.5V59.25H430.95V30.5H427.95ZM423.7 32H429.45V29H423.7V32ZM422.2 24.75V30.5H425.2V24.75H422.2ZM417.95 26.25H423.7V23.25H417.95V26.25ZM416.45 19V24.75H419.45V19H416.45ZM400.7 20.5H417.95V17.5H400.7V20.5ZM402.2 24.75V19H399.2V24.75H402.2ZM394.95 26.25H400.7V23.25H394.95V26.25ZM396.45 30.5V24.75H393.45V30.5H396.45ZM389.2 32H394.95V29H389.2V32ZM400.7 43.5H417.95V40.5H400.7V43.5ZM399.2 30.5V42H402.2V30.5H399.2ZM406.45 29H400.7V32H406.45V29ZM404.95 24.75V30.5H407.95V24.75H404.95ZM412.2 23.25H406.45V26.25H412.2V23.25ZM413.7 30.5V24.75H410.7V30.5H413.7ZM417.95 29H412.2V32H417.95V29ZM419.45 42V30.5H416.45V42H419.45ZM441.3 59.25V19H438.3V59.25H441.3ZM451.3 57.75H439.8V60.75H451.3V57.75ZM449.8 47.75V59.25H452.8V47.75H449.8ZM457.05 46.25H451.3V49.25H457.05V46.25ZM458.55 53.5V47.75H455.55V53.5H458.55ZM462.8 52H457.05V55H462.8V52ZM464.3 59.25V53.5H461.3V59.25H464.3ZM480.05 57.75H462.8V60.75H480.05V57.75ZM478.55 53.5V59.25H481.55V53.5H478.55ZM474.3 55H480.05V52H474.3V55ZM472.8 47.75V53.5H475.8V47.75H472.8ZM468.55 49.25H474.3V46.25H468.55V49.25ZM467.05 42V47.75H470.05V42H467.05ZM462.8 43.5H468.55V40.5H462.8V43.5ZM461.3 36.25V42H464.3V36.25H461.3ZM468.55 34.75H462.8V37.75H468.55V34.75ZM467.05 30.5V36.25H470.05V30.5H467.05ZM474.3 29H468.55V32H474.3V29ZM472.8 24.75V30.5H475.8V24.75H472.8ZM480.05 23.25H474.3V26.25H480.05V23.25ZM478.55 19V24.75H481.55V19H478.55ZM468.55 20.5H480.05V17.5H468.55V20.5ZM470.05 24.75V19H467.05V24.75H470.05ZM462.8 26.25H468.55V23.25H462.8V26.25ZM464.3 30.5V24.75H461.3V30.5H464.3ZM457.05 32H462.8V29H457.05V32ZM458.55 36.25V30.5H455.55V36.25H458.55ZM451.3 37.75H457.05V34.75H451.3V37.75ZM449.8 19V36.25H452.8V19H449.8ZM439.8 20.5H451.3V17.5H439.8V20.5ZM501.9 26.25H513.4V23.25H501.9V26.25ZM503.4 36.25V24.75H500.4V36.25H503.4ZM513.4 34.75H501.9V37.75H513.4V34.75ZM511.9 24.75V36.25H514.9V24.75H511.9ZM501.9 43.5H513.4V40.5H501.9V43.5ZM503.4 53.5V42H500.4V53.5H503.4ZM513.4 52H501.9V55H513.4V52ZM511.9 42V53.5H514.9V42H511.9ZM36 330.5H17V333.5H36V330.5ZM37.5 374V332H34.5V374H37.5ZM17 375.5H36V372.5H17V375.5ZM15.5 332V374H18.5V332H15.5ZM41 340.5H60V337.5H41V340.5ZM42.5 374V339H39.5V374H42.5ZM60 372.5H41V375.5H60V372.5ZM58.5 339V374H61.5V339H58.5ZM84 337.5H65V340.5H84V337.5ZM85.5 374V339H82.5V374H85.5ZM65 375.5H84V372.5H65V375.5ZM63.5 339V374H66.5V339H63.5ZM89 352.5H108V349.5H89V352.5ZM90.5 374V351H87.5V374H90.5ZM108 372.5H89V375.5H108V372.5ZM106.5 351V374H109.5V351H106.5ZM132 326.5H113V329.5H132V326.5ZM133.5 374V328H130.5V374H133.5ZM113 375.5H132V372.5H113V375.5ZM111.5 328V374H114.5V328H111.5ZM137 333.5H156V330.5H137V333.5ZM138.5 374V332H135.5V374H138.5ZM156 372.5H137V375.5H156V372.5ZM154.5 332V374H157.5V332H154.5ZM180 329.5H161V332.5H180V329.5ZM181.5 374V331H178.5V374H181.5ZM161 375.5H180V372.5H161V375.5ZM159.5 331V374H162.5V331H159.5ZM185 357.5H204V354.5H185V357.5ZM186.5 374V356H183.5V374H186.5ZM204 372.5H185V375.5H204V372.5ZM202.5 356V374H205.5V356H202.5ZM228 341.5H209V344.5H228V341.5ZM229.5 374V343H226.5V374H229.5ZM209 375.5H228V372.5H209V375.5ZM207.5 343V374H210.5V343H207.5ZM233 336.5H252V333.5H233V336.5ZM234.5 374V335H231.5V374H234.5ZM252 372.5H233V375.5H252V372.5ZM250.5 335V374H253.5V335H250.5ZM276 340.5H257V343.5H276V340.5ZM277.5 374V342H274.5V374H277.5ZM257 375.5H276V372.5H257V375.5ZM255.5 342V374H258.5V342H255.5ZM281 344.5H300V341.5H281V344.5ZM282.5 374V343H279.5V374H282.5ZM300 372.5H281V375.5H300V372.5ZM298.5 343V374H301.5V343H298.5ZM324 345.5H305V348.5H324V345.5ZM325.5 374V347H322.5V374H325.5ZM305 375.5H324V372.5H305V375.5ZM303.5 347V374H306.5V347H303.5ZM329 336.5H348V333.5H329V336.5ZM330.5 374V335H327.5V374H330.5ZM348 372.5H329V375.5H348V372.5ZM346.5 335V374H349.5V335H346.5ZM372 341.5H353V344.5H372V341.5ZM373.5 374V343H370.5V374H373.5ZM353 375.5H372V372.5H353V375.5ZM351.5 343V374H354.5V343H351.5ZM377 333.5H396V330.5H377V333.5ZM378.5 374V332H375.5V374H378.5ZM396 372.5H377V375.5H396V372.5ZM394.5 332V374H397.5V332H394.5ZM420 337.5H401V340.5H420V337.5ZM421.5 374V339H418.5V374H421.5ZM401 375.5H420V372.5H401V375.5ZM399.5 339V374H402.5V339H399.5ZM425 329.5H444V326.5H425V329.5ZM426.5 374V328H423.5V374H426.5ZM444 372.5H425V375.5H444V372.5ZM442.5 328V374H445.5V328H442.5ZM468 337.5H449V340.5H468V337.5ZM469.5 374V339H466.5V374H469.5ZM449 375.5H468V372.5H449V375.5ZM447.5 339V374H450.5V339H447.5ZM473 333.5H492V330.5H473V333.5ZM474.5 374V332H471.5V374H474.5ZM492 372.5H473V375.5H492V372.5ZM490.5 332V374H493.5V332H490.5ZM516 330.5H497V333.5H516V330.5ZM517.5 374V332H514.5V374H517.5ZM497 375.5H516V372.5H497V375.5ZM495.5 332V374H498.5V332H495.5ZM17 328.5H36V325.5H17V328.5ZM15.5 323V327H18.5V323H15.5ZM36 321.5H17V324.5H36V321.5ZM37.5 327V323H34.5V327H37.5ZM60 333.5H41V336.5H60V333.5ZM58.5 332V335H61.5V332H58.5ZM41 333.5H60V330.5H41V333.5ZM42.5 335V332H39.5V335H42.5ZM65 336.5H84V333.5H65V336.5ZM63.5 332V335H66.5V332H63.5ZM84 330.5H65V333.5H84V330.5ZM85.5 335V332H82.5V335H85.5ZM108 346.5H89V349.5H108V346.5ZM106.5 346V348H109.5V346H106.5ZM89 347.5H108V344.5H89V347.5ZM90.5 348V346H87.5V348H90.5ZM113 323.5H132V320.5H113V323.5ZM111.5 318V322H114.5V318H111.5ZM132 316.5H113V319.5H132V316.5ZM133.5 322V318H130.5V322H133.5ZM156 324.5H137V327.5H156V324.5ZM154.5 323V326H157.5V323H154.5ZM137 324.5H156V321.5H137V324.5ZM138.5 326V323H135.5V326H138.5ZM161 326.5H180V323.5H161V326.5ZM159.5 322V325H162.5V322H159.5ZM180 320.5H161V323.5H180V320.5ZM181.5 325V322H178.5V325H181.5ZM204 351.5H185V354.5H204V351.5ZM202.5 351V353H205.5V351H202.5ZM185 352.5H204V349.5H185V352.5ZM186.5 353V351H183.5V353H186.5ZM209 341.5H228V338.5H209V341.5ZM207.5 337V340H210.5V337H207.5ZM228 335.5H209V338.5H228V335.5ZM229.5 340V337H226.5V340H229.5ZM252 328.5H233V331.5H252V328.5ZM250.5 327V330H253.5V327H250.5ZM233 328.5H252V325.5H233V328.5ZM234.5 330V327H231.5V330H234.5ZM257 338.5H276V335.5H257V338.5ZM255.5 335V337H258.5V335H255.5ZM276 333.5H257V336.5H276V333.5ZM277.5 337V335H274.5V337H277.5ZM300 337.5H281V340.5H300V337.5ZM298.5 337V339H301.5V337H298.5ZM281 338.5H300V335.5H281V338.5ZM282.5 339V337H279.5V339H282.5ZM305 345.5H324V342.5H305V345.5ZM303.5 342V344H306.5V342H303.5ZM324 340.5H305V343.5H324V340.5ZM325.5 344V342H322.5V344H325.5ZM348 328.5H329V331.5H348V328.5ZM346.5 327V330H349.5V327H346.5ZM329 328.5H348V325.5H329V328.5ZM330.5 330V327H327.5V330H330.5ZM353 340.5H372V337.5H353V340.5ZM351.5 337V339H354.5V337H351.5ZM372 335.5H353V338.5H372V335.5ZM373.5 339V337H370.5V339H373.5ZM396 324.5H377V327.5H396V324.5ZM394.5 323V326H397.5V323H394.5ZM377 324.5H396V321.5H377V324.5ZM378.5 326V323H375.5V326H378.5ZM401 336.5H420V333.5H401V336.5ZM399.5 332V335H402.5V332H399.5ZM420 330.5H401V333.5H420V330.5ZM421.5 335V332H418.5V335H421.5ZM444 321.5H425V324.5H444V321.5ZM442.5 319V323H445.5V319H442.5ZM425 320.5H444V317.5H425V320.5ZM426.5 323V319H423.5V323H426.5ZM449 336.5H468V333.5H449V336.5ZM447.5 332V335H450.5V332H447.5ZM468 330.5H449V333.5H468V330.5ZM469.5 335V332H466.5V335H469.5ZM492 324.5H473V327.5H492V324.5ZM490.5 323V326H493.5V323H490.5ZM473 324.5H492V321.5H473V324.5ZM474.5 326V323H471.5V326H474.5ZM497 327.5H516V324.5H497V327.5ZM495.5 323V326H498.5V323H495.5ZM516 321.5H497V324.5H516V321.5ZM517.5 326V323H514.5V326H517.5Z" fill="#F3E8BB" mask="url(#path-3-inside-1_1822_77)"/>
</g>
<rect x="0.5" y="0.5" width="542" height="508" stroke="black"/>
<defs>
<clipPath id="clip0_1822_77">
<rect width="543" height="509" fill="white"/>
</clipPath>
</defs>
</svg>
