<svg width="649" height="682" viewBox="0 0 649 682" fill="none" xmlns="http://www.w3.org/2000/svg">
<g clip-path="url(#clip0_253_2)">
<rect width="649" height="682" fill="black"/>
<mask id="path-3-outside-1_253_2" maskUnits="userSpaceOnUse" x="71" y="117" width="245" height="43" fill="black">
<rect fill="white" x="71" y="117" width="245" height="43"/>
<path d="M72 158.25V118H106.5V123.75H112.25V141H106.5V146.75H83.5V158.25H72ZM83.5 141H100.75V123.75H83.5V141ZM128.35 158.25V152.5H139.85V123.75H128.35V118H162.85V123.75H151.35V152.5H162.85V158.25H128.35ZM173.2 158.25V146.75H178.95V141H184.7V135.25H178.95V129.5H173.2V118H184.7V129.5H190.45V135.25H196.2V129.5H201.95V118H213.45V129.5H207.7V135.25H201.95V141H207.7V146.75H213.45V158.25H201.95V146.75H196.2V141H190.45V146.75H184.7V158.25H173.2ZM223.8 158.25V118H264.05V123.75H235.3V135.25H258.3V141H235.3V152.5H264.05V158.25H223.8ZM280.15 158.25V118H291.65V152.5H314.65V158.25H280.15Z"/>
</mask>
<path d="M72 158.25H71V159.25H72V158.25ZM72 118V117H71V118H72ZM106.5 118H107.5V117H106.5V118ZM106.5 123.75H105.5V124.75H106.5V123.75ZM112.25 123.75H113.25V122.75H112.25V123.75ZM112.25 141V142H113.25V141H112.25ZM106.5 141V140H105.5V141H106.5ZM106.5 146.75V147.75H107.5V146.75H106.5ZM83.5 146.75V145.75H82.5V146.75H83.5ZM83.5 158.25V159.25H84.5V158.25H83.5ZM83.5 141H82.5V142H83.5V141ZM100.75 141V142H101.75V141H100.75ZM100.75 123.75H101.75V122.75H100.75V123.75ZM83.5 123.75V122.75H82.5V123.75H83.5ZM73 158.25V118H71V158.25H73ZM72 119H106.5V117H72V119ZM105.5 118V123.75H107.5V118H105.5ZM106.5 124.75H112.25V122.75H106.5V124.75ZM111.25 123.75V141H113.25V123.75H111.25ZM112.25 140H106.5V142H112.25V140ZM105.5 141V146.75H107.5V141H105.5ZM106.5 145.75H83.5V147.75H106.5V145.75ZM82.5 146.75V158.25H84.5V146.75H82.5ZM83.5 157.25H72V159.25H83.5V157.25ZM83.5 142H100.75V140H83.5V142ZM101.75 141V123.75H99.75V141H101.75ZM100.75 122.75H83.5V124.75H100.75V122.75ZM82.5 123.75V141H84.5V123.75H82.5ZM128.35 158.25H127.35V159.25H128.35V158.25ZM128.35 152.5V151.5H127.35V152.5H128.35ZM139.85 152.5V153.5H140.85V152.5H139.85ZM139.85 123.75H140.85V122.75H139.85V123.75ZM128.35 123.75H127.35V124.75H128.35V123.75ZM128.35 118V117H127.35V118H128.35ZM162.85 118H163.85V117H162.85V118ZM162.85 123.75V124.75H163.85V123.75H162.85ZM151.35 123.75V122.75H150.35V123.75H151.35ZM151.35 152.5H150.35V153.5H151.35V152.5ZM162.85 152.5H163.85V151.5H162.85V152.5ZM162.85 158.25V159.25H163.85V158.25H162.85ZM129.35 158.25V152.5H127.35V158.25H129.35ZM128.35 153.5H139.85V151.5H128.35V153.5ZM140.85 152.5V123.75H138.85V152.5H140.85ZM139.85 122.75H128.35V124.75H139.85V122.75ZM129.35 123.75V118H127.35V123.75H129.35ZM128.35 119H162.85V117H128.35V119ZM161.85 118V123.75H163.85V118H161.85ZM162.85 122.75H151.35V124.75H162.85V122.75ZM150.35 123.75V152.5H152.35V123.75H150.35ZM151.35 153.5H162.85V151.5H151.35V153.5ZM161.85 152.5V158.25H163.85V152.5H161.85ZM162.85 157.25H128.35V159.25H162.85V157.25ZM173.2 158.25H172.2V159.25H173.2V158.25ZM173.2 146.75V145.75H172.2V146.75H173.2ZM178.95 146.75V147.75H179.95V146.75H178.95ZM178.95 141V140H177.95V141H178.95ZM184.7 141V142H185.7V141H184.7ZM184.7 135.25H185.7V134.25H184.7V135.25ZM178.95 135.25H177.95V136.25H178.95V135.25ZM178.95 129.5H179.95V128.5H178.95V129.5ZM173.2 129.5H172.2V130.5H173.2V129.5ZM173.2 118V117H172.2V118H173.2ZM184.7 118H185.7V117H184.7V118ZM184.7 129.5H183.7V130.5H184.7V129.5ZM190.45 129.5H191.45V128.5H190.45V129.5ZM190.45 135.25H189.45V136.25H190.45V135.25ZM196.2 135.25V136.25H197.2V135.25H196.2ZM196.2 129.5V128.5H195.2V129.5H196.2ZM201.95 129.5V130.5H202.95V129.5H201.95ZM201.95 118V117H200.95V118H201.95ZM213.45 118H214.45V117H213.45V118ZM213.45 129.5V130.5H214.45V129.5H213.45ZM207.7 129.5V128.5H206.7V129.5H207.7ZM207.7 135.25V136.25H208.7V135.25H207.7ZM201.95 135.25V134.25H200.95V135.25H201.95ZM201.95 141H200.95V142H201.95V141ZM207.7 141H208.7V140H207.7V141ZM207.7 146.75H206.7V147.75H207.7V146.75ZM213.45 146.75H214.45V145.75H213.45V146.75ZM213.45 158.25V159.25H214.45V158.25H213.45ZM201.95 158.25H200.95V159.25H201.95V158.25ZM201.95 146.75H202.95V145.75H201.95V146.75ZM196.2 146.75H195.2V147.75H196.2V146.75ZM196.2 141H197.2V140H196.2V141ZM190.45 141V140H189.45V141H190.45ZM190.45 146.75V147.75H191.45V146.75H190.45ZM184.7 146.75V145.75H183.7V146.75H184.7ZM184.7 158.25V159.25H185.7V158.25H184.7ZM174.2 158.25V146.75H172.2V158.25H174.2ZM173.2 147.75H178.95V145.75H173.2V147.75ZM179.95 146.75V141H177.95V146.75H179.95ZM178.95 142H184.7V140H178.95V142ZM185.7 141V135.25H183.7V141H185.7ZM184.7 134.25H178.95V136.25H184.7V134.25ZM179.95 135.25V129.5H177.95V135.25H179.95ZM178.95 128.5H173.2V130.5H178.95V128.5ZM174.2 129.5V118H172.2V129.5H174.2ZM173.2 119H184.7V117H173.2V119ZM183.7 118V129.5H185.7V118H183.7ZM184.7 130.5H190.45V128.5H184.7V130.5ZM189.45 129.5V135.25H191.45V129.5H189.45ZM190.45 136.25H196.2V134.25H190.45V136.25ZM197.2 135.25V129.5H195.2V135.25H197.2ZM196.2 130.5H201.95V128.5H196.2V130.5ZM202.95 129.5V118H200.95V129.5H202.95ZM201.95 119H213.45V117H201.95V119ZM212.45 118V129.5H214.45V118H212.45ZM213.45 128.5H207.7V130.5H213.45V128.5ZM206.7 129.5V135.25H208.7V129.5H206.7ZM207.7 134.25H201.95V136.25H207.7V134.25ZM200.95 135.25V141H202.95V135.25H200.95ZM201.95 142H207.7V140H201.95V142ZM206.7 141V146.75H208.7V141H206.7ZM207.7 147.75H213.45V145.75H207.7V147.75ZM212.45 146.75V158.25H214.45V146.75H212.45ZM213.45 157.25H201.95V159.25H213.45V157.25ZM202.95 158.25V146.75H200.95V158.25H202.95ZM201.95 145.75H196.2V147.75H201.95V145.75ZM197.2 146.75V141H195.2V146.75H197.2ZM196.2 140H190.45V142H196.2V140ZM189.45 141V146.75H191.45V141H189.45ZM190.45 145.75H184.7V147.75H190.45V145.75ZM183.7 146.75V158.25H185.7V146.75H183.7ZM184.7 157.25H173.2V159.25H184.7V157.25ZM223.8 158.25H222.8V159.25H223.8V158.25ZM223.8 118V117H222.8V118H223.8ZM264.05 118H265.05V117H264.05V118ZM264.05 123.75V124.75H265.05V123.75H264.05ZM235.3 123.75V122.75H234.3V123.75H235.3ZM235.3 135.25H234.3V136.25H235.3V135.25ZM258.3 135.25H259.3V134.25H258.3V135.25ZM258.3 141V142H259.3V141H258.3ZM235.3 141V140H234.3V141H235.3ZM235.3 152.5H234.3V153.5H235.3V152.5ZM264.05 152.5H265.05V151.5H264.05V152.5ZM264.05 158.25V159.25H265.05V158.25H264.05ZM224.8 158.25V118H222.8V158.25H224.8ZM223.8 119H264.05V117H223.8V119ZM263.05 118V123.75H265.05V118H263.05ZM264.05 122.75H235.3V124.75H264.05V122.75ZM234.3 123.75V135.25H236.3V123.75H234.3ZM235.3 136.25H258.3V134.25H235.3V136.25ZM257.3 135.25V141H259.3V135.25H257.3ZM258.3 140H235.3V142H258.3V140ZM234.3 141V152.5H236.3V141H234.3ZM235.3 153.5H264.05V151.5H235.3V153.5ZM263.05 152.5V158.25H265.05V152.5H263.05ZM264.05 157.25H223.8V159.25H264.05V157.25ZM280.15 158.25H279.15V159.25H280.15V158.25ZM280.15 118V117H279.15V118H280.15ZM291.65 118H292.65V117H291.65V118ZM291.65 152.5H290.65V153.5H291.65V152.5ZM314.65 152.5H315.65V151.5H314.65V152.5ZM314.65 158.25V159.25H315.65V158.25H314.65ZM281.15 158.25V118H279.15V158.25H281.15ZM280.15 119H291.65V117H280.15V119ZM290.65 118V152.5H292.65V118H290.65ZM291.65 153.5H314.65V151.5H291.65V153.5ZM313.65 152.5V158.25H315.65V152.5H313.65ZM314.65 157.25H280.15V159.25H314.65V157.25Z" fill="#FBF0C2" mask="url(#path-3-outside-1_253_2)"/>
<mask id="path-5-outside-2_253_2" maskUnits="userSpaceOnUse" x="71" y="289" width="504" height="36" fill="black">
<rect fill="white" x="71" y="289" width="504" height="36"/>
<path d="M81.5 323.25V318.5H76.75V313.75H72V299.5H76.75V294.75H81.5V290H95.75V294.75H100.5V299.5H105.25V313.75H100.5V318.5H95.75V323.25H81.5ZM86.25 318.5H95.75V299.5H91V294.75H81.5V313.75H86.25V318.5ZM119.31 323.25V318.5H128.81V299.5H124.06V294.75H128.81V290H138.31V318.5H147.81V323.25H119.31ZM166.62 323.25V318.5H161.87V313.75H157.12V299.5H161.87V294.75H166.62V290H180.87V294.75H185.62V299.5H190.37V313.75H185.62V318.5H180.87V323.25H166.62ZM171.37 318.5H180.87V299.5H176.12V294.75H166.62V313.75H171.37V318.5ZM204.43 323.25V318.5H213.93V299.5H209.18V294.75H213.93V290H223.43V318.5H232.93V323.25H204.43ZM246.99 323.25V318.5H256.49V299.5H251.74V294.75H256.49V290H265.99V318.5H275.49V323.25H246.99ZM289.55 323.25V318.5H299.05V299.5H294.3V294.75H299.05V290H308.55V318.5H318.05V323.25H289.55ZM336.86 323.25V318.5H332.11V313.75H327.36V299.5H332.11V294.75H336.86V290H351.11V294.75H355.86V299.5H360.61V313.75H355.86V318.5H351.11V323.25H336.86ZM341.61 318.5H351.11V299.5H346.36V294.75H336.86V313.75H341.61V318.5ZM374.67 323.25V318.5H384.17V299.5H379.42V294.75H384.17V290H393.67V318.5H403.17V323.25H374.67ZM421.98 323.25V318.5H417.23V313.75H412.48V299.5H417.23V294.75H421.98V290H436.23V294.75H440.98V299.5H445.73V313.75H440.98V318.5H436.23V323.25H421.98ZM426.73 318.5H436.23V299.5H431.48V294.75H421.98V313.75H426.73V318.5ZM459.79 323.25V318.5H469.29V299.5H464.54V294.75H469.29V290H478.79V318.5H488.29V323.25H459.79ZM502.35 323.25V318.5H511.85V299.5H507.1V294.75H511.85V290H521.35V318.5H530.85V323.25H502.35ZM549.66 323.25V318.5H544.91V313.75H540.16V299.5H544.91V294.75H549.66V290H563.91V294.75H568.66V299.5H573.41V313.75H568.66V318.5H563.91V323.25H549.66ZM554.41 318.5H563.91V299.5H559.16V294.75H549.66V313.75H554.41V318.5Z"/>
</mask>
<path d="M81.5 323.25H80.5V324.25H81.5V323.25ZM81.5 318.5H82.5V317.5H81.5V318.5ZM76.75 318.5H75.75V319.5H76.75V318.5ZM76.75 313.75H77.75V312.75H76.75V313.75ZM72 313.75H71V314.75H72V313.75ZM72 299.5V298.5H71V299.5H72ZM76.75 299.5V300.5H77.75V299.5H76.75ZM76.75 294.75V293.75H75.75V294.75H76.75ZM81.5 294.75V295.75H82.5V294.75H81.5ZM81.5 290V289H80.5V290H81.5ZM95.75 290H96.75V289H95.75V290ZM95.75 294.75H94.75V295.75H95.75V294.75ZM100.5 294.75H101.5V293.75H100.5V294.75ZM100.5 299.5H99.5V300.5H100.5V299.5ZM105.25 299.5H106.25V298.5H105.25V299.5ZM105.25 313.75V314.75H106.25V313.75H105.25ZM100.5 313.75V312.75H99.5V313.75H100.5ZM100.5 318.5V319.5H101.5V318.5H100.5ZM95.75 318.5V317.5H94.75V318.5H95.75ZM95.75 323.25V324.25H96.75V323.25H95.75ZM86.25 318.5H85.25V319.5H86.25V318.5ZM95.75 318.5V319.5H96.75V318.5H95.75ZM95.75 299.5H96.75V298.5H95.75V299.5ZM91 299.5H90V300.5H91V299.5ZM91 294.75H92V293.75H91V294.75ZM81.5 294.75V293.75H80.5V294.75H81.5ZM81.5 313.75H80.5V314.75H81.5V313.75ZM86.25 313.75H87.25V312.75H86.25V313.75ZM82.5 323.25V318.5H80.5V323.25H82.5ZM81.5 317.5H76.75V319.5H81.5V317.5ZM77.75 318.5V313.75H75.75V318.5H77.75ZM76.75 312.75H72V314.75H76.75V312.75ZM73 313.75V299.5H71V313.75H73ZM72 300.5H76.75V298.5H72V300.5ZM77.75 299.5V294.75H75.75V299.5H77.75ZM76.75 295.75H81.5V293.75H76.75V295.75ZM82.5 294.75V290H80.5V294.75H82.5ZM81.5 291H95.75V289H81.5V291ZM94.75 290V294.75H96.75V290H94.75ZM95.75 295.75H100.5V293.75H95.75V295.75ZM99.5 294.75V299.5H101.5V294.75H99.5ZM100.5 300.5H105.25V298.5H100.5V300.5ZM104.25 299.5V313.75H106.25V299.5H104.25ZM105.25 312.75H100.5V314.75H105.25V312.75ZM99.5 313.75V318.5H101.5V313.75H99.5ZM100.5 317.5H95.75V319.5H100.5V317.5ZM94.75 318.5V323.25H96.75V318.5H94.75ZM95.75 322.25H81.5V324.25H95.75V322.25ZM86.25 319.5H95.75V317.5H86.25V319.5ZM96.75 318.5V299.5H94.75V318.5H96.75ZM95.75 298.5H91V300.5H95.75V298.5ZM92 299.5V294.75H90V299.5H92ZM91 293.75H81.5V295.75H91V293.75ZM80.5 294.75V313.75H82.5V294.75H80.5ZM81.5 314.75H86.25V312.75H81.5V314.75ZM85.25 313.75V318.5H87.25V313.75H85.25ZM119.31 323.25H118.31V324.25H119.31V323.25ZM119.31 318.5V317.5H118.31V318.5H119.31ZM128.81 318.5V319.5H129.81V318.5H128.81ZM128.81 299.5H129.81V298.5H128.81V299.5ZM124.06 299.5H123.06V300.5H124.06V299.5ZM124.06 294.75V293.75H123.06V294.75H124.06ZM128.81 294.75V295.75H129.81V294.75H128.81ZM128.81 290V289H127.81V290H128.81ZM138.31 290H139.31V289H138.31V290ZM138.31 318.5H137.31V319.5H138.31V318.5ZM147.81 318.5H148.81V317.5H147.81V318.5ZM147.81 323.25V324.25H148.81V323.25H147.81ZM120.31 323.25V318.5H118.31V323.25H120.31ZM119.31 319.5H128.81V317.5H119.31V319.5ZM129.81 318.5V299.5H127.81V318.5H129.81ZM128.81 298.5H124.06V300.5H128.81V298.5ZM125.06 299.5V294.75H123.06V299.5H125.06ZM124.06 295.75H128.81V293.75H124.06V295.75ZM129.81 294.75V290H127.81V294.75H129.81ZM128.81 291H138.31V289H128.81V291ZM137.31 290V318.5H139.31V290H137.31ZM138.31 319.5H147.81V317.5H138.31V319.5ZM146.81 318.5V323.25H148.81V318.5H146.81ZM147.81 322.25H119.31V324.25H147.81V322.25ZM166.62 323.25H165.62V324.25H166.62V323.25ZM166.62 318.5H167.62V317.5H166.62V318.5ZM161.87 318.5H160.87V319.5H161.87V318.5ZM161.87 313.75H162.87V312.75H161.87V313.75ZM157.12 313.75H156.12V314.75H157.12V313.75ZM157.12 299.5V298.5H156.12V299.5H157.12ZM161.87 299.5V300.5H162.87V299.5H161.87ZM161.87 294.75V293.75H160.87V294.75H161.87ZM166.62 294.75V295.75H167.62V294.75H166.62ZM166.62 290V289H165.62V290H166.62ZM180.87 290H181.87V289H180.87V290ZM180.87 294.75H179.87V295.75H180.87V294.75ZM185.62 294.75H186.62V293.75H185.62V294.75ZM185.62 299.5H184.62V300.5H185.62V299.5ZM190.37 299.5H191.37V298.5H190.37V299.5ZM190.37 313.75V314.75H191.37V313.75H190.37ZM185.62 313.75V312.75H184.62V313.75H185.62ZM185.62 318.5V319.5H186.62V318.5H185.62ZM180.87 318.5V317.5H179.87V318.5H180.87ZM180.87 323.25V324.25H181.87V323.25H180.87ZM171.37 318.5H170.37V319.5H171.37V318.5ZM180.87 318.5V319.5H181.87V318.5H180.87ZM180.87 299.5H181.87V298.5H180.87V299.5ZM176.12 299.5H175.12V300.5H176.12V299.5ZM176.12 294.75H177.12V293.75H176.12V294.75ZM166.62 294.75V293.75H165.62V294.75H166.62ZM166.62 313.75H165.62V314.75H166.62V313.75ZM171.37 313.75H172.37V312.75H171.37V313.75ZM167.62 323.25V318.5H165.62V323.25H167.62ZM166.62 317.5H161.87V319.5H166.62V317.5ZM162.87 318.5V313.75H160.87V318.5H162.87ZM161.87 312.75H157.12V314.75H161.87V312.75ZM158.12 313.75V299.5H156.12V313.75H158.12ZM157.12 300.5H161.87V298.5H157.12V300.5ZM162.87 299.5V294.75H160.87V299.5H162.87ZM161.87 295.75H166.62V293.75H161.87V295.75ZM167.62 294.75V290H165.62V294.75H167.62ZM166.62 291H180.87V289H166.62V291ZM179.87 290V294.75H181.87V290H179.87ZM180.87 295.75H185.62V293.75H180.87V295.75ZM184.62 294.75V299.5H186.62V294.75H184.62ZM185.62 300.5H190.37V298.5H185.62V300.5ZM189.37 299.5V313.75H191.37V299.5H189.37ZM190.37 312.75H185.62V314.75H190.37V312.75ZM184.62 313.75V318.5H186.62V313.75H184.62ZM185.62 317.5H180.87V319.5H185.62V317.5ZM179.87 318.5V323.25H181.87V318.5H179.87ZM180.87 322.25H166.62V324.25H180.87V322.25ZM171.37 319.5H180.87V317.5H171.37V319.5ZM181.87 318.5V299.5H179.87V318.5H181.87ZM180.87 298.5H176.12V300.5H180.87V298.5ZM177.12 299.5V294.75H175.12V299.5H177.12ZM176.12 293.75H166.62V295.75H176.12V293.75ZM165.62 294.75V313.75H167.62V294.75H165.62ZM166.62 314.75H171.37V312.75H166.62V314.75ZM170.37 313.75V318.5H172.37V313.75H170.37ZM204.43 323.25H203.43V324.25H204.43V323.25ZM204.43 318.5V317.5H203.43V318.5H204.43ZM213.93 318.5V319.5H214.93V318.5H213.93ZM213.93 299.5H214.93V298.5H213.93V299.5ZM209.18 299.5H208.18V300.5H209.18V299.5ZM209.18 294.75V293.75H208.18V294.75H209.18ZM213.93 294.75V295.75H214.93V294.75H213.93ZM213.93 290V289H212.93V290H213.93ZM223.43 290H224.43V289H223.43V290ZM223.43 318.5H222.43V319.5H223.43V318.5ZM232.93 318.5H233.93V317.5H232.93V318.5ZM232.93 323.25V324.25H233.93V323.25H232.93ZM205.43 323.25V318.5H203.43V323.25H205.43ZM204.43 319.5H213.93V317.5H204.43V319.5ZM214.93 318.5V299.5H212.93V318.5H214.93ZM213.93 298.5H209.18V300.5H213.93V298.5ZM210.18 299.5V294.75H208.18V299.5H210.18ZM209.18 295.75H213.93V293.75H209.18V295.75ZM214.93 294.75V290H212.93V294.75H214.93ZM213.93 291H223.43V289H213.93V291ZM222.43 290V318.5H224.43V290H222.43ZM223.43 319.5H232.93V317.5H223.43V319.5ZM231.93 318.5V323.25H233.93V318.5H231.93ZM232.93 322.25H204.43V324.25H232.93V322.25ZM246.99 323.25H245.99V324.25H246.99V323.25ZM246.99 318.5V317.5H245.99V318.5H246.99ZM256.49 318.5V319.5H257.49V318.5H256.49ZM256.49 299.5H257.49V298.5H256.49V299.5ZM251.74 299.5H250.74V300.5H251.74V299.5ZM251.74 294.75V293.75H250.74V294.75H251.74ZM256.49 294.75V295.75H257.49V294.75H256.49ZM256.49 290V289H255.49V290H256.49ZM265.99 290H266.99V289H265.99V290ZM265.99 318.5H264.99V319.5H265.99V318.5ZM275.49 318.5H276.49V317.5H275.49V318.5ZM275.49 323.25V324.25H276.49V323.25H275.49ZM247.99 323.25V318.5H245.99V323.25H247.99ZM246.99 319.5H256.49V317.5H246.99V319.5ZM257.49 318.5V299.5H255.49V318.5H257.49ZM256.49 298.5H251.74V300.5H256.49V298.5ZM252.74 299.5V294.75H250.74V299.5H252.74ZM251.74 295.75H256.49V293.75H251.74V295.75ZM257.49 294.75V290H255.49V294.75H257.49ZM256.49 291H265.99V289H256.49V291ZM264.99 290V318.5H266.99V290H264.99ZM265.99 319.5H275.49V317.5H265.99V319.5ZM274.49 318.5V323.25H276.49V318.5H274.49ZM275.49 322.25H246.99V324.25H275.49V322.25ZM289.55 323.25H288.55V324.25H289.55V323.25ZM289.55 318.5V317.5H288.55V318.5H289.55ZM299.05 318.5V319.5H300.05V318.5H299.05ZM299.05 299.5H300.05V298.5H299.05V299.5ZM294.3 299.5H293.3V300.5H294.3V299.5ZM294.3 294.75V293.75H293.3V294.75H294.3ZM299.05 294.75V295.75H300.05V294.75H299.05ZM299.05 290V289H298.05V290H299.05ZM308.55 290H309.55V289H308.55V290ZM308.55 318.5H307.55V319.5H308.55V318.5ZM318.05 318.5H319.05V317.5H318.05V318.5ZM318.05 323.25V324.25H319.05V323.25H318.05ZM290.55 323.25V318.5H288.55V323.25H290.55ZM289.55 319.5H299.05V317.5H289.55V319.5ZM300.05 318.5V299.5H298.05V318.5H300.05ZM299.05 298.5H294.3V300.5H299.05V298.5ZM295.3 299.5V294.75H293.3V299.5H295.3ZM294.3 295.75H299.05V293.75H294.3V295.75ZM300.05 294.75V290H298.05V294.75H300.05ZM299.05 291H308.55V289H299.05V291ZM307.55 290V318.5H309.55V290H307.55ZM308.55 319.5H318.05V317.5H308.55V319.5ZM317.05 318.5V323.25H319.05V318.5H317.05ZM318.05 322.25H289.55V324.25H318.05V322.25ZM336.86 323.25H335.86V324.25H336.86V323.25ZM336.86 318.5H337.86V317.5H336.86V318.5ZM332.11 318.5H331.11V319.5H332.11V318.5ZM332.11 313.75H333.11V312.75H332.11V313.75ZM327.36 313.75H326.36V314.75H327.36V313.75ZM327.36 299.5V298.5H326.36V299.5H327.36ZM332.11 299.5V300.5H333.11V299.5H332.11ZM332.11 294.75V293.75H331.11V294.75H332.11ZM336.86 294.75V295.75H337.86V294.75H336.86ZM336.86 290V289H335.86V290H336.86ZM351.11 290H352.11V289H351.11V290ZM351.11 294.75H350.11V295.75H351.11V294.75ZM355.86 294.75H356.86V293.75H355.86V294.75ZM355.86 299.5H354.86V300.5H355.86V299.5ZM360.61 299.5H361.61V298.5H360.61V299.5ZM360.61 313.75V314.75H361.61V313.75H360.61ZM355.86 313.75V312.75H354.86V313.75H355.86ZM355.86 318.5V319.5H356.86V318.5H355.86ZM351.11 318.5V317.5H350.11V318.5H351.11ZM351.11 323.25V324.25H352.11V323.25H351.11ZM341.61 318.5H340.61V319.5H341.61V318.5ZM351.11 318.5V319.5H352.11V318.5H351.11ZM351.11 299.5H352.11V298.5H351.11V299.5ZM346.36 299.5H345.36V300.5H346.36V299.5ZM346.36 294.75H347.36V293.75H346.36V294.75ZM336.86 294.75V293.75H335.86V294.75H336.86ZM336.86 313.75H335.86V314.75H336.86V313.75ZM341.61 313.75H342.61V312.75H341.61V313.75ZM337.86 323.25V318.5H335.86V323.25H337.86ZM336.86 317.5H332.11V319.5H336.86V317.5ZM333.11 318.5V313.75H331.11V318.5H333.11ZM332.11 312.75H327.36V314.75H332.11V312.75ZM328.36 313.75V299.5H326.36V313.75H328.36ZM327.36 300.5H332.11V298.5H327.36V300.5ZM333.11 299.5V294.75H331.11V299.5H333.11ZM332.11 295.75H336.86V293.75H332.11V295.75ZM337.86 294.75V290H335.86V294.75H337.86ZM336.86 291H351.11V289H336.86V291ZM350.11 290V294.75H352.11V290H350.11ZM351.11 295.75H355.86V293.75H351.11V295.75ZM354.86 294.75V299.5H356.86V294.75H354.86ZM355.86 300.5H360.61V298.5H355.86V300.5ZM359.61 299.5V313.75H361.61V299.5H359.61ZM360.61 312.75H355.86V314.75H360.61V312.75ZM354.86 313.75V318.5H356.86V313.75H354.86ZM355.86 317.5H351.11V319.5H355.86V317.5ZM350.11 318.5V323.25H352.11V318.5H350.11ZM351.11 322.25H336.86V324.25H351.11V322.25ZM341.61 319.5H351.11V317.5H341.61V319.5ZM352.11 318.5V299.5H350.11V318.5H352.11ZM351.11 298.5H346.36V300.5H351.11V298.5ZM347.36 299.5V294.75H345.36V299.5H347.36ZM346.36 293.75H336.86V295.75H346.36V293.75ZM335.86 294.75V313.75H337.86V294.75H335.86ZM336.86 314.75H341.61V312.75H336.86V314.75ZM340.61 313.75V318.5H342.61V313.75H340.61ZM374.67 323.25H373.67V324.25H374.67V323.25ZM374.67 318.5V317.5H373.67V318.5H374.67ZM384.17 318.5V319.5H385.17V318.5H384.17ZM384.17 299.5H385.17V298.5H384.17V299.5ZM379.42 299.5H378.42V300.5H379.42V299.5ZM379.42 294.75V293.75H378.42V294.75H379.42ZM384.17 294.75V295.75H385.17V294.75H384.17ZM384.17 290V289H383.17V290H384.17ZM393.67 290H394.67V289H393.67V290ZM393.67 318.5H392.67V319.5H393.67V318.5ZM403.17 318.5H404.17V317.5H403.17V318.5ZM403.17 323.25V324.25H404.17V323.25H403.17ZM375.67 323.25V318.5H373.67V323.25H375.67ZM374.67 319.5H384.17V317.5H374.67V319.5ZM385.17 318.5V299.5H383.17V318.5H385.17ZM384.17 298.5H379.42V300.5H384.17V298.5ZM380.42 299.5V294.75H378.42V299.5H380.42ZM379.42 295.75H384.17V293.75H379.42V295.75ZM385.17 294.75V290H383.17V294.75H385.17ZM384.17 291H393.67V289H384.17V291ZM392.67 290V318.5H394.67V290H392.67ZM393.67 319.5H403.17V317.5H393.67V319.5ZM402.17 318.5V323.25H404.17V318.5H402.17ZM403.17 322.25H374.67V324.25H403.17V322.25ZM421.98 323.25H420.98V324.25H421.98V323.25ZM421.98 318.5H422.98V317.5H421.98V318.5ZM417.23 318.5H416.23V319.5H417.23V318.5ZM417.23 313.75H418.23V312.75H417.23V313.75ZM412.48 313.75H411.48V314.75H412.48V313.75ZM412.48 299.5V298.5H411.48V299.5H412.48ZM417.23 299.5V300.5H418.23V299.5H417.23ZM417.23 294.75V293.75H416.23V294.75H417.23ZM421.98 294.75V295.75H422.98V294.75H421.98ZM421.98 290V289H420.98V290H421.98ZM436.23 290H437.23V289H436.23V290ZM436.23 294.75H435.23V295.75H436.23V294.75ZM440.98 294.75H441.98V293.75H440.98V294.75ZM440.98 299.5H439.98V300.5H440.98V299.5ZM445.73 299.5H446.73V298.5H445.73V299.5ZM445.73 313.75V314.75H446.73V313.75H445.73ZM440.98 313.75V312.75H439.98V313.75H440.98ZM440.98 318.5V319.5H441.98V318.5H440.98ZM436.23 318.5V317.5H435.23V318.5H436.23ZM436.23 323.25V324.25H437.23V323.25H436.23ZM426.73 318.5H425.73V319.5H426.73V318.5ZM436.23 318.5V319.5H437.23V318.5H436.23ZM436.23 299.5H437.23V298.5H436.23V299.5ZM431.48 299.5H430.48V300.5H431.48V299.5ZM431.48 294.75H432.48V293.75H431.48V294.75ZM421.98 294.75V293.75H420.98V294.75H421.98ZM421.98 313.75H420.98V314.75H421.98V313.75ZM426.73 313.75H427.73V312.75H426.73V313.75ZM422.98 323.25V318.5H420.98V323.25H422.98ZM421.98 317.5H417.23V319.5H421.98V317.5ZM418.23 318.5V313.75H416.23V318.5H418.23ZM417.23 312.75H412.48V314.75H417.23V312.75ZM413.48 313.75V299.5H411.48V313.75H413.48ZM412.48 300.5H417.23V298.5H412.48V300.5ZM418.23 299.5V294.75H416.23V299.5H418.23ZM417.23 295.75H421.98V293.75H417.23V295.75ZM422.98 294.75V290H420.98V294.75H422.98ZM421.98 291H436.23V289H421.98V291ZM435.23 290V294.75H437.23V290H435.23ZM436.23 295.75H440.98V293.75H436.23V295.75ZM439.98 294.75V299.5H441.98V294.75H439.98ZM440.98 300.5H445.73V298.5H440.98V300.5ZM444.73 299.5V313.75H446.73V299.5H444.73ZM445.73 312.75H440.98V314.75H445.73V312.75ZM439.98 313.75V318.5H441.98V313.75H439.98ZM440.98 317.5H436.23V319.5H440.98V317.5ZM435.23 318.5V323.25H437.23V318.5H435.23ZM436.23 322.25H421.98V324.25H436.23V322.25ZM426.73 319.5H436.23V317.5H426.73V319.5ZM437.23 318.5V299.5H435.23V318.5H437.23ZM436.23 298.5H431.48V300.5H436.23V298.5ZM432.48 299.5V294.75H430.48V299.5H432.48ZM431.48 293.75H421.98V295.75H431.48V293.75ZM420.98 294.75V313.75H422.98V294.75H420.98ZM421.98 314.75H426.73V312.75H421.98V314.75ZM425.73 313.75V318.5H427.73V313.75H425.73ZM459.79 323.25H458.79V324.25H459.79V323.25ZM459.79 318.5V317.5H458.79V318.5H459.79ZM469.29 318.5V319.5H470.29V318.5H469.29ZM469.29 299.5H470.29V298.5H469.29V299.5ZM464.54 299.5H463.54V300.5H464.54V299.5ZM464.54 294.75V293.75H463.54V294.75H464.54ZM469.29 294.75V295.75H470.29V294.75H469.29ZM469.29 290V289H468.29V290H469.29ZM478.79 290H479.79V289H478.79V290ZM478.79 318.5H477.79V319.5H478.79V318.5ZM488.29 318.5H489.29V317.5H488.29V318.5ZM488.29 323.25V324.25H489.29V323.25H488.29ZM460.79 323.25V318.5H458.79V323.25H460.79ZM459.79 319.5H469.29V317.5H459.79V319.5ZM470.29 318.5V299.5H468.29V318.5H470.29ZM469.29 298.5H464.54V300.5H469.29V298.5ZM465.54 299.5V294.75H463.54V299.5H465.54ZM464.54 295.75H469.29V293.75H464.54V295.75ZM470.29 294.75V290H468.29V294.75H470.29ZM469.29 291H478.79V289H469.29V291ZM477.79 290V318.5H479.79V290H477.79ZM478.79 319.5H488.29V317.5H478.79V319.5ZM487.29 318.5V323.25H489.29V318.5H487.29ZM488.29 322.25H459.79V324.25H488.29V322.25ZM502.35 323.25H501.35V324.25H502.35V323.25ZM502.35 318.5V317.5H501.35V318.5H502.35ZM511.85 318.5V319.5H512.85V318.5H511.85ZM511.85 299.5H512.85V298.5H511.85V299.5ZM507.1 299.5H506.1V300.5H507.1V299.5ZM507.1 294.75V293.75H506.1V294.75H507.1ZM511.85 294.75V295.75H512.85V294.75H511.85ZM511.85 290V289H510.85V290H511.85ZM521.35 290H522.35V289H521.35V290ZM521.35 318.5H520.35V319.5H521.35V318.5ZM530.85 318.5H531.85V317.5H530.85V318.5ZM530.85 323.25V324.25H531.85V323.25H530.85ZM503.35 323.25V318.5H501.35V323.25H503.35ZM502.35 319.5H511.85V317.5H502.35V319.5ZM512.85 318.5V299.5H510.85V318.5H512.85ZM511.85 298.5H507.1V300.5H511.85V298.5ZM508.1 299.5V294.75H506.1V299.5H508.1ZM507.1 295.75H511.85V293.75H507.1V295.75ZM512.85 294.75V290H510.85V294.75H512.85ZM511.85 291H521.35V289H511.85V291ZM520.35 290V318.5H522.35V290H520.35ZM521.35 319.5H530.85V317.5H521.35V319.5ZM529.85 318.5V323.25H531.85V318.5H529.85ZM530.85 322.25H502.35V324.25H530.85V322.25ZM549.66 323.25H548.66V324.25H549.66V323.25ZM549.66 318.5H550.66V317.5H549.66V318.5ZM544.91 318.5H543.91V319.5H544.91V318.5ZM544.91 313.75H545.91V312.75H544.91V313.75ZM540.16 313.75H539.16V314.75H540.16V313.75ZM540.16 299.5V298.5H539.16V299.5H540.16ZM544.91 299.5V300.5H545.91V299.5H544.91ZM544.91 294.75V293.75H543.91V294.75H544.91ZM549.66 294.75V295.75H550.66V294.75H549.66ZM549.66 290V289H548.66V290H549.66ZM563.91 290H564.91V289H563.91V290ZM563.91 294.75H562.91V295.75H563.91V294.75ZM568.66 294.75H569.66V293.75H568.66V294.75ZM568.66 299.5H567.66V300.5H568.66V299.5ZM573.41 299.5H574.41V298.5H573.41V299.5ZM573.41 313.75V314.75H574.41V313.75H573.41ZM568.66 313.75V312.75H567.66V313.75H568.66ZM568.66 318.5V319.5H569.66V318.5H568.66ZM563.91 318.5V317.5H562.91V318.5H563.91ZM563.91 323.25V324.25H564.91V323.25H563.91ZM554.41 318.5H553.41V319.5H554.41V318.5ZM563.91 318.5V319.5H564.91V318.5H563.91ZM563.91 299.5H564.91V298.5H563.91V299.5ZM559.16 299.5H558.16V300.5H559.16V299.5ZM559.16 294.75H560.16V293.75H559.16V294.75ZM549.66 294.75V293.75H548.66V294.75H549.66ZM549.66 313.75H548.66V314.75H549.66V313.75ZM554.41 313.75H555.41V312.75H554.41V313.75ZM550.66 323.25V318.5H548.66V323.25H550.66ZM549.66 317.5H544.91V319.5H549.66V317.5ZM545.91 318.5V313.75H543.91V318.5H545.91ZM544.91 312.75H540.16V314.75H544.91V312.75ZM541.16 313.75V299.5H539.16V313.75H541.16ZM540.16 300.5H544.91V298.5H540.16V300.5ZM545.91 299.5V294.75H543.91V299.5H545.91ZM544.91 295.75H549.66V293.75H544.91V295.75ZM550.66 294.75V290H548.66V294.75H550.66ZM549.66 291H563.91V289H549.66V291ZM562.91 290V294.75H564.91V290H562.91ZM563.91 295.75H568.66V293.75H563.91V295.75ZM567.66 294.75V299.5H569.66V294.75H567.66ZM568.66 300.5H573.41V298.5H568.66V300.5ZM572.41 299.5V313.75H574.41V299.5H572.41ZM573.41 312.75H568.66V314.75H573.41V312.75ZM567.66 313.75V318.5H569.66V313.75H567.66ZM568.66 317.5H563.91V319.5H568.66V317.5ZM562.91 318.5V323.25H564.91V318.5H562.91ZM563.91 322.25H549.66V324.25H563.91V322.25ZM554.41 319.5H563.91V317.5H554.41V319.5ZM564.91 318.5V299.5H562.91V318.5H564.91ZM563.91 298.5H559.16V300.5H563.91V298.5ZM560.16 299.5V294.75H558.16V299.5H560.16ZM559.16 293.75H549.66V295.75H559.16V293.75ZM548.66 294.75V313.75H550.66V294.75H548.66ZM549.66 314.75H554.41V312.75H549.66V314.75ZM553.41 313.75V318.5H555.41V313.75H553.41Z" fill="#FBF0C2" mask="url(#path-5-outside-2_253_2)"/>
<mask id="path-7-outside-3_253_2" maskUnits="userSpaceOnUse" x="71" y="336" width="305" height="72" fill="black">
<rect fill="white" x="71" y="336" width="305" height="72"/>
<path d="M72 407V337H132V347H142V367H132V377H142V397H132V407H72ZM92 367H122V347H92V367ZM92 397H122V377H92V397ZM159.6 407V397H179.6V347H159.6V337H219.6V347H199.6V397H219.6V407H159.6ZM257.2 407V347H237.2V337H297.2V347H277.2V407H257.2ZM314.8 407V397H304.8V387H324.8V397H354.8V377H314.8V367H304.8V347H314.8V337H364.8V347H374.8V357H354.8V347H324.8V367H364.8V377H374.8V397H364.8V407H314.8Z"/>
</mask>
<path d="M72 407H71V408H72V407ZM72 337V336H71V337H72ZM132 337H133V336H132V337ZM132 347H131V348H132V347ZM142 347H143V346H142V347ZM142 367V368H143V367H142ZM132 367V366H131V367H132ZM132 377H131V378H132V377ZM142 377H143V376H142V377ZM142 397V398H143V397H142ZM132 397V396H131V397H132ZM132 407V408H133V407H132ZM92 367H91V368H92V367ZM122 367V368H123V367H122ZM122 347H123V346H122V347ZM92 347V346H91V347H92ZM92 397H91V398H92V397ZM122 397V398H123V397H122ZM122 377H123V376H122V377ZM92 377V376H91V377H92ZM73 407V337H71V407H73ZM72 338H132V336H72V338ZM131 337V347H133V337H131ZM132 348H142V346H132V348ZM141 347V367H143V347H141ZM142 366H132V368H142V366ZM131 367V377H133V367H131ZM132 378H142V376H132V378ZM141 377V397H143V377H141ZM142 396H132V398H142V396ZM131 397V407H133V397H131ZM132 406H72V408H132V406ZM92 368H122V366H92V368ZM123 367V347H121V367H123ZM122 346H92V348H122V346ZM91 347V367H93V347H91ZM92 398H122V396H92V398ZM123 397V377H121V397H123ZM122 376H92V378H122V376ZM91 377V397H93V377H91ZM159.6 407H158.6V408H159.6V407ZM159.6 397V396H158.6V397H159.6ZM179.6 397V398H180.6V397H179.6ZM179.6 347H180.6V346H179.6V347ZM159.6 347H158.6V348H159.6V347ZM159.6 337V336H158.6V337H159.6ZM219.6 337H220.6V336H219.6V337ZM219.6 347V348H220.6V347H219.6ZM199.6 347V346H198.6V347H199.6ZM199.6 397H198.6V398H199.6V397ZM219.6 397H220.6V396H219.6V397ZM219.6 407V408H220.6V407H219.6ZM160.6 407V397H158.6V407H160.6ZM159.6 398H179.6V396H159.6V398ZM180.6 397V347H178.6V397H180.6ZM179.6 346H159.6V348H179.6V346ZM160.6 347V337H158.6V347H160.6ZM159.6 338H219.6V336H159.6V338ZM218.6 337V347H220.6V337H218.6ZM219.6 346H199.6V348H219.6V346ZM198.6 347V397H200.6V347H198.6ZM199.6 398H219.6V396H199.6V398ZM218.6 397V407H220.6V397H218.6ZM219.6 406H159.6V408H219.6V406ZM257.2 407H256.2V408H257.2V407ZM257.2 347H258.2V346H257.2V347ZM237.2 347H236.2V348H237.2V347ZM237.2 337V336H236.2V337H237.2ZM297.2 337H298.2V336H297.2V337ZM297.2 347V348H298.2V347H297.2ZM277.2 347V346H276.2V347H277.2ZM277.2 407V408H278.2V407H277.2ZM258.2 407V347H256.2V407H258.2ZM257.2 346H237.2V348H257.2V346ZM238.2 347V337H236.2V347H238.2ZM237.2 338H297.2V336H237.2V338ZM296.2 337V347H298.2V337H296.2ZM297.2 346H277.2V348H297.2V346ZM276.2 347V407H278.2V347H276.2ZM277.2 406H257.2V408H277.2V406ZM314.8 407H313.8V408H314.8V407ZM314.8 397H315.8V396H314.8V397ZM304.8 397H303.8V398H304.8V397ZM304.8 387V386H303.8V387H304.8ZM324.8 387H325.8V386H324.8V387ZM324.8 397H323.8V398H324.8V397ZM354.8 397V398H355.8V397H354.8ZM354.8 377H355.8V376H354.8V377ZM314.8 377H313.8V378H314.8V377ZM314.8 367H315.8V366H314.8V367ZM304.8 367H303.8V368H304.8V367ZM304.8 347V346H303.8V347H304.8ZM314.8 347V348H315.8V347H314.8ZM314.8 337V336H313.8V337H314.8ZM364.8 337H365.8V336H364.8V337ZM364.8 347H363.8V348H364.8V347ZM374.8 347H375.8V346H374.8V347ZM374.8 357V358H375.8V357H374.8ZM354.8 357H353.8V358H354.8V357ZM354.8 347H355.8V346H354.8V347ZM324.8 347V346H323.8V347H324.8ZM324.8 367H323.8V368H324.8V367ZM364.8 367H365.8V366H364.8V367ZM364.8 377H363.8V378H364.8V377ZM374.8 377H375.8V376H374.8V377ZM374.8 397V398H375.8V397H374.8ZM364.8 397V396H363.8V397H364.8ZM364.8 407V408H365.8V407H364.8ZM315.8 407V397H313.8V407H315.8ZM314.8 396H304.8V398H314.8V396ZM305.8 397V387H303.8V397H305.8ZM304.8 388H324.8V386H304.8V388ZM323.8 387V397H325.8V387H323.8ZM324.8 398H354.8V396H324.8V398ZM355.8 397V377H353.8V397H355.8ZM354.8 376H314.8V378H354.8V376ZM315.8 377V367H313.8V377H315.8ZM314.8 366H304.8V368H314.8V366ZM305.8 367V347H303.8V367H305.8ZM304.8 348H314.8V346H304.8V348ZM315.8 347V337H313.8V347H315.8ZM314.8 338H364.8V336H314.8V338ZM363.8 337V347H365.8V337H363.8ZM364.8 348H374.8V346H364.8V348ZM373.8 347V357H375.8V347H373.8ZM374.8 356H354.8V358H374.8V356ZM355.8 357V347H353.8V357H355.8ZM354.8 346H324.8V348H354.8V346ZM323.8 347V367H325.8V347H323.8ZM324.8 368H364.8V366H324.8V368ZM363.8 367V377H365.8V367H363.8ZM364.8 378H374.8V376H364.8V378ZM373.8 377V397H375.8V377H373.8ZM374.8 396H364.8V398H374.8V396ZM363.8 397V407H365.8V397H363.8ZM364.8 406H314.8V408H364.8V406Z" fill="#FBF0C2" mask="url(#path-7-outside-3_253_2)"/>
<mask id="path-9-outside-4_253_2" maskUnits="userSpaceOnUse" x="429" y="337" width="140" height="72" fill="black">
<rect fill="white" x="429" y="337" width="140" height="72"/>
<path d="M450 408V348H430V338H490V348H470V408H450ZM507.6 408V398H497.6V348H507.6V338H557.6V348H567.6V398H557.6V408H507.6ZM517.6 398H547.6V348H517.6V398Z"/>
</mask>
<path d="M450 408H449V409H450V408ZM450 348H451V347H450V348ZM430 348H429V349H430V348ZM430 338V337H429V338H430ZM490 338H491V337H490V338ZM490 348V349H491V348H490ZM470 348V347H469V348H470ZM470 408V409H471V408H470ZM451 408V348H449V408H451ZM450 347H430V349H450V347ZM431 348V338H429V348H431ZM430 339H490V337H430V339ZM489 338V348H491V338H489ZM490 347H470V349H490V347ZM469 348V408H471V348H469ZM470 407H450V409H470V407ZM507.6 408H506.6V409H507.6V408ZM507.6 398H508.6V397H507.6V398ZM497.6 398H496.6V399H497.6V398ZM497.6 348V347H496.6V348H497.6ZM507.6 348V349H508.6V348H507.6ZM507.6 338V337H506.6V338H507.6ZM557.6 338H558.6V337H557.6V338ZM557.6 348H556.6V349H557.6V348ZM567.6 348H568.6V347H567.6V348ZM567.6 398V399H568.6V398H567.6ZM557.6 398V397H556.6V398H557.6ZM557.6 408V409H558.6V408H557.6ZM517.6 398H516.6V399H517.6V398ZM547.6 398V399H548.6V398H547.6ZM547.6 348H548.6V347H547.6V348ZM517.6 348V347H516.6V348H517.6ZM508.6 408V398H506.6V408H508.6ZM507.6 397H497.6V399H507.6V397ZM498.6 398V348H496.6V398H498.6ZM497.6 349H507.6V347H497.6V349ZM508.6 348V338H506.6V348H508.6ZM507.6 339H557.6V337H507.6V339ZM556.6 338V348H558.6V338H556.6ZM557.6 349H567.6V347H557.6V349ZM566.6 348V398H568.6V348H566.6ZM567.6 397H557.6V399H567.6V397ZM556.6 398V408H558.6V398H556.6ZM557.6 407H507.6V409H557.6V407ZM517.6 399H547.6V397H517.6V399ZM548.6 398V348H546.6V398H548.6ZM547.6 347H517.6V349H547.6V347ZM516.6 348V398H518.6V348H516.6Z" fill="#FBF0C2" mask="url(#path-9-outside-4_253_2)"/>
<mask id="path-11-outside-5_253_2" maskUnits="userSpaceOnUse" x="71" y="174" width="503" height="107" fill="black">
<rect fill="white" x="71" y="174" width="503" height="107"/>
<path d="M72 280V175H177V190H102V220H162V235H102V280H72ZM204 280V175H294V190H309V235H279V250H294V265H309V280H264V265H249V250H234V280H204ZM234 235H264V220H279V190H234V235ZM351 280V265H336V190H351V175H426V190H441V265H426V280H351ZM366 265H411V190H366V265ZM468 280V175H498V190H513V205H528V190H543V175H573V280H543V220H528V250H513V220H498V280H468Z"/>
</mask>
<path d="M72 280H71V281H72V280ZM72 175V174H71V175H72ZM177 175H178V174H177V175ZM177 190V191H178V190H177ZM102 190V189H101V190H102ZM102 220H101V221H102V220ZM162 220H163V219H162V220ZM162 235V236H163V235H162ZM102 235V234H101V235H102ZM102 280V281H103V280H102ZM73 280V175H71V280H73ZM72 176H177V174H72V176ZM176 175V190H178V175H176ZM177 189H102V191H177V189ZM101 190V220H103V190H101ZM102 221H162V219H102V221ZM161 220V235H163V220H161ZM162 234H102V236H162V234ZM101 235V280H103V235H101ZM102 279H72V281H102V279ZM204 280H203V281H204V280ZM204 175V174H203V175H204ZM294 175H295V174H294V175ZM294 190H293V191H294V190ZM309 190H310V189H309V190ZM309 235V236H310V235H309ZM279 235V234H278V235H279ZM279 250H278V251H279V250ZM294 250H295V249H294V250ZM294 265H293V266H294V265ZM309 265H310V264H309V265ZM309 280V281H310V280H309ZM264 280H263V281H264V280ZM264 265H265V264H264V265ZM249 265H248V266H249V265ZM249 250H250V249H249V250ZM234 250V249H233V250H234ZM234 280V281H235V280H234ZM234 235H233V236H234V235ZM264 235V236H265V235H264ZM264 220V219H263V220H264ZM279 220V221H280V220H279ZM279 190H280V189H279V190ZM234 190V189H233V190H234ZM205 280V175H203V280H205ZM204 176H294V174H204V176ZM293 175V190H295V175H293ZM294 191H309V189H294V191ZM308 190V235H310V190H308ZM309 234H279V236H309V234ZM278 235V250H280V235H278ZM279 251H294V249H279V251ZM293 250V265H295V250H293ZM294 266H309V264H294V266ZM308 265V280H310V265H308ZM309 279H264V281H309V279ZM265 280V265H263V280H265ZM264 264H249V266H264V264ZM250 265V250H248V265H250ZM249 249H234V251H249V249ZM233 250V280H235V250H233ZM234 279H204V281H234V279ZM234 236H264V234H234V236ZM265 235V220H263V235H265ZM264 221H279V219H264V221ZM280 220V190H278V220H280ZM279 189H234V191H279V189ZM233 190V235H235V190H233ZM351 280H350V281H351V280ZM351 265H352V264H351V265ZM336 265H335V266H336V265ZM336 190V189H335V190H336ZM351 190V191H352V190H351ZM351 175V174H350V175H351ZM426 175H427V174H426V175ZM426 190H425V191H426V190ZM441 190H442V189H441V190ZM441 265V266H442V265H441ZM426 265V264H425V265H426ZM426 280V281H427V280H426ZM366 265H365V266H366V265ZM411 265V266H412V265H411ZM411 190H412V189H411V190ZM366 190V189H365V190H366ZM352 280V265H350V280H352ZM351 264H336V266H351V264ZM337 265V190H335V265H337ZM336 191H351V189H336V191ZM352 190V175H350V190H352ZM351 176H426V174H351V176ZM425 175V190H427V175H425ZM426 191H441V189H426V191ZM440 190V265H442V190H440ZM441 264H426V266H441V264ZM425 265V280H427V265H425ZM426 279H351V281H426V279ZM366 266H411V264H366V266ZM412 265V190H410V265H412ZM411 189H366V191H411V189ZM365 190V265H367V190H365ZM468 280H467V281H468V280ZM468 175V174H467V175H468ZM498 175H499V174H498V175ZM498 190H497V191H498V190ZM513 190H514V189H513V190ZM513 205H512V206H513V205ZM528 205V206H529V205H528ZM528 190V189H527V190H528ZM543 190V191H544V190H543ZM543 175V174H542V175H543ZM573 175H574V174H573V175ZM573 280V281H574V280H573ZM543 280H542V281H543V280ZM543 220H544V219H543V220ZM528 220V219H527V220H528ZM528 250V251H529V250H528ZM513 250H512V251H513V250ZM513 220H514V219H513V220ZM498 220V219H497V220H498ZM498 280V281H499V280H498ZM469 280V175H467V280H469ZM468 176H498V174H468V176ZM497 175V190H499V175H497ZM498 191H513V189H498V191ZM512 190V205H514V190H512ZM513 206H528V204H513V206ZM529 205V190H527V205H529ZM528 191H543V189H528V191ZM544 190V175H542V190H544ZM543 176H573V174H543V176ZM572 175V280H574V175H572ZM573 279H543V281H573V279ZM544 280V220H542V280H544ZM543 219H528V221H543V219ZM527 220V250H529V220H527ZM528 249H513V251H528V249ZM514 250V220H512V250H514ZM513 219H498V221H513V219ZM497 220V280H499V220H497ZM498 279H468V281H498V279Z" fill="#FBF0C2" mask="url(#path-11-outside-5_253_2)"/>
<mask id="path-13-outside-6_253_2" maskUnits="userSpaceOnUse" x="69" y="484" width="508" height="99" fill="black">
<rect fill="white" x="69" y="484" width="508" height="99"/>
<path d="M70 581.25V485H152.5V498.75H166.25V526.25H152.5V540H166.25V567.5H152.5V581.25H70ZM97.5 526.25H138.75V498.75H97.5V526.25ZM97.5 567.5H138.75V540H97.5V567.5ZM172.3 581.25V485H268.55V498.75H199.8V526.25H254.8V540H199.8V567.5H268.55V581.25H172.3ZM274.6 581.25V512.5H288.35V498.75H302.1V485H343.35V498.75H357.1V512.5H370.85V581.25H343.35V553.75H302.1V581.25H274.6ZM302.1 540H343.35V512.5H329.6V498.75H315.85V512.5H302.1V540ZM418.15 581.25V498.75H390.65V485H473.15V498.75H445.65V581.25H418.15ZM492.95 581.25V567.5H479.2V553.75H506.7V567.5H547.95V540H492.95V526.25H479.2V498.75H492.95V485H561.7V498.75H575.45V512.5H547.95V498.75H506.7V526.25H561.7V540H575.45V567.5H561.7V581.25H492.95Z"/>
</mask>
<path d="M70 581.25H69V582.25H70V581.25ZM70 485V484H69V485H70ZM152.5 485H153.5V484H152.5V485ZM152.5 498.75H151.5V499.75H152.5V498.75ZM166.25 498.75H167.25V497.75H166.25V498.75ZM166.25 526.25V527.25H167.25V526.25H166.25ZM152.5 526.25V525.25H151.5V526.25H152.5ZM152.5 540H151.5V541H152.5V540ZM166.25 540H167.25V539H166.25V540ZM166.25 567.5V568.5H167.25V567.5H166.25ZM152.5 567.5V566.5H151.5V567.5H152.5ZM152.5 581.25V582.25H153.5V581.25H152.5ZM97.5 526.25H96.5V527.25H97.5V526.25ZM138.75 526.25V527.25H139.75V526.25H138.75ZM138.75 498.75H139.75V497.75H138.75V498.75ZM97.5 498.75V497.75H96.5V498.75H97.5ZM97.5 567.5H96.5V568.5H97.5V567.5ZM138.75 567.5V568.5H139.75V567.5H138.75ZM138.75 540H139.75V539H138.75V540ZM97.5 540V539H96.5V540H97.5ZM71 581.25V485H69V581.25H71ZM70 486H152.5V484H70V486ZM151.5 485V498.75H153.5V485H151.5ZM152.5 499.75H166.25V497.75H152.5V499.75ZM165.25 498.75V526.25H167.25V498.75H165.25ZM166.25 525.25H152.5V527.25H166.25V525.25ZM151.5 526.25V540H153.5V526.25H151.5ZM152.5 541H166.25V539H152.5V541ZM165.25 540V567.5H167.25V540H165.25ZM166.25 566.5H152.5V568.5H166.25V566.5ZM151.5 567.5V581.25H153.5V567.5H151.5ZM152.5 580.25H70V582.25H152.5V580.25ZM97.5 527.25H138.75V525.25H97.5V527.25ZM139.75 526.25V498.75H137.75V526.25H139.75ZM138.75 497.75H97.5V499.75H138.75V497.75ZM96.5 498.75V526.25H98.5V498.75H96.5ZM97.5 568.5H138.75V566.5H97.5V568.5ZM139.75 567.5V540H137.75V567.5H139.75ZM138.75 539H97.5V541H138.75V539ZM96.5 540V567.5H98.5V540H96.5ZM172.3 581.25H171.3V582.25H172.3V581.25ZM172.3 485V484H171.3V485H172.3ZM268.55 485H269.55V484H268.55V485ZM268.55 498.75V499.75H269.55V498.75H268.55ZM199.8 498.75V497.75H198.8V498.75H199.8ZM199.8 526.25H198.8V527.25H199.8V526.25ZM254.8 526.25H255.8V525.25H254.8V526.25ZM254.8 540V541H255.8V540H254.8ZM199.8 540V539H198.8V540H199.8ZM199.8 567.5H198.8V568.5H199.8V567.5ZM268.55 567.5H269.55V566.5H268.55V567.5ZM268.55 581.25V582.25H269.55V581.25H268.55ZM173.3 581.25V485H171.3V581.25H173.3ZM172.3 486H268.55V484H172.3V486ZM267.55 485V498.75H269.55V485H267.55ZM268.55 497.75H199.8V499.75H268.55V497.75ZM198.8 498.75V526.25H200.8V498.75H198.8ZM199.8 527.25H254.8V525.25H199.8V527.25ZM253.8 526.25V540H255.8V526.25H253.8ZM254.8 539H199.8V541H254.8V539ZM198.8 540V567.5H200.8V540H198.8ZM199.8 568.5H268.55V566.5H199.8V568.5ZM267.55 567.5V581.25H269.55V567.5H267.55ZM268.55 580.25H172.3V582.25H268.55V580.25ZM274.6 581.25H273.6V582.25H274.6V581.25ZM274.6 512.5V511.5H273.6V512.5H274.6ZM288.35 512.5V513.5H289.35V512.5H288.35ZM288.35 498.75V497.75H287.35V498.75H288.35ZM302.1 498.75V499.75H303.1V498.75H302.1ZM302.1 485V484H301.1V485H302.1ZM343.35 485H344.35V484H343.35V485ZM343.35 498.75H342.35V499.75H343.35V498.75ZM357.1 498.75H358.1V497.75H357.1V498.75ZM357.1 512.5H356.1V513.5H357.1V512.5ZM370.85 512.5H371.85V511.5H370.85V512.5ZM370.85 581.25V582.25H371.85V581.25H370.85ZM343.35 581.25H342.35V582.25H343.35V581.25ZM343.35 553.75H344.35V552.75H343.35V553.75ZM302.1 553.75V552.75H301.1V553.75H302.1ZM302.1 581.25V582.25H303.1V581.25H302.1ZM302.1 540H301.1V541H302.1V540ZM343.35 540V541H344.35V540H343.35ZM343.35 512.5H344.35V511.5H343.35V512.5ZM329.6 512.5H328.6V513.5H329.6V512.5ZM329.6 498.75H330.6V497.75H329.6V498.75ZM315.85 498.75V497.75H314.85V498.75H315.85ZM315.85 512.5V513.5H316.85V512.5H315.85ZM302.1 512.5V511.5H301.1V512.5H302.1ZM275.6 581.25V512.5H273.6V581.25H275.6ZM274.6 513.5H288.35V511.5H274.6V513.5ZM289.35 512.5V498.75H287.35V512.5H289.35ZM288.35 499.75H302.1V497.75H288.35V499.75ZM303.1 498.75V485H301.1V498.75H303.1ZM302.1 486H343.35V484H302.1V486ZM342.35 485V498.75H344.35V485H342.35ZM343.35 499.75H357.1V497.75H343.35V499.75ZM356.1 498.75V512.5H358.1V498.75H356.1ZM357.1 513.5H370.85V511.5H357.1V513.5ZM369.85 512.5V581.25H371.85V512.5H369.85ZM370.85 580.25H343.35V582.25H370.85V580.25ZM344.35 581.25V553.75H342.35V581.25H344.35ZM343.35 552.75H302.1V554.75H343.35V552.75ZM301.1 553.75V581.25H303.1V553.75H301.1ZM302.1 580.25H274.6V582.25H302.1V580.25ZM302.1 541H343.35V539H302.1V541ZM344.35 540V512.5H342.35V540H344.35ZM343.35 511.5H329.6V513.5H343.35V511.5ZM330.6 512.5V498.75H328.6V512.5H330.6ZM329.6 497.75H315.85V499.75H329.6V497.75ZM314.85 498.75V512.5H316.85V498.75H314.85ZM315.85 511.5H302.1V513.5H315.85V511.5ZM301.1 512.5V540H303.1V512.5H301.1ZM418.15 581.25H417.15V582.25H418.15V581.25ZM418.15 498.75H419.15V497.75H418.15V498.75ZM390.65 498.75H389.65V499.75H390.65V498.75ZM390.65 485V484H389.65V485H390.65ZM473.15 485H474.15V484H473.15V485ZM473.15 498.75V499.75H474.15V498.75H473.15ZM445.65 498.75V497.75H444.65V498.75H445.65ZM445.65 581.25V582.25H446.65V581.25H445.65ZM419.15 581.25V498.75H417.15V581.25H419.15ZM418.15 497.75H390.65V499.75H418.15V497.75ZM391.65 498.75V485H389.65V498.75H391.65ZM390.65 486H473.15V484H390.65V486ZM472.15 485V498.75H474.15V485H472.15ZM473.15 497.75H445.65V499.75H473.15V497.75ZM444.65 498.75V581.25H446.65V498.75H444.65ZM445.65 580.25H418.15V582.25H445.65V580.25ZM492.95 581.25H491.95V582.25H492.95V581.25ZM492.95 567.5H493.95V566.5H492.95V567.5ZM479.2 567.5H478.2V568.5H479.2V567.5ZM479.2 553.75V552.75H478.2V553.75H479.2ZM506.7 553.75H507.7V552.75H506.7V553.75ZM506.7 567.5H505.7V568.5H506.7V567.5ZM547.95 567.5V568.5H548.95V567.5H547.95ZM547.95 540H548.95V539H547.95V540ZM492.95 540H491.95V541H492.95V540ZM492.95 526.25H493.95V525.25H492.95V526.25ZM479.2 526.25H478.2V527.25H479.2V526.25ZM479.2 498.75V497.75H478.2V498.75H479.2ZM492.95 498.75V499.75H493.95V498.75H492.95ZM492.95 485V484H491.95V485H492.95ZM561.7 485H562.7V484H561.7V485ZM561.7 498.75H560.7V499.75H561.7V498.75ZM575.45 498.75H576.45V497.75H575.45V498.75ZM575.45 512.5V513.5H576.45V512.5H575.45ZM547.95 512.5H546.95V513.5H547.95V512.5ZM547.95 498.75H548.95V497.75H547.95V498.75ZM506.7 498.75V497.75H505.7V498.75H506.7ZM506.7 526.25H505.7V527.25H506.7V526.25ZM561.7 526.25H562.7V525.25H561.7V526.25ZM561.7 540H560.7V541H561.7V540ZM575.45 540H576.45V539H575.45V540ZM575.45 567.5V568.5H576.45V567.5H575.45ZM561.7 567.5V566.5H560.7V567.5H561.7ZM561.7 581.25V582.25H562.7V581.25H561.7ZM493.95 581.25V567.5H491.95V581.25H493.95ZM492.95 566.5H479.2V568.5H492.95V566.5ZM480.2 567.5V553.75H478.2V567.5H480.2ZM479.2 554.75H506.7V552.75H479.2V554.75ZM505.7 553.75V567.5H507.7V553.75H505.7ZM506.7 568.5H547.95V566.5H506.7V568.5ZM548.95 567.5V540H546.95V567.5H548.95ZM547.95 539H492.95V541H547.95V539ZM493.95 540V526.25H491.95V540H493.95ZM492.95 525.25H479.2V527.25H492.95V525.25ZM480.2 526.25V498.75H478.2V526.25H480.2ZM479.2 499.75H492.95V497.75H479.2V499.75ZM493.95 498.75V485H491.95V498.75H493.95ZM492.95 486H561.7V484H492.95V486ZM560.7 485V498.75H562.7V485H560.7ZM561.7 499.75H575.45V497.75H561.7V499.75ZM574.45 498.75V512.5H576.45V498.75H574.45ZM575.45 511.5H547.95V513.5H575.45V511.5ZM548.95 512.5V498.75H546.95V512.5H548.95ZM547.95 497.75H506.7V499.75H547.95V497.75ZM505.7 498.75V526.25H507.7V498.75H505.7ZM506.7 527.25H561.7V525.25H506.7V527.25ZM560.7 526.25V540H562.7V526.25H560.7ZM561.7 541H575.45V539H561.7V541ZM574.45 540V567.5H576.45V540H574.45ZM575.45 566.5H561.7V568.5H575.45V566.5ZM560.7 567.5V581.25H562.7V567.5H560.7ZM561.7 580.25H492.95V582.25H561.7V580.25Z" fill="#FBF0C2" mask="url(#path-13-outside-6_253_2)"/>
<mask id="path-15-outside-7_253_2" maskUnits="userSpaceOnUse" x="348" y="117" width="228" height="43" fill="black">
<rect fill="white" x="348" y="117" width="228" height="43"/>
<path d="M349 158.25V118H383.5V123.75H389.25V141H383.5V146.75H360.5V158.25H349ZM360.5 141H377.75V123.75H360.5V141ZM399.6 158.25V118H439.85V123.75H411.1V135.25H434.1V141H411.1V152.5H439.85V158.25H399.6ZM450.2 158.25V129.5H455.95V123.75H461.7V118H478.95V123.75H484.7V129.5H490.45V158.25H478.95V146.75H461.7V158.25H450.2ZM461.7 141H478.95V129.5H473.2V123.75H467.45V129.5H461.7V141ZM500.8 158.25V118H512.3V135.25H518.05V129.5H523.8V123.75H529.55V118H541.05V123.75H535.3V129.5H529.55V135.25H523.8V141H529.55V146.75H535.3V152.5H541.05V158.25H523.8V152.5H518.05V146.75H512.3V158.25H500.8ZM562.9 135.25V123.75H574.4V135.25H562.9ZM562.9 152.5V141H574.4V152.5H562.9Z"/>
</mask>
<path d="M349 158.25H348V159.25H349V158.25ZM349 118V117H348V118H349ZM383.5 118H384.5V117H383.5V118ZM383.5 123.75H382.5V124.75H383.5V123.75ZM389.25 123.75H390.25V122.75H389.25V123.75ZM389.25 141V142H390.25V141H389.25ZM383.5 141V140H382.5V141H383.5ZM383.5 146.75V147.75H384.5V146.75H383.5ZM360.5 146.75V145.75H359.5V146.75H360.5ZM360.5 158.25V159.25H361.5V158.25H360.5ZM360.5 141H359.5V142H360.5V141ZM377.75 141V142H378.75V141H377.75ZM377.75 123.75H378.75V122.75H377.75V123.75ZM360.5 123.75V122.75H359.5V123.75H360.5ZM350 158.25V118H348V158.25H350ZM349 119H383.5V117H349V119ZM382.5 118V123.75H384.5V118H382.5ZM383.5 124.75H389.25V122.75H383.5V124.75ZM388.25 123.75V141H390.25V123.75H388.25ZM389.25 140H383.5V142H389.25V140ZM382.5 141V146.75H384.5V141H382.5ZM383.5 145.75H360.5V147.75H383.5V145.75ZM359.5 146.75V158.25H361.5V146.75H359.5ZM360.5 157.25H349V159.25H360.5V157.25ZM360.5 142H377.75V140H360.5V142ZM378.75 141V123.75H376.75V141H378.75ZM377.75 122.75H360.5V124.75H377.75V122.75ZM359.5 123.75V141H361.5V123.75H359.5ZM399.6 158.25H398.6V159.25H399.6V158.25ZM399.6 118V117H398.6V118H399.6ZM439.85 118H440.85V117H439.85V118ZM439.85 123.75V124.75H440.85V123.75H439.85ZM411.1 123.75V122.75H410.1V123.75H411.1ZM411.1 135.25H410.1V136.25H411.1V135.25ZM434.1 135.25H435.1V134.25H434.1V135.25ZM434.1 141V142H435.1V141H434.1ZM411.1 141V140H410.1V141H411.1ZM411.1 152.5H410.1V153.5H411.1V152.5ZM439.85 152.5H440.85V151.5H439.85V152.5ZM439.85 158.25V159.25H440.85V158.25H439.85ZM400.6 158.25V118H398.6V158.25H400.6ZM399.6 119H439.85V117H399.6V119ZM438.85 118V123.75H440.85V118H438.85ZM439.85 122.75H411.1V124.75H439.85V122.75ZM410.1 123.75V135.25H412.1V123.75H410.1ZM411.1 136.25H434.1V134.25H411.1V136.25ZM433.1 135.25V141H435.1V135.25H433.1ZM434.1 140H411.1V142H434.1V140ZM410.1 141V152.5H412.1V141H410.1ZM411.1 153.5H439.85V151.5H411.1V153.5ZM438.85 152.5V158.25H440.85V152.5H438.85ZM439.85 157.25H399.6V159.25H439.85V157.25ZM450.2 158.25H449.2V159.25H450.2V158.25ZM450.2 129.5V128.5H449.2V129.5H450.2ZM455.95 129.5V130.5H456.95V129.5H455.95ZM455.95 123.75V122.75H454.95V123.75H455.95ZM461.7 123.75V124.75H462.7V123.75H461.7ZM461.7 118V117H460.7V118H461.7ZM478.95 118H479.95V117H478.95V118ZM478.95 123.75H477.95V124.75H478.95V123.75ZM484.7 123.75H485.7V122.75H484.7V123.75ZM484.7 129.5H483.7V130.5H484.7V129.5ZM490.45 129.5H491.45V128.5H490.45V129.5ZM490.45 158.25V159.25H491.45V158.25H490.45ZM478.95 158.25H477.95V159.25H478.95V158.25ZM478.95 146.75H479.95V145.75H478.95V146.75ZM461.7 146.75V145.75H460.7V146.75H461.7ZM461.7 158.25V159.25H462.7V158.25H461.7ZM461.7 141H460.7V142H461.7V141ZM478.95 141V142H479.95V141H478.95ZM478.95 129.5H479.95V128.5H478.95V129.5ZM473.2 129.5H472.2V130.5H473.2V129.5ZM473.2 123.75H474.2V122.75H473.2V123.75ZM467.45 123.75V122.75H466.45V123.75H467.45ZM467.45 129.5V130.5H468.45V129.5H467.45ZM461.7 129.5V128.5H460.7V129.5H461.7ZM451.2 158.25V129.5H449.2V158.25H451.2ZM450.2 130.5H455.95V128.5H450.2V130.5ZM456.95 129.5V123.75H454.95V129.5H456.95ZM455.95 124.75H461.7V122.75H455.95V124.75ZM462.7 123.75V118H460.7V123.75H462.7ZM461.7 119H478.95V117H461.7V119ZM477.95 118V123.75H479.95V118H477.95ZM478.95 124.75H484.7V122.75H478.95V124.75ZM483.7 123.75V129.5H485.7V123.75H483.7ZM484.7 130.5H490.45V128.5H484.7V130.5ZM489.45 129.5V158.25H491.45V129.5H489.45ZM490.45 157.25H478.95V159.25H490.45V157.25ZM479.95 158.25V146.75H477.95V158.25H479.95ZM478.95 145.75H461.7V147.75H478.95V145.75ZM460.7 146.75V158.25H462.7V146.75H460.7ZM461.7 157.25H450.2V159.25H461.7V157.25ZM461.7 142H478.95V140H461.7V142ZM479.95 141V129.5H477.95V141H479.95ZM478.95 128.5H473.2V130.5H478.95V128.5ZM474.2 129.5V123.75H472.2V129.5H474.2ZM473.2 122.75H467.45V124.75H473.2V122.75ZM466.45 123.75V129.5H468.45V123.75H466.45ZM467.45 128.5H461.7V130.5H467.45V128.5ZM460.7 129.5V141H462.7V129.5H460.7ZM500.8 158.25H499.8V159.25H500.8V158.25ZM500.8 118V117H499.8V118H500.8ZM512.3 118H513.3V117H512.3V118ZM512.3 135.25H511.3V136.25H512.3V135.25ZM518.05 135.25V136.25H519.05V135.25H518.05ZM518.05 129.5V128.5H517.05V129.5H518.05ZM523.8 129.5V130.5H524.8V129.5H523.8ZM523.8 123.75V122.75H522.8V123.75H523.8ZM529.55 123.75V124.75H530.55V123.75H529.55ZM529.55 118V117H528.55V118H529.55ZM541.05 118H542.05V117H541.05V118ZM541.05 123.75V124.75H542.05V123.75H541.05ZM535.3 123.75V122.75H534.3V123.75H535.3ZM535.3 129.5V130.5H536.3V129.5H535.3ZM529.55 129.5V128.5H528.55V129.5H529.55ZM529.55 135.25V136.25H530.55V135.25H529.55ZM523.8 135.25V134.25H522.8V135.25H523.8ZM523.8 141H522.8V142H523.8V141ZM529.55 141H530.55V140H529.55V141ZM529.55 146.75H528.55V147.75H529.55V146.75ZM535.3 146.75H536.3V145.75H535.3V146.75ZM535.3 152.5H534.3V153.5H535.3V152.5ZM541.05 152.5H542.05V151.5H541.05V152.5ZM541.05 158.25V159.25H542.05V158.25H541.05ZM523.8 158.25H522.8V159.25H523.8V158.25ZM523.8 152.5H524.8V151.5H523.8V152.5ZM518.05 152.5H517.05V153.5H518.05V152.5ZM518.05 146.75H519.05V145.75H518.05V146.75ZM512.3 146.75V145.75H511.3V146.75H512.3ZM512.3 158.25V159.25H513.3V158.25H512.3ZM501.8 158.25V118H499.8V158.25H501.8ZM500.8 119H512.3V117H500.8V119ZM511.3 118V135.25H513.3V118H511.3ZM512.3 136.25H518.05V134.25H512.3V136.25ZM519.05 135.25V129.5H517.05V135.25H519.05ZM518.05 130.5H523.8V128.5H518.05V130.5ZM524.8 129.5V123.75H522.8V129.5H524.8ZM523.8 124.75H529.55V122.75H523.8V124.75ZM530.55 123.75V118H528.55V123.75H530.55ZM529.55 119H541.05V117H529.55V119ZM540.05 118V123.75H542.05V118H540.05ZM541.05 122.75H535.3V124.75H541.05V122.75ZM534.3 123.75V129.5H536.3V123.75H534.3ZM535.3 128.5H529.55V130.5H535.3V128.5ZM528.55 129.5V135.25H530.55V129.5H528.55ZM529.55 134.25H523.8V136.25H529.55V134.25ZM522.8 135.25V141H524.8V135.25H522.8ZM523.8 142H529.55V140H523.8V142ZM528.55 141V146.75H530.55V141H528.55ZM529.55 147.75H535.3V145.75H529.55V147.75ZM534.3 146.75V152.5H536.3V146.75H534.3ZM535.3 153.5H541.05V151.5H535.3V153.5ZM540.05 152.5V158.25H542.05V152.5H540.05ZM541.05 157.25H523.8V159.25H541.05V157.25ZM524.8 158.25V152.5H522.8V158.25H524.8ZM523.8 151.5H518.05V153.5H523.8V151.5ZM519.05 152.5V146.75H517.05V152.5H519.05ZM518.05 145.75H512.3V147.75H518.05V145.75ZM511.3 146.75V158.25H513.3V146.75H511.3ZM512.3 157.25H500.8V159.25H512.3V157.25ZM562.9 135.25H561.9V136.25H562.9V135.25ZM562.9 123.75V122.75H561.9V123.75H562.9ZM574.4 123.75H575.4V122.75H574.4V123.75ZM574.4 135.25V136.25H575.4V135.25H574.4ZM562.9 152.5H561.9V153.5H562.9V152.5ZM562.9 141V140H561.9V141H562.9ZM574.4 141H575.4V140H574.4V141ZM574.4 152.5V153.5H575.4V152.5H574.4ZM563.9 135.25V123.75H561.9V135.25H563.9ZM562.9 124.75H574.4V122.75H562.9V124.75ZM573.4 123.75V135.25H575.4V123.75H573.4ZM574.4 134.25H562.9V136.25H574.4V134.25ZM563.9 152.5V141H561.9V152.5H563.9ZM562.9 142H574.4V140H562.9V142ZM573.4 141V152.5H575.4V141H573.4ZM574.4 151.5H562.9V153.5H574.4V151.5Z" fill="#FBF0C2" mask="url(#path-15-outside-7_253_2)"/>
<rect x="69.5" y="431.5" width="18" height="41" stroke="#FBF0C2"/>
<rect x="93.5" y="438.5" width="18" height="34" stroke="#FBF0C2"/>
<rect x="117.5" y="438.5" width="18" height="34" stroke="#FBF0C2"/>
<rect x="141.5" y="450.5" width="18" height="22" stroke="#FBF0C2"/>
<rect x="165.5" y="427.5" width="18" height="45" stroke="#FBF0C2"/>
<rect x="189.5" y="431.5" width="18" height="41" stroke="#FBF0C2"/>
<rect x="213.5" y="430.5" width="18" height="42" stroke="#FBF0C2"/>
<rect x="237.5" y="455.5" width="18" height="17" stroke="#FBF0C2"/>
<rect x="261.5" y="442.5" width="18" height="30" stroke="#FBF0C2"/>
<rect x="285.5" y="434.5" width="18" height="38" stroke="#FBF0C2"/>
<rect x="309.5" y="441.5" width="18" height="31" stroke="#FBF0C2"/>
<rect x="333.5" y="442.5" width="18" height="30" stroke="#FBF0C2"/>
<rect x="357.5" y="446.5" width="18" height="26" stroke="#FBF0C2"/>
<rect x="381.5" y="434.5" width="18" height="38" stroke="#FBF0C2"/>
<rect x="405.5" y="442.5" width="18" height="30" stroke="#FBF0C2"/>
<rect x="429.5" y="431.5" width="18" height="41" stroke="#FBF0C2"/>
<rect x="453.5" y="438.5" width="18" height="34" stroke="#FBF0C2"/>
<rect x="477.5" y="427.5" width="18" height="45" stroke="#FBF0C2"/>
<rect x="501.5" y="438.5" width="18" height="34" stroke="#FBF0C2"/>
<rect x="525.5" y="431.5" width="18" height="41" stroke="#FBF0C2"/>
<rect x="549.5" y="431.5" width="18" height="41" stroke="#FBF0C2"/>
<rect x="0.5" y="-0.5" width="18" height="3" transform="matrix(1 0 0 -1 69 425)" stroke="#FBF0C2"/>
<rect x="0.5" y="-0.5" width="18" height="2" transform="matrix(1 0 0 -1 93 433)" stroke="#FBF0C2"/>
<rect x="0.5" y="-0.5" width="18" height="2" transform="matrix(1 0 0 -1 117 433)" stroke="#FBF0C2"/>
<rect x="0.5" y="-0.5" width="18" height="1" transform="matrix(1 0 0 -1 141 446)" stroke="#FBF0C2"/>
<rect x="0.5" y="-0.5" width="18" height="3" transform="matrix(1 0 0 -1 165 420)" stroke="#FBF0C2"/>
<rect x="0.5" y="-0.5" width="18" height="2" transform="matrix(1 0 0 -1 189 424)" stroke="#FBF0C2"/>
<rect x="0.5" y="-0.5" width="18" height="2" transform="matrix(1 0 0 -1 213 423)" stroke="#FBF0C2"/>
<rect x="0.5" y="-0.5" width="18" height="1" transform="matrix(1 0 0 -1 237 451)" stroke="#FBF0C2"/>
<rect x="0.5" y="-0.5" width="18" height="2" transform="matrix(1 0 0 -1 261 438)" stroke="#FBF0C2"/>
<rect x="0.5" y="-0.5" width="18" height="2" transform="matrix(1 0 0 -1 285 428)" stroke="#FBF0C2"/>
<rect x="0.5" y="-0.5" width="18" height="1" transform="matrix(1 0 0 -1 309 435)" stroke="#FBF0C2"/>
<rect x="0.5" y="-0.5" width="18" height="1" transform="matrix(1 0 0 -1 333 437)" stroke="#FBF0C2"/>
<rect x="0.5" y="-0.5" width="18" height="1" transform="matrix(1 0 0 -1 357 442)" stroke="#FBF0C2"/>
<rect x="0.5" y="-0.5" width="18" height="2" transform="matrix(1 0 0 -1 381 428)" stroke="#FBF0C2"/>
<rect x="0.5" y="-0.5" width="18" height="1" transform="matrix(1 0 0 -1 405 437)" stroke="#FBF0C2"/>
<rect x="0.5" y="-0.5" width="18" height="2" transform="matrix(1 0 0 -1 429 424)" stroke="#FBF0C2"/>
<rect x="0.5" y="-0.5" width="18" height="2" transform="matrix(1 0 0 -1 453 433)" stroke="#FBF0C2"/>
<rect x="0.5" y="-0.5" width="18" height="3" transform="matrix(1 0 0 -1 477 421)" stroke="#FBF0C2"/>
<rect x="0.5" y="-0.5" width="18" height="2" transform="matrix(1 0 0 -1 501 433)" stroke="#FBF0C2"/>
<rect x="0.5" y="-0.5" width="18" height="2" transform="matrix(1 0 0 -1 525 424)" stroke="#FBF0C2"/>
<rect x="0.5" y="-0.5" width="18" height="2" transform="matrix(1 0 0 -1 549 424)" stroke="#FBF0C2"/>
</g>
<rect x="0.5" y="0.5" width="648" height="681" stroke="black"/>
<defs>
<clipPath id="clip0_253_2">
<rect width="649" height="682" fill="white"/>
</clipPath>
</defs>
</svg>
