<svg width="1171" height="265" viewBox="0 0 1171 265" fill="none" xmlns="http://www.w3.org/2000/svg">
<path d="M176.509 0.544771V110.624H44.2815L0.315857 154.921V265H44.2815V154.921H176.509V265H220.475V0.544771H176.509ZM235.975 261.364V265H412.169V220.704H279.941L235.975 261.364ZM235.975 0.544771L279.941 44.841H412.169V0.544771H235.975ZM235.975 110.955V154.921H279.941H412.169V110.955H279.941H235.975ZM552.136 154.921C561.392 154.921 568.995 158.226 575.607 164.838C581.888 171.449 585.524 179.052 585.524 187.977C585.524 192.605 584.532 196.903 582.879 200.87C581.226 205.167 578.912 208.473 575.937 211.448C572.962 214.423 569.326 216.737 565.028 218.39C561.062 220.043 556.764 220.704 552.136 220.704V265C573.623 265 591.805 257.397 606.68 242.521C621.886 227.315 629.489 209.134 629.489 187.977C629.489 166.821 621.886 148.64 606.68 133.434C591.805 118.558 573.623 110.955 552.136 110.955H486.353C476.767 110.955 469.163 107.649 462.552 101.038C456.271 94.4264 453.296 86.8233 453.296 77.5673C453.296 73.2699 453.957 68.9725 455.61 65.0057C457.263 61.0389 459.577 57.4026 462.552 54.4275C465.858 51.1218 469.163 48.8078 473.461 47.155C477.428 45.5022 481.725 44.841 486.353 44.841V0.544771C464.866 0.544771 446.685 8.14786 431.809 23.354C416.934 38.5602 409.33 56.4109 409.33 77.5673C409.33 99.0543 416.934 117.236 431.809 132.442C446.685 147.317 464.866 154.921 486.353 154.921H552.136ZM674.69 0.544771V44.841V265H718.986V44.841H806.917V0.544771H674.69ZM887.168 44.1799L843.202 0.544771V265L887.168 220.704V44.1799ZM999.115 177.069L1038.12 99.3849L1076.8 177.069H1126.38L1038.12 0.544771L905.894 265H954.818L977.297 220.704L999.115 177.069ZM1148.2 221.034H1099.28L1121.09 265H1170.35L1148.2 221.034Z" fill="white"/>
</svg>
