<svg width="427" height="417" viewBox="0 0 427 417" fill="none" xmlns="http://www.w3.org/2000/svg">
<g filter="url(#filter0_f_1071_28455)">
<path d="M349.8 208.426C349.8 281.482 288.668 340.945 213.5 340.945C138.332 340.945 77.2 281.482 77.2 208.426C77.2 135.37 138.332 75.906 213.5 75.906C288.668 75.906 349.8 135.37 349.8 208.426ZM286.754 208.426C286.754 169.132 253.878 137.185 213.5 137.185C173.122 137.185 140.246 169.132 140.246 208.426C140.246 247.719 173.122 279.666 213.5 279.666C253.878 279.666 286.754 247.719 286.754 208.426ZM396.5 208.426C396.5 306.697 314.602 386.35 213.5 386.35C112.399 386.35 30.5 306.697 30.5 208.426C30.5 110.154 112.399 30.5 213.5 30.5C314.602 30.5 396.5 110.154 396.5 208.426ZM360.391 208.426C360.391 129.645 294.484 65.5798 213.5 65.5798C132.516 65.5798 66.6086 129.645 66.6086 208.426C66.6086 287.206 132.516 351.271 213.5 351.271C294.484 351.271 360.391 287.206 360.391 208.426ZM150.837 208.426C150.837 174.852 178.935 147.511 213.5 147.511C248.065 147.511 276.163 174.852 276.163 208.426C276.163 241.999 248.065 269.34 213.5 269.34C178.935 269.34 150.837 241.999 150.837 208.426Z" stroke="#D5BA95" stroke-opacity="0.9"/>
</g>
<defs>
<filter id="filter0_f_1071_28455" x="0" y="0" width="427" height="416.85" filterUnits="userSpaceOnUse" color-interpolation-filters="sRGB">
<feFlood flood-opacity="0" result="BackgroundImageFix"/>
<feBlend mode="normal" in="SourceGraphic" in2="BackgroundImageFix" result="shape"/>
<feGaussianBlur stdDeviation="15" result="effect1_foregroundBlur_1071_28455"/>
</filter>
</defs>
</svg>
