<svg width="367" height="357" viewBox="0 0 367 357" fill="none" xmlns="http://www.w3.org/2000/svg">
<path d="M320.05 178.426C320.05 251.626 258.8 311.195 183.5 311.195C108.2 311.195 46.95 251.626 46.95 178.426C46.95 105.225 108.2 45.656 183.5 45.656C258.8 45.656 320.05 105.225 320.05 178.426ZM256.504 178.426C256.504 139.277 223.747 107.435 183.5 107.435C143.253 107.435 110.496 139.277 110.496 178.426C110.496 217.574 143.253 249.416 183.5 249.416C223.747 249.416 256.504 217.574 256.504 178.426ZM366.75 178.426C366.75 276.841 284.733 356.6 183.5 356.6C82.2671 356.6 0.25 276.841 0.25 178.426C0.25 80.009 82.2671 0.25 183.5 0.25C284.733 0.25 366.75 80.009 366.75 178.426ZM330.141 178.426C330.141 99.7897 264.352 35.8298 183.5 35.8298C102.648 35.8298 36.8586 99.7897 36.8586 178.426C36.8586 257.062 102.648 321.021 183.5 321.021C264.352 321.021 330.141 257.062 330.141 178.426ZM120.587 178.426C120.587 144.707 148.804 117.261 183.5 117.261C218.197 117.261 246.413 144.707 246.413 178.426C246.413 212.144 218.197 239.59 183.5 239.59C148.804 239.59 120.587 212.144 120.587 178.426Z" stroke="#01FFE1" stroke-opacity="0.9" stroke-width="0.5"/>
</svg>
